<?xml version="1.0" encoding="utf-8"?>
<!-- Generator: Adobe Illustrator 25.2.1, SVG Export Plug-In . SVG Version: 6.00 Build 0)  -->
<svg version="1.1" id="Layer_1" xmlns="http://www.w3.org/2000/svg" xmlns:xlink="http://www.w3.org/1999/xlink" x="0px" y="0px"
	 viewBox="0 0 610 610" style="enable-background:new 0 0 610 610;" xml:space="preserve">
<style type="text/css">
	.st0{fill:#FFFFFF;}
</style>
<g>
	<path class="st0" d="M218.1,322.3v-34.2c0-4.9,0.6-6.9,1.6-8.9h-22.9c1,2,1.6,4,1.6,8.9V322c0,4.9-0.6,6.8-1.6,8.9h44.6l1.7-10.2
		c-2.2,1.4-6.2,1.7-8.5,1.7L218.1,322.3L218.1,322.3z"/>
	<path class="st0" d="M126.2,279.2H83.9c0.9,2,1.6,3.9,1.6,8.6h19.7h4h7.5c2.5,0,3.2,0.4,3.2,2.9v6.3c0,2.5-0.7,2.9-3.2,2.9h-11.5
		V292H85.5v30c0,4.9-0.6,6.9-1.6,8.9h42.3c10.9,0,13.4-4.4,13.4-10.6v-8.6c0-5.5-2.7-6.5-11.2-7.5v-0.2c7.2-0.6,11.2-1.7,11.2-8.2
		v-5.9C139.6,283.5,137.1,279.2,126.2,279.2 M119.9,319.4c0,2.5-0.7,2.9-3.2,2.9h-11.5v-13.9h11.5c2.5,0,3.2,0.4,3.2,2.9V319.4z"/>
	<path class="st0" d="M166.5,322.3v-13.9h14c4.5,0,6.8,0.7,8.9,1.4v-11.3c-2.1,0.7-4.4,1.4-8.9,1.4h-14V292h-19.7v30
		c0,4.9-0.6,6.8-1.6,8.9h45.5l1.8-9.9c-2,0.6-4.3,1.4-8.9,1.4L166.5,322.3L166.5,322.3z"/>
	<path class="st0" d="M166.5,287.7h5.4h10.7c4.6,0,6.9,0.7,8.9,1.4l-1.6-9.9h-44.7c0.9,2,1.6,3.9,1.6,8.6H166.5z"/>
	<path class="st0" d="M450.5,279.2H421c-6.5,0-10.7,2.4-12.3,8.6h22.8h1.2h7.3c2.6,0,3.9,0.8,3.9,3.3V319c0,2.5-1.3,3.3-3.9,3.3
		h-8.5c-2.6,0-3.9-0.8-3.9-3.3v-27H408c-0.1,0.8-0.1,1.5-0.1,2.4v21.3c0,11.1,4.7,15.2,13.1,15.2h29.5c8.4,0,13.1-4,13.1-15.2v-21.3
		C463.6,283.2,458.9,279.2,450.5,279.2"/>
	<path class="st0" d="M521.8,322.9l-7-14.5c4.2-0.3,7.9-0.7,7.9-8.3v-9.5c0-8.6-4.4-11.4-13.4-11.4h-42.4c1.4,2,2.1,3.9,2.1,8.6
		h19.7h4.9h6.2c2.5,0,3.2,0.4,3.2,2.9v6.3c0,2.5-0.7,2.9-3.2,2.9h-11.1V292h-19.7v30c0,4.9-0.6,6.9-1.6,8.9h22.9
		c-1-2-1.6-3.9-1.6-8.9v-13.6h6l9.4,22.4h22C524.4,328.9,523.4,326.2,521.8,322.9"/>
	<path class="st0" d="M353.1,279.2l-1.6,10.7c2.2-1.4,3.7-2.1,7.4-2.1h8.9V322c0,4.9-0.6,6.9-1.6,8.9h22.9c-1-2-1.6-4-1.6-8.9v-34.2
		h9c3.6,0,5.2,0.7,7.3,2.1l-1.6-10.7L353.1,279.2L353.1,279.2z"/>
	<path class="st0" d="M267.4,322.3v-34.2c0-4.9,0.6-6.9,1.6-8.9h-22.9c1,2,1.6,4,1.6,8.9V322c0,4.9-0.7,6.8-1.6,8.9h44.6l1.7-10.2
		c-2.2,1.4-6.2,1.7-8.5,1.7L267.4,322.3L267.4,322.3z"/>
	<path class="st0" d="M338.7,279.2h-23.3l2.3,2.9l-18.8,39.4c-1.8,4-2.8,5.4-5.9,9.4h14.6c-1-1.8-1.1-1.9-1.1-3.7
		c0-1,0.2-2.1,0.7-3.1l3.5-7.1h22.7l2.8,6.6c0.5,1.1,0.7,2.7,0.7,3.9c0,1.1-0.2,1.5-1.1,3.4h25.9c-1.8-1.9-3.4-4.4-4.5-7.1
		L338.7,279.2z M314.6,308.4l7.9-17.4l7.4,17.4H314.6z"/>
</g>
</svg>
