<?xml version="1.0" encoding="utf-8"?>
<!-- Generator: Adobe Illustrator 25.2.1, SVG Export Plug-In . SVG Version: 6.00 Build 0)  -->
<svg version="1.1" id="Layer_1" xmlns="http://www.w3.org/2000/svg" xmlns:xlink="http://www.w3.org/1999/xlink" x="0px" y="0px"
	 viewBox="0 0 610 610" style="enable-background:new 0 0 610 610;" xml:space="preserve">
<style type="text/css">
	.st0{fill:#FFFFFF;}
</style>
<g>
	<rect x="248.4" y="274" class="st0" width="29.4" height="5.7"/>
	<rect x="248.4" y="248.5" class="st0" width="29.4" height="5.7"/>
	<path class="st0" d="M211.6,211.6v186.7h186.7V211.6H211.6z M313.1,227.6h69.4v20.9h-48.4v5.7h48.4V274h-48.4v5.7h48.4v20.9h-69.4
		L313.1,227.6z M273.6,382.6h-21v-46.4h21V382.6z M298.8,330.6h-71.3v-20.9h71.3L298.8,330.6L298.8,330.6z M303.3,280.8
		c-1,11.3-9.3,19.7-28,19.7h-47.8v-73H274c16.9,0,24.2,6.5,26.8,17c1.8,7.5-1.4,15.6-5,19.1C299,266.2,304.2,270.6,303.3,280.8z
		 M371.2,382.6l-23.4-17.7l-23.4,17.7l8.9-28.6l-23.4-17.7l29,0l9-28.7l9,28.7l29,0L362.2,354L371.2,382.6z"/>
</g>
</svg>
