<?xml version="1.0" encoding="utf-8"?>
<!-- Generator: Adobe Illustrator 25.2.1, SVG Export Plug-In . SVG Version: 6.00 Build 0)  -->
<svg version="1.1" id="Layer_1" xmlns="http://www.w3.org/2000/svg" xmlns:xlink="http://www.w3.org/1999/xlink" x="0px" y="0px"
	 viewBox="0 0 610 610" style="enable-background:new 0 0 610 610;" xml:space="preserve">
<style type="text/css">
	.st0{fill:#FFFFFF;}
</style>
<g>
	<path class="st0" d="M232.8,304.9c0,13.6-4.8,25.2-14.4,34.8c-9.6,9.6-21.2,14.4-34.7,14.4c-13.5,0-25.1-4.8-34.7-14.4
		c-9.6-9.6-14.4-21.2-14.4-34.8c0-13.5,4.8-25.1,14.4-34.7c9.6-9.6,21.2-14.4,34.7-14.4c13.5,0,25.1,4.8,34.7,14.4
		C228,279.8,232.8,291.4,232.8,304.9 M229.8,305c-3.9-8.5-9.8-15.4-17.9-20.7c-8.5-5.8-17.9-8.6-28.3-8.6s-19.9,2.9-28.4,8.6
		c-8,5.3-13.9,12.2-17.8,20.7c3.9,8.5,9.8,15.4,17.8,20.9c8.6,5.7,18.1,8.5,28.4,8.5s19.8-2.8,28.3-8.5
		C220,320.4,226,313.5,229.8,305 M209.8,304.9c0,7.2-2.5,13.3-7.6,18.4s-11.2,7.6-18.4,7.6c-7.2,0-13.3-2.5-18.4-7.6
		c-5.1-5.1-7.6-11.2-7.6-18.4c0-7.2,2.5-13.3,7.6-18.4c5.1-5.1,11.2-7.6,18.4-7.6c7.2,0,13.3,2.5,18.4,7.6
		C207.3,291.6,209.8,297.7,209.8,304.9"/>
	<path class="st0" d="M241.6,305c0-25.4,20.9-46.3,48.2-46.3c24.7,0,37.4,17.8,37.4,17.8l-12.7,12.7c0,0-8.9-12.7-24.7-12.7
		c-15.9,0-28.5,12.7-28.5,28.5c0,15.9,12.7,28.5,28.5,28.5c16.5,0,25.4-12.7,25.4-12.7l12.7,12.7c0,0-12.7,17.8-38.1,17.8
		C262.5,351.3,241.6,330.4,241.6,305"/>
	<path class="st0" d="M334.9,260.6h37.4c17.8,0,28.5,10.8,28.5,23.5c0,14-12.1,18.4-12.1,18.4s16.5,4.4,16.5,21.6
		c0,14-11.4,25.4-30.4,25.4h-40L334.9,260.6L334.9,260.6z M371.1,294.9c6.3,0,10.2-3.8,10.2-8.9c0-5.1-3.8-8.9-10.2-8.9h-17.1v17.8
		H371.1z M373.6,332.9c7.6,0,12.1-4.4,12.1-10.8c0-6.3-4.4-10.8-12.1-10.8h-19.7v21.6L373.6,332.9L373.6,332.9z"/>
	<path class="st0" d="M407.6,337.4l12.7-12.7c0,0,7.6,9.5,20.9,9.5c10.1,0,14.6-4.4,14.6-10.1c0-15.2-44.4-8.2-44.4-39.3
		c0-14,12.1-26,32.3-26c19.7,0,29.8,12,29.8,12l-12.7,12.7c0,0-6.3-7.6-16.5-7.6c-9.5,0-13.3,3.8-13.3,8.9
		c0,15.2,44.4,8.2,44.4,39.3c0,14.6-12.7,27.3-33.6,27.3C419,351.3,407.6,337.4,407.6,337.4"/>
</g>
</svg>
