<?xml version="1.0" encoding="utf-8"?>
<!-- Generator: Adobe Illustrator 25.2.1, SVG Export Plug-In . SVG Version: 6.00 Build 0)  -->
<svg version="1.1" id="Layer_1" xmlns="http://www.w3.org/2000/svg" xmlns:xlink="http://www.w3.org/1999/xlink" x="0px" y="0px"
	 viewBox="0 0 610 610" style="enable-background:new 0 0 610 610;" xml:space="preserve">
<style type="text/css">
	.st0{fill:#FFFFFF;}
</style>
<g>
	<g>
		<path class="st0" d="M326.6,312.7c0,0-12.6,17.6-37.8,17.6c-27.1,0-47.9-20.8-47.9-46c0-25.2,20.8-46,47.9-46
			c24.6,0,37.2,17.6,37.2,17.6l-12.6,12.6c0,0-8.8-12.6-24.6-12.6s-28.4,12.6-28.4,28.4s12.6,28.4,28.4,28.4
			c16.4,0,25.2-12.6,25.2-12.6L326.6,312.7z"/>
		<path class="st0" d="M333.7,240.2h37.2c17.6,0,28.4,10.7,28.4,23.3c0,13.9-12,18.3-12,18.3s16.4,4.4,16.4,21.4
			c0,13.9-11.3,25.2-30.3,25.2h-39.7L333.7,240.2L333.7,240.2z M369.6,274.2c6.3,0,10.1-3.8,10.1-8.8c0-5-3.8-8.8-10.1-8.8h-17v17.6
			H369.6z M372.1,312c7.6,0,12-4.4,12-10.7c0-6.3-4.4-10.7-12-10.7h-19.5V312H372.1z"/>
		<path class="st0" d="M418.5,303.8c0,0,7.6,9.5,20.8,9.5c10.1,0,14.5-4.4,14.5-10.1c0-15.1-44.1-8.2-44.1-39.1
			c0-13.9,12-25.8,32.1-25.8c19.5,0,29.6,12,29.6,12l-12.6,12.6c0,0-6.3-7.6-16.4-7.6c-9.5,0-13.2,3.8-13.2,8.8
			c0,15.1,44.1,8.2,44.1,39.1c0,14.5-12.6,27.1-33.4,27.1c-22.7,0-34-13.9-34-13.9L418.5,303.8z"/>
		<path class="st0" d="M232.2,284.2c0,13.5-4.8,25.1-14.3,34.6c-9.5,9.5-21,14.3-34.5,14.3s-25-4.8-34.5-14.3
			c-9.6-9.5-14.4-21.1-14.4-34.6c0-13.4,4.8-24.9,14.4-34.5c9.6-9.5,21.1-14.3,34.5-14.3s24.9,4.8,34.5,14.3
			C227.4,259.3,232.2,270.8,232.2,284.2 M229.2,284.3c-3.8-8.4-9.8-15.3-17.8-20.6c-8.4-5.7-17.8-8.6-28.1-8.6
			c-10.3,0-19.7,2.9-28.2,8.6c-7.9,5.3-13.8,12.2-17.6,20.6c3.8,8.4,9.7,15.4,17.6,20.7c8.5,5.6,17.9,8.4,28.2,8.4
			c10.3,0,19.7-2.8,28.1-8.4C219.5,299.6,225.4,292.7,229.2,284.3 M209.3,284.2c0,7.1-2.5,13.3-7.6,18.3c-5.1,5.1-11.2,7.6-18.3,7.6
			c-7.1,0-13.3-2.5-18.3-7.6c-5.1-5.1-7.6-11.2-7.6-18.3s2.5-13.2,7.6-18.3c5.1-5,11.2-7.5,18.3-7.5c7.1,0,13.3,2.5,18.3,7.5
			C206.8,271,209.3,277.1,209.3,284.2"/>
		<polygon class="st0" points="137.9,345 140.6,345 152.7,360.8 164.7,345 167.4,345 167.4,374.1 164.3,374.1 164.3,350.4 
			152.7,365.8 141,350.4 141,374.1 137.9,374.1 		"/>
		<polygon class="st0" points="174.5,345 194.5,345 194.5,347.9 177.6,347.9 177.6,357.5 191.1,357.5 191.1,360.4 177.6,360.4 
			177.6,371.2 194.9,371.2 194.9,374.1 174.5,374.1 		"/>
		<path class="st0" d="M199.5,345h9.2c8.5,0,15.2,6.7,15.2,14.6c0,7.9-6.7,14.6-15.2,14.6h-9.2V345z M208.6,371.2
			c6.9,0,12.1-5.2,12.1-11.6c0-6.4-5.2-11.6-12.1-11.6h-6v23.3H208.6z"/>
		<rect x="229" y="345" class="st0" width="3.1" height="29.1"/>
		<path class="st0" d="M247.7,345h2.9l12.1,29.1h-3.3L256,366h-13.7l-3.3,8.1h-3.3L247.7,345z M254.8,363.1l-5.6-13.7l-5.6,13.7
			H254.8z"/>
		<polygon class="st0" points="270.2,345 273.5,345 283.1,369.7 292.6,345 296,345 284.5,374.1 281.6,374.1 		"/>
		<polygon class="st0" points="299.9,345 319.9,345 319.9,347.9 303,347.9 303,357.5 316.6,357.5 316.6,360.4 303,360.4 303,371.2 
			320.3,371.2 320.3,374.1 299.9,374.1 		"/>
		<polygon class="st0" points="324.9,345 327.6,345 345.5,368.5 345.5,345 348.6,345 348.6,374.1 345.9,374.1 328,350.6 328,374.1 
			324.9,374.1 		"/>
		<polygon class="st0" points="361.3,347.9 352.1,347.9 352.1,345 373.5,345 373.5,347.9 364.4,347.9 364.4,374.1 361.3,374.1 		"/>
		<path class="st0" d="M376.7,345h3.1v17.7c0,5.2,3.7,8.9,8.7,8.9c5,0,8.7-3.7,8.7-8.9V345h3.1v17.7c0,6.7-5.2,11.9-11.9,11.9
			s-11.9-5.2-11.9-11.9L376.7,345L376.7,345z"/>
		<path class="st0" d="M407,345h11.6c5.2,0,8.9,3.7,8.9,8.7c0,6.7-6,8.3-6,8.3l6.9,12.1h-3.5l-6.4-11.6h-8.3v11.6H407V345z
			 M418.7,359.6c3.5,0,5.8-2.3,5.8-5.8s-2.3-5.8-5.8-5.8h-8.5v11.6L418.7,359.6L418.7,359.6z"/>
		<polygon class="st0" points="433.4,345 453.4,345 453.4,347.9 436.6,347.9 436.6,357.5 450.1,357.5 450.1,360.4 436.6,360.4 
			436.6,371.2 453.8,371.2 453.8,374.1 433.4,374.1 		"/>
		<path class="st0" d="M457.8,368c0,0,2.5,3.6,7.9,3.6c4.4,0,6.7-2.3,6.7-5.4c0-7.5-15.8-3.3-15.8-13.7c0-4.2,3.6-7.9,9.4-7.9
			c5.6,0,8.5,3.7,8.5,3.7l-2.1,2.1c0,0-2.1-2.9-6.4-2.9c-4,0-6.2,2.4-6.2,5c0,7.5,15.8,3.3,15.8,13.7c0,4.8-3.5,8.3-9.8,8.3
			c-6.7,0-9.8-4.4-9.8-4.4L457.8,368z"/>
	</g>
</g>
</svg>
