<?xml version="1.0" encoding="utf-8"?>
<!-- Generator: Adobe Illustrator 25.2.1, SVG Export Plug-In . SVG Version: 6.00 Build 0)  -->
<svg version="1.1" id="Layer_1" xmlns="http://www.w3.org/2000/svg" xmlns:xlink="http://www.w3.org/1999/xlink" x="0px" y="0px"
	 viewBox="0 0 610 610" style="enable-background:new 0 0 610 610;" xml:space="preserve">
<style type="text/css">
	.st0{fill:#FFFFFF;}
</style>
<g>
	<path class="st0" d="M141.8,305c0,8.3-2.9,15.3-8.7,21.1c-5.8,5.8-12.8,8.7-21,8.7c-8.2,0-15.2-2.9-21.1-8.7
		c-5.8-5.8-8.8-12.8-8.8-21.1c0-8.2,2.9-15.2,8.8-21c5.8-5.8,12.9-8.7,21.1-8.7c8.2,0,15.2,2.9,21,8.7
		C138.9,289.8,141.8,296.8,141.8,305 M140,305c-2.3-5.1-6-9.3-10.8-12.6c-5.2-3.5-10.9-5.2-17.2-5.2c-6.3,0-12,1.7-17.2,5.2
		c-4.8,3.2-8.4,7.4-10.8,12.6c2.3,5.2,5.9,9.4,10.8,12.6c5.2,3.4,10.9,5.2,17.2,5.2c6.3,0,12-1.7,17.2-5.2
		C134.1,314.4,137.7,310.2,140,305 M127.9,305c0,4.4-1.5,8.1-4.6,11.2c-3.1,3.1-6.8,4.6-11.2,4.6c-4.4,0-8.1-1.5-11.2-4.6
		c-3.1-3.1-4.6-6.8-4.6-11.2c0-4.4,1.5-8.1,4.6-11.1c3.1-3.1,6.8-4.6,11.2-4.6c4.4,0,8.1,1.5,11.2,4.6
		C126.3,296.9,127.9,300.6,127.9,305"/>
	<path class="st0" d="M147.1,305c0-15.4,12.7-28.1,29.2-28.1c15,0,22.7,10.8,22.7,10.8l-7.7,7.7c0,0-5.4-7.7-15-7.7
		c-9.6,0-17.3,7.7-17.3,17.3s7.7,17.3,17.3,17.3c10,0,15.4-7.7,15.4-7.7l7.7,7.7c0,0-7.7,10.8-23.1,10.8
		C159.8,333.1,147.1,320.4,147.1,305"/>
	<path class="st0" d="M203.7,278.1h22.7c10.8,0,17.3,6.5,17.3,14.2c0,8.5-7.3,11.1-7.3,11.1s10,2.7,10,13.1
		c0,8.5-6.9,15.4-18.5,15.4h-24.2V278.1z M225.6,298.9c3.8,0,6.2-2.3,6.2-5.4c0-3.1-2.3-5.4-6.2-5.4h-10.4v10.8L225.6,298.9
		L225.6,298.9z M227.2,321.9c4.6,0,7.3-2.7,7.3-6.5c0-3.8-2.7-6.5-7.3-6.5h-11.9v13.1H227.2z"/>
	<path class="st0" d="M247.8,324.6l7.7-7.7c0,0,4.6,5.8,12.7,5.8c6.1,0,8.8-2.7,8.8-6.2c0-9.2-26.9-5-26.9-23.8
		c0-8.5,7.3-15.8,19.6-15.8c11.9,0,18.1,7.3,18.1,7.3l-7.7,7.7c0,0-3.8-4.6-10-4.6c-5.8,0-8.1,2.3-8.1,5.4c0,9.2,26.9,5,26.9,23.8
		c0,8.8-7.7,16.5-20.4,16.5C254.7,333.1,247.8,324.6,247.8,324.6"/>
	<polygon class="st0" points="308.1,278.1 318.5,278.1 344.7,311.5 344.7,278.1 356.2,278.1 356.2,331.9 345.8,331.9 319.7,298.5 
		319.7,331.9 308.1,331.9 	"/>
	<polygon class="st0" points="364,278.1 404,278.1 404,288.9 375.6,288.9 375.6,299.2 397.9,299.2 397.9,309.6 375.6,309.6 
		375.6,321.2 404.8,321.2 404.8,331.9 364,331.9 	"/>
	<polygon class="st0" points="407.5,278.1 419.4,278.1 430.6,314.2 430.9,314.2 442.1,278.1 452.9,278.1 464,314.2 464.4,314.2 
		475.6,278.1 487.5,278.1 469.8,331.9 458.6,331.9 447.7,296.9 447.2,296.9 436.3,331.9 425.2,331.9 	"/>
	<path class="st0" d="M486.6,324.6l7.7-7.7c0,0,4.6,5.8,12.7,5.8c6.1,0,8.8-2.7,8.8-6.2c0-9.2-26.9-5-26.9-23.8
		c0-8.5,7.3-15.8,19.6-15.8c11.9,0,18.1,7.3,18.1,7.3l-7.7,7.7c0,0-3.8-4.6-10-4.6c-5.8,0-8.1,2.3-8.1,5.4c0,9.2,26.9,5,26.9,23.8
		c0,8.8-7.7,16.5-20.4,16.5C493.5,333.1,486.6,324.6,486.6,324.6"/>
</g>
</svg>
