<?xml version="1.0" encoding="utf-8"?>
<!-- Generator: Adobe Illustrator 25.2.1, SVG Export Plug-In . SVG Version: 6.00 Build 0)  -->
<svg version="1.1" id="Layer_1" xmlns="http://www.w3.org/2000/svg" xmlns:xlink="http://www.w3.org/1999/xlink" x="0px" y="0px"
	 viewBox="0 0 610 610" style="enable-background:new 0 0 610 610;" xml:space="preserve">
<style type="text/css">
	.st0{fill:#FFFFFF;}
</style>
<g>
	<path class="st0" d="M109,305c0,8.3-2.9,15.3-8.7,21.1c-5.8,5.8-12.8,8.7-21,8.7s-15.2-2.9-21.1-8.7c-5.8-5.8-8.8-12.8-8.8-21.1
		c0-8.2,2.9-15.2,8.8-21c5.8-5.8,12.9-8.7,21.1-8.7s15.2,2.9,21,8.7C106.1,289.7,109,296.8,109,305 M107.2,305
		c-2.4-5.1-6-9.3-10.8-12.6c-5.2-3.5-10.9-5.2-17.2-5.2c-6.3,0-12,1.7-17.2,5.2c-4.8,3.2-8.4,7.4-10.8,12.6
		c2.3,5.2,5.9,9.4,10.8,12.6c5.2,3.4,10.9,5.1,17.2,5.1c6.3,0,12-1.7,17.2-5.1C101.3,314.4,104.9,310.2,107.2,305 M95.1,305
		c0,4.4-1.5,8.1-4.6,11.2c-3.1,3.1-6.8,4.6-11.2,4.6c-4.4,0-8.1-1.5-11.2-4.6c-3.1-3.1-4.6-6.8-4.6-11.2s1.5-8.1,4.6-11.1
		c3.1-3.1,6.8-4.6,11.2-4.6c4.4,0,8.1,1.5,11.2,4.6C93.6,296.9,95.1,300.6,95.1,305"/>
	<path class="st0" d="M114.3,305c0-15.4,12.7-28.1,29.2-28.1c15,0,22.7,10.8,22.7,10.8l-7.7,7.7c0,0-5.4-7.7-15-7.7
		c-9.6,0-17.3,7.7-17.3,17.3c0,9.6,7.7,17.3,17.3,17.3c10,0,15.4-7.7,15.4-7.7l7.7,7.7c0,0-7.7,10.8-23.1,10.8
		C127,333.1,114.3,320.4,114.3,305"/>
	<path class="st0" d="M170.9,278.1h22.7c10.8,0,17.3,6.5,17.3,14.2c0,8.5-7.3,11.2-7.3,11.2s10,2.7,10,13.1
		c0,8.5-6.9,15.4-18.5,15.4h-24.2L170.9,278.1L170.9,278.1z M192.9,298.8c3.8,0,6.2-2.3,6.2-5.4c0-3.1-2.3-5.4-6.2-5.4h-10.4v10.8
		H192.9z M194.4,321.9c4.6,0,7.3-2.7,7.3-6.5c0-3.8-2.7-6.5-7.3-6.5h-11.9v13.1L194.4,321.9L194.4,321.9z"/>
	<path class="st0" d="M215,324.6l7.7-7.7c0,0,4.6,5.8,12.7,5.8c6.2,0,8.9-2.7,8.9-6.1c0-9.2-26.9-5-26.9-23.8
		c0-8.5,7.3-15.8,19.6-15.8c11.9,0,18.1,7.3,18.1,7.3l-7.7,7.7c0,0-3.8-4.6-10-4.6c-5.8,0-8.1,2.3-8.1,5.4c0,9.2,26.9,5,26.9,23.8
		c0,8.8-7.7,16.5-20.4,16.5C221.9,333.1,215,324.6,215,324.6"/>
	<path class="st0" d="M272.7,324.6l7.7-7.7c0,0,4.6,5.8,12.7,5.8c6.1,0,8.8-2.7,8.8-6.1c0-9.2-26.9-5-26.9-23.8
		c0-8.5,7.3-15.8,19.6-15.8c11.9,0,18.1,7.3,18.1,7.3l-7.7,7.7c0,0-3.8-4.6-10-4.6c-5.8,0-8.1,2.3-8.1,5.4c0,9.2,26.9,5,26.9,23.8
		c0,8.8-7.7,16.5-20.4,16.5C279.6,333.1,272.7,324.6,272.7,324.6"/>
	<path class="st0" d="M319.3,278.1H342c11.5,0,19.2,7.7,19.2,18.1c0,10.4-7.7,18.1-19.2,18.1h-11.2v17.7h-11.5V278.1z M341.6,303.5
		c4.6,0,7.7-3.1,7.7-7.3c0-4.2-3.1-7.3-7.7-7.3h-10.8v14.6H341.6z"/>
	<path class="st0" d="M365,305c0-15.4,12.7-28.1,29.2-28.1c16.5,0,29.2,12.7,29.2,28.1c0,15.4-12.7,28.1-29.2,28.1
		C377.7,333.1,365,320.4,365,305 M411.5,305c0-9.6-7.7-17.3-17.3-17.3c-9.6,0-17.3,7.7-17.3,17.3c0,9.6,7.7,17.3,17.3,17.3
		C403.8,322.3,411.5,314.6,411.5,305"/>
	<path class="st0" d="M429.5,278.1h23.8c11.5,0,18.8,7.3,18.8,18.1c0,12.3-9.2,15.8-9.2,15.8l11.1,20h-12.7l-9.6-17.7H441v17.7
		h-11.5L429.5,278.1L429.5,278.1z M453,303.5c4.2,0,7.3-3.1,7.3-7.3c0-4.2-3.1-7.3-7.3-7.3H441v14.6H453z"/>
	<polygon class="st0" points="491.4,288.9 476,288.9 476,278.1 518.3,278.1 518.3,288.9 502.9,288.9 502.9,331.9 491.4,331.9 	"/>
	<path class="st0" d="M519.4,324.6l7.7-7.7c0,0,4.6,5.8,12.7,5.8c6.2,0,8.8-2.7,8.8-6.1c0-9.2-26.9-5-26.9-23.8
		c0-8.5,7.3-15.8,19.6-15.8c11.9,0,18.1,7.3,18.1,7.3l-7.7,7.7c0,0-3.8-4.6-10-4.6c-5.8,0-8.1,2.3-8.1,5.4c0,9.2,26.9,5,26.9,23.8
		c0,8.8-7.7,16.5-20.4,16.5C526.3,333.1,519.4,324.6,519.4,324.6"/>
</g>
</svg>
