<?xml version="1.0" encoding="utf-8"?>
<!-- Generator: Adobe Illustrator 25.2.1, SVG Export Plug-In . SVG Version: 6.00 Build 0)  -->
<svg version="1.1" id="Layer_1" xmlns="http://www.w3.org/2000/svg" xmlns:xlink="http://www.w3.org/1999/xlink" x="0px" y="0px"
	 viewBox="0 0 610 610" style="enable-background:new 0 0 610 610;" xml:space="preserve">
<style type="text/css">
	.st0{fill:#FFFFFF;}
</style>
<g>
	<g>
		<path class="st0" d="M109,269.4c0,8.3-2.9,15.3-8.7,21.1c-5.8,5.8-12.8,8.7-21,8.7c-8.2,0-15.2-2.9-21.1-8.7
			c-5.8-5.8-8.8-12.9-8.8-21.1c0-8.2,2.9-15.2,8.8-21c5.8-5.8,12.9-8.7,21.1-8.7c8.2,0,15.2,2.9,21,8.7
			C106.1,254.2,109,261.2,109,269.4 M107.2,269.4c-2.3-5.1-6-9.3-10.8-12.6c-5.2-3.5-10.9-5.2-17.2-5.2s-12,1.7-17.2,5.2
			c-4.8,3.2-8.4,7.4-10.8,12.6c2.3,5.2,5.9,9.4,10.8,12.6c5.2,3.4,10.9,5.1,17.2,5.1s12-1.7,17.2-5.1
			C101.3,278.8,104.9,274.6,107.2,269.4 M95.1,269.4c0,4.4-1.5,8.1-4.6,11.2c-3.1,3.1-6.8,4.6-11.2,4.6c-4.4,0-8.1-1.5-11.2-4.6
			c-3.1-3.1-4.6-6.8-4.6-11.2c0-4.4,1.5-8.1,4.6-11.1c3.1-3.1,6.8-4.6,11.2-4.6c4.4,0,8.1,1.5,11.2,4.6
			C93.5,261.3,95.1,265,95.1,269.4"/>
		<path class="st0" d="M114.3,269.4c0-15.4,12.7-28.1,29.2-28.1c15,0,22.7,10.8,22.7,10.8l-7.7,7.7c0,0-5.4-7.7-15-7.7
			s-17.3,7.7-17.3,17.3c0,9.6,7.7,17.3,17.3,17.3c10,0,15.4-7.7,15.4-7.7l7.7,7.7c0,0-7.7,10.8-23.1,10.8
			C127,297.5,114.3,284.8,114.3,269.4"/>
		<path class="st0" d="M170.9,242.5h22.7c10.8,0,17.3,6.5,17.3,14.2c0,8.5-7.3,11.2-7.3,11.2s10,2.7,10,13.1
			c0,8.5-6.9,15.4-18.5,15.4h-24.2L170.9,242.5L170.9,242.5z M192.9,263.3c3.8,0,6.2-2.3,6.2-5.4c0-3.1-2.3-5.4-6.2-5.4h-10.4v10.8
			H192.9z M194.4,286.3c4.6,0,7.3-2.7,7.3-6.5c0-3.8-2.7-6.5-7.3-6.5h-11.9v13.1H194.4z"/>
		<path class="st0" d="M215,289l7.7-7.7c0,0,4.6,5.8,12.7,5.8c6.2,0,8.8-2.7,8.8-6.2c0-9.2-26.9-5-26.9-23.8
			c0-8.5,7.3-15.8,19.6-15.8c11.9,0,18.1,7.3,18.1,7.3l-7.7,7.7c0,0-3.8-4.6-10-4.6c-5.8,0-8.1,2.3-8.1,5.4c0,9.2,26.9,5,26.9,23.8
			c0,8.8-7.7,16.5-20.4,16.5C221.9,297.5,215,289,215,289"/>
		<path class="st0" d="M272.7,289l7.7-7.7c0,0,4.6,5.8,12.7,5.8c6.1,0,8.8-2.7,8.8-6.2c0-9.2-26.9-5-26.9-23.8
			c0-8.5,7.3-15.8,19.6-15.8c11.9,0,18.1,7.3,18.1,7.3l-7.7,7.7c0,0-3.9-4.6-10-4.6c-5.8,0-8.1,2.3-8.1,5.4c0,9.2,26.9,5,26.9,23.8
			c0,8.8-7.7,16.5-20.4,16.5C279.6,297.5,272.7,289,272.7,289"/>
		<path class="st0" d="M319.3,242.5H342c11.5,0,19.2,7.7,19.2,18.1c0,10.4-7.7,18.1-19.2,18.1h-11.2v17.7h-11.5L319.3,242.5
			L319.3,242.5z M341.6,267.9c4.6,0,7.7-3.1,7.7-7.3c0-4.2-3.1-7.3-7.7-7.3h-10.8v14.6H341.6z"/>
		<path class="st0" d="M365,269.4c0-15.4,12.7-28.1,29.2-28.1c16.5,0,29.2,12.7,29.2,28.1c0,15.4-12.7,28.1-29.2,28.1
			C377.7,297.5,365,284.8,365,269.4 M411.5,269.4c0-9.6-7.7-17.3-17.3-17.3c-9.6,0-17.3,7.7-17.3,17.3c0,9.6,7.7,17.3,17.3,17.3
			C403.8,286.7,411.5,279,411.5,269.4"/>
		<path class="st0" d="M429.5,242.5h23.8c11.5,0,18.8,7.3,18.8,18.1c0,12.3-9.2,15.8-9.2,15.8l11.1,20h-12.7l-9.6-17.7H441v17.7
			h-11.5L429.5,242.5L429.5,242.5z M453,267.9c4.2,0,7.3-3.1,7.3-7.3c0-4.2-3.1-7.3-7.3-7.3H441v14.6H453z"/>
		<polygon class="st0" points="491.4,253.3 476,253.3 476,242.5 518.3,242.5 518.3,253.3 502.9,253.3 502.9,296.3 491.4,296.3 		"/>
		<path class="st0" d="M519.4,289l7.7-7.7c0,0,4.6,5.8,12.7,5.8c6.2,0,8.8-2.7,8.8-6.2c0-9.2-26.9-5-26.9-23.8
			c0-8.5,7.3-15.8,19.6-15.8c11.9,0,18.1,7.3,18.1,7.3l-7.7,7.7c0,0-3.8-4.6-10-4.6c-5.8,0-8.1,2.3-8.1,5.4c0,9.2,26.9,5,26.9,23.8
			c0,8.8-7.7,16.5-20.4,16.5C526.3,297.5,519.4,289,519.4,289"/>
		<polygon class="st0" points="117.8,315.4 128.2,315.4 154.3,348.8 154.3,315.4 165.9,315.4 165.9,369.2 155.5,369.2 129.3,335.8 
			129.3,369.2 117.8,369.2 		"/>
		<polygon class="st0" points="173.7,315.4 213.7,315.4 213.7,326.2 185.2,326.2 185.2,336.5 207.5,336.5 207.5,346.9 185.2,346.9 
			185.2,358.5 214.5,358.5 214.5,369.2 173.7,369.2 		"/>
		<polygon class="st0" points="234.9,326.2 219.5,326.2 219.5,315.4 261.8,315.4 261.8,326.2 246.4,326.2 246.4,369.2 234.9,369.2 
					"/>
		<polygon class="st0" points="266,315.4 277.9,315.4 289.1,351.5 289.5,351.5 300.6,315.4 311.4,315.4 322.5,351.5 322.9,351.5 
			334.1,315.4 346,315.4 328.3,369.2 317.1,369.2 306.2,334.2 305.8,334.2 294.8,369.2 283.7,369.2 		"/>
		<path class="st0" d="M346,342.3c0-15.4,12.7-28.1,29.2-28.1c16.5,0,29.2,12.7,29.2,28.1c0,15.4-12.7,28.1-29.2,28.1
			C358.7,370.4,346,357.7,346,342.3 M392.5,342.3c0-9.6-7.7-17.3-17.3-17.3c-9.6,0-17.3,7.7-17.3,17.3s7.7,17.3,17.3,17.3
			C384.8,359.6,392.5,351.9,392.5,342.3"/>
		<path class="st0" d="M410.2,315.4H434c11.5,0,18.8,7.3,18.8,18.1c0,12.3-9.2,15.8-9.2,15.8l11.2,20h-12.7l-9.6-17.7h-10.8v17.7
			h-11.5L410.2,315.4L410.2,315.4z M433.6,340.8c4.2,0,7.3-3.1,7.3-7.3c0-4.2-3.1-7.3-7.3-7.3h-11.9v14.6H433.6z"/>
		<polygon class="st0" points="459.8,315.4 471.3,315.4 471.3,338.5 492.1,315.4 505.9,315.4 485.9,337.7 507.5,369.2 494,369.2 
			478.3,346.2 471.3,353.5 471.3,369.2 459.8,369.2 		"/>
	</g>
</g>
</svg>
