<?xml version="1.0" encoding="utf-8"?>
<!-- Generator: Adobe Illustrator 25.2.1, SVG Export Plug-In . SVG Version: 6.00 Build 0)  -->
<svg version="1.1" id="Layer_1" xmlns="http://www.w3.org/2000/svg" xmlns:xlink="http://www.w3.org/1999/xlink" x="0px" y="0px"
	 viewBox="0 0 610 610" style="enable-background:new 0 0 610 610;" xml:space="preserve">
<style type="text/css">
	.st0{fill:#FFFFFF;}
</style>
<g id="Outlined">
	<g>
		<g>
			<path class="st0" d="M106.2,305c0-15.4,12.7-28.1,29.2-28.1c15,0,22.6,10.8,22.6,10.8l-7.6,7.6c0,0-5.3-7.6-15-7.6
				c-9.7,0-17.3,7.6-17.3,17.3c0,9.7,7.6,17.3,17.3,17.3c10,0,15.4-7.6,15.4-7.6l7.6,7.6c0,0-7.6,10.8-23,10.8
				C118.9,333.1,106.2,320.4,106.2,305z"/>
			<path class="st0" d="M162.7,278.1h22.6c10.8,0,17.3,6.5,17.3,14.2c0,8.5-7.3,11.1-7.3,11.1s10,2.7,10,13.1
				c0,8.5-6.9,15.4-18.4,15.4h-24.2v-53.8L162.7,278.1L162.7,278.1z M184.7,298.8c3.9,0,6.2-2.3,6.2-5.3c0-3-2.3-5.3-6.2-5.3h-10.4
				v10.8h10.4V298.8z M186.2,322c4.6,0,7.3-2.7,7.3-6.5c0-3.9-2.7-6.5-7.3-6.5h-11.9V322H186.2z"/>
			<path class="st0" d="M206.8,324.6l7.6-7.6c0,0,4.6,5.8,12.7,5.8c6.2,0,8.8-2.7,8.8-6.2c0-9.2-26.9-5-26.9-23.9
				c0-8.5,7.3-15.7,19.6-15.7c11.9,0,18,7.3,18,7.3l-7.7,7.6c0,0-3.9-4.6-10.1-4.6c-5.8,0-8.1,2.3-8.1,5.3c0,9.2,26.9,5,26.9,23.9
				c0,8.8-7.6,16.5-20.3,16.5C213.7,333.1,206.8,324.6,206.8,324.6z"/>
			<path class="st0" d="M266.4,324.6l3.5-3.9c0,0,4.6,6.7,14.7,6.7c8.1,0,12.3-4.2,12.3-10.1c0-13.8-29.2-6.2-29.2-25.3
				c0-7.9,6.7-14.7,17.3-14.7c10.3,0,15.7,6.9,15.7,6.9l-3.9,3.9c0,0-3.9-5.3-11.9-5.3c-7.4,0-11.5,4.4-11.5,9.2
				c0,13.8,29.2,6.2,29.2,25.3c0,8.8-6.5,15.4-18,15.4C272.1,332.7,266.4,324.6,266.4,324.6z"/>
			<path class="st0" d="M322,283.5h-17v-5.3h39.6v5.3h-17v48.4h-5.8v-48.4H322z"/>
			<path class="st0" d="M349.9,310.8v-32.7h5.8v32.7c0,9.6,6.9,16.5,16.1,16.5s16.1-6.9,16.1-16.5v-32.7h5.8v32.7
				c0,12.4-9.6,21.9-21.9,21.9C359.5,332.7,349.9,323,349.9,310.8z"/>
			<path class="st0" d="M403.1,278.1h17c15.7,0,28.1,12.4,28.1,26.9s-12.3,26.9-28.1,26.9h-17V278.1z M420,326.6
				c12.7,0,22.3-9.6,22.3-21.6s-9.6-21.6-22.3-21.6h-11.1v43H420V326.6z"/>
			<path class="st0" d="M457.2,278.1h5.8v53.8h-5.8V278.1z"/>
			<path class="st0" d="M472.2,305c0-15.4,12.4-27.7,27.7-27.7c15.4,0,27.7,12.4,27.7,27.7c0,15.4-12.3,27.7-27.7,27.7
				C484.6,332.7,472.2,320.4,472.2,305z M521.7,305c0-12.7-9.6-22.3-21.9-22.3c-12.4,0-21.9,9.6-21.9,22.3
				c0,12.7,9.6,22.3,21.9,22.3C512.2,327.3,521.7,317.7,521.7,305z"/>
			<path class="st0" d="M532.4,324.6l3.5-3.9c0,0,4.6,6.7,14.7,6.7c8.1,0,12.3-4.2,12.3-10.1c0-13.8-29.2-6.2-29.2-25.3
				c0-7.9,6.7-14.7,17.3-14.7c10.3,0,15.7,6.9,15.7,6.9l-3.9,3.9c0,0-3.9-5.3-11.9-5.3c-7.4,0-11.5,4.4-11.5,9.2
				c0,13.8,29.2,6.2,29.2,25.3c0,8.8-6.5,15.4-18,15.4C538.1,332.7,532.4,324.6,532.4,324.6z"/>
		</g>
		<g>
			<path class="st0" d="M100.9,305c0,8.2-2.9,15.3-8.7,21.1c-5.8,5.8-12.8,8.7-21.1,8.7c-8.2,0-15.3-2.9-21.1-8.7
				c-5.8-5.8-8.7-12.8-8.7-21.1c0-8.2,2.9-15.3,8.7-21.1c5.8-5.8,12.8-8.7,21.1-8.7c8.2,0,15.3,2.9,21.1,8.7
				C98,289.7,100.9,296.8,100.9,305z M99,305c-2.3-5.2-5.9-9.3-10.8-12.6c-5.1-3.5-10.9-5.2-17.2-5.2c-6.3,0-12,1.7-17.2,5.2
				c-4.8,3.3-8.5,7.4-10.8,12.6c2.3,5.2,5.9,9.3,10.8,12.6c5.2,3.4,10.9,5.2,17.2,5.2c6.3,0,12-1.7,17.2-5.2
				C93.1,314.3,96.7,310.2,99,305z M86.9,305c0,4.4-1.6,8.1-4.6,11.1c-3,3.1-6.8,4.6-11.1,4.6c-4.4,0-8.1-1.6-11.1-4.6
				s-4.6-6.8-4.6-11.1c0-4.4,1.6-8.1,4.6-11.1c3-3,6.8-4.6,11.1-4.6c4.4,0,8.1,1.6,11.1,4.6C85.4,296.9,86.9,300.6,86.9,305z"/>
		</g>
	</g>
</g>
</svg>
