<?xml version="1.0" encoding="utf-8"?>
<!-- Generator: Adobe Illustrator 25.2.1, SVG Export Plug-In . SVG Version: 6.00 Build 0)  -->
<svg version="1.1" id="Layer_1" xmlns="http://www.w3.org/2000/svg" xmlns:xlink="http://www.w3.org/1999/xlink" x="0px" y="0px"
	 viewBox="0 0 610 610" style="enable-background:new 0 0 610 610;" xml:space="preserve">
<style type="text/css">
	.st0{fill:#FFFFFF;}
</style>
<g>
	<polygon class="st0" points="226.9,208.7 229.2,215.5 231.2,208.6 238.4,208.5 232.5,204.4 234.6,197.5 228.9,202 223,197.8 
		225.5,204.6 219.7,208.9 	"/>
	<polygon class="st0" points="210.4,224.8 213.9,231.1 214.6,223.9 221.6,222.4 215.1,219.6 215.8,212.4 211.1,217.8 204.5,214.8 
		208.2,221.1 203.3,226.4 	"/>
	<polygon class="st0" points="200.2,230.6 196.6,236.8 189.6,235.1 194.3,240.6 190.5,246.7 197.2,243.8 201.8,249.3 201.2,242.2 
		207.8,239.4 200.8,237.8 	"/>
	<polygon class="st0" points="187.7,264.9 193.3,269.5 191.3,262.5 197.3,258.6 190.1,258.4 188.2,251.4 185.8,258.2 178.6,257.8 
		184.3,262.2 181.7,269 	"/>
	<polygon class="st0" points="182.3,287.5 188.6,290.9 185.4,284.4 190.6,279.5 183.5,280.5 180.4,274 179.2,281.2 172.1,282.1 
		178.5,285.4 177.2,292.5 	"/>
	<polygon class="st0" points="176.9,316.5 181.1,310.5 187.9,312.7 183.6,307 187.7,301.1 181,303.5 176.7,297.7 176.9,304.9 
		170,307.2 176.9,309.3 	"/>
	<polygon class="st0" points="179.9,333 181.3,340.1 184.2,333.5 191.3,334.4 186,329.5 189,323 182.8,326.6 177.5,321.7 
		179.1,328.7 172.7,332.2 	"/>
	<polygon class="st0" points="187.2,355.7 189.9,362.5 191.6,355.4 198.7,355 192.6,351.2 194.3,344.2 188.9,348.9 182.8,345.1 
		185.6,351.7 180,356.4 	"/>
	<polygon class="st0" points="227.6,430 234.2,439.2 236.8,439.2 236.8,424.4 233.7,424.4 233.7,433.6 227.2,424.4 224.6,424.4 
		224.6,439.2 227.6,439.2 	"/>
	<polygon class="st0" points="243.9,317.6 227.2,344.6 228.6,344.3 241.2,326.1 244.6,324 253.1,308.2 252,308.2 	"/>
	<polygon class="st0" points="319.1,177.6 317.6,170.5 314.8,177.2 307.6,176.5 313.1,181.2 310.2,187.8 316.3,184.1 321.7,188.9 
		320,181.9 326.3,178.2 	"/>
	<polygon class="st0" points="342.5,182.5 342.3,175.2 338.3,181.3 331.4,179.2 335.9,184.9 331.8,190.8 338.5,188.3 343,194 
		342.6,186.8 349.4,184.3 	"/>
	<polygon class="st0" points="359.6,196.5 362.9,202.9 363.9,195.8 371,194.7 364.5,191.6 365.7,184.4 360.7,189.6 354.3,186.2 
		357.6,192.7 352.5,197.7 	"/>
	<polygon class="st0" points="381.1,202 375.4,197.5 377.5,204.4 371.6,208.5 378.8,208.6 380.8,215.5 383.1,208.7 390.3,208.9 
		384.5,204.6 387,197.8 	"/>
	<polygon class="st0" points="395.4,223.9 396.1,231.1 399.6,224.8 406.7,226.4 401.8,221.1 405.5,214.8 398.9,217.8 394.2,212.4 
		394.9,219.6 388.4,222.4 	"/>
	<polygon class="st0" points="409.2,237.8 402.2,239.4 408.8,242.2 408.2,249.3 412.8,243.8 419.5,246.7 415.7,240.6 420.4,235.1 
		413.4,236.8 409.8,230.6 	"/>
	<polygon class="st0" points="422.3,264.9 428.3,269 425.7,262.2 431.4,257.8 424.2,258.2 421.8,251.4 419.8,258.4 412.7,258.6 
		418.7,262.5 416.7,269.5 	"/>
	<polygon class="st0" points="430.7,281.2 429.6,274 426.5,280.5 419.4,279.5 424.6,284.4 421.4,290.9 427.7,287.5 432.8,292.5 
		431.5,285.4 437.9,282.1 	"/>
	<polygon class="st0" points="433.1,304.9 433.3,297.7 429,303.5 422.3,301.1 426.4,307 422.1,312.7 428.9,310.5 433,316.5 
		433.1,309.3 440,307.2 	"/>
	<polygon class="st0" points="430.9,328.7 432.5,321.7 427.2,326.6 421,323 424,329.5 418.7,334.4 425.8,333.5 428.7,340.1 
		430.1,333 437.3,332.2 	"/>
	<polygon class="st0" points="421.1,348.9 415.7,344.2 417.4,351.2 411.3,355 418.4,355.4 420.1,362.5 422.8,355.7 430,356.4 
		424.4,351.7 427.2,345.1 	"/>
	<polygon class="st0" points="283.7,178.2 290,181.9 288.3,188.9 293.7,184.1 299.8,187.8 296.9,181.2 302.4,176.5 295.2,177.2 
		292.4,170.5 290.9,177.6 	"/>
	<polygon class="st0" points="267.4,186.8 267,194 271.4,188.3 278.2,190.8 274.1,184.9 278.6,179.2 271.7,181.3 267.7,175.2 
		267.5,182.5 260.6,184.3 	"/>
	<polygon class="st0" points="246.1,195.8 247.1,202.9 250.4,196.5 257.5,197.7 252.4,192.7 255.7,186.2 249.3,189.6 244.3,184.4 
		245.5,191.6 239,194.7 	"/>
	<g>
		<path class="st0" d="M341.2,407.3c-1.4,1.9-2.5,2.5-3.5,2.5c-1.4,0-1.8-1.2-1.6-2.9c0.3-3,2.7-9.9,6.2-14.7
			c1.6-2.2,2.6-3.1,3.8-3.1c1.1,0,1.5,1,1.5,2.2C347.5,394.6,344.6,402.6,341.2,407.3 M280.9,408.1c-0.9,0-1.5-0.3-1.5-1.4
			c0-3,2.5-8.3,5.6-12.5c2.1-2.9,5-5.1,8-5.1l-3.8,8.6h0C286.3,404.2,283.3,408.1,280.9,408.1 M243.4,408.1c-0.9,0-1.4-0.3-1.5-1.4
			c0-3,2.5-8.3,5.6-12.5c2.1-2.9,5-5.1,8-5.1l-3.8,8.6C248.8,404.1,245.7,408.1,243.4,408.1 M407.2,395.9c1.3-3,2.6-5.9,2.9-6.5h4
			l0.8-1.8h-3.9l3.7-8.5h-6l-1.4,3.2l-2.3,5.3H402l-0.8,1.8h2.9l-3.5,7.8c-2.5,5.5-6.4,10.9-8.7,10.9c-0.5,0-0.8-0.2-0.8-0.7
			c0-0.5,0.1-1,0.7-2.3c0.7-1.7,1.9-4.1,2.7-5.8c1.2-2.5,3.3-6.5,3.3-8.5c0-2-1.3-3.5-3.7-3.5c-2.8,0-5.3,1.7-7.6,4.1l1.5-3.6h-5.7
			l-4.6,10.5c-1.8,3.7-5.6,9.9-8,9.9c-0.5,0-0.7-0.3-0.7-0.8c0-0.3,0.1-0.8,0.3-1.3c0.2-0.5,3-6.9,3-6.9l5-11.5h-6.1l-4.9,11.2
			c-1.5,3.5-5.3,9.3-7.8,9.3c-0.5,0-0.8-0.3-0.8-0.9c0-0.6,0.5-1.7,0.8-2.5l2.5-5.6h0l5.3-11.5h-6.1l-1.2,2.6v0
			c-0.9,1.7-2.4,3.8-4.8,3.8c-1.2,0-1.7-0.5-2-0.9c-0.4-3.9-2.8-6-6.4-6c-5,0-8.6,3-11,6.6c-1.6,2.4-2.6,5-3.6,8
			c-2.2,3.6-4.4,6.3-6.2,6.3c-0.5,0-0.7-0.3-0.7-0.9c0-0.7,0.6-2,0.8-2.5l4-8.4c1.1-2.6,1.9-4.3,1.9-6c0-1.8-1.3-3.1-3.3-3.1
			c-2.9,0-6,1.6-8.4,4.4c0.1-0.4,0.1-0.8,0.1-1.3c0-2-1-3.1-3.1-3.1c-2.6,0-5.3,1.5-7.8,4.4l1.6-4h-5.6l-4.7,10.5
			c-2.2,5-5.8,9.9-7.8,9.9c-0.5,0-0.7-0.2-0.7-0.9c0-1,1-3.3,1.5-4.3l6.2-14.1c0.5-1-2.5-1.7-6.3-1.7c-3.9,0-7.8,1.9-10.7,4.4
			c-2,1.7-3.6,2.5-4.3,2.5c-0.4,0-0.6-0.2-0.6-0.4c0-0.9,2.1-3.3,2.1-5.1c0-0.8-0.4-1.4-1.6-1.4c-2.2,0-4.8,2.1-6.7,4.3l1.6-3.9
			h-5.4l-4.6,10.5c-2.2,5-5.9,10.2-7.9,10.2c-0.5,0-0.7-0.2-0.7-0.9c0-0.9,1-3.3,1.6-4.5l6.2-14.1c0.5-1-2.5-1.7-6.3-1.7
			c-5.6,0-11,3.8-13.9,7.6c-3.2,4.2-5.3,8.6-5.4,12.2c0,2.9,1.5,4.7,4.5,4.7c3.4,0,6.1-2.7,7.7-4.7c0,0.2-0.2,0.9-0.2,1.2
			c0,2,0.8,3.5,3.2,3.5c2.2,0,5-1.8,7.4-4.7l-1.9,4.3h5.9l5.8-13.1c1.9-4.3,4.1-6.5,4.7-6.5c0.2,0,0.3,0.1,0.3,0.2
			c0,0.5-0.9,1.7-0.9,2.8c0,1.2,0.6,1.9,2.2,1.9c1.3,0,2.7-0.6,3.9-1.4c-3,4-4.9,8.3-5,11.7c0,2.9,1.5,4.7,4.5,4.7
			c3.2,0,6.1-3,7.7-5c-0.1,0.3-0.1,1-0.1,1.4c0,2,1.1,3.6,3.4,3.6c2.5,0,4.5-1.6,7-4.6l-1.9,4.2h6l5.5-12.5c2.4-5.5,5.7-8.3,7.3-8.3
			c0.5,0,0.8,0.3,0.8,0.8c0,0.3-0.2,1-0.5,1.8l-8.1,18.3l6.2,0l5.6-12.8c2.4-5.5,5.1-8.2,7.1-8.2c0.6,0,0.9,0.3,0.9,1
			c0,0.4-0.1,1-0.6,2l-5.4,11.6c-0.4,1-0.9,2.4-0.9,3.5c0,1.7,1,3.3,3.6,3.3c3.5,0,6.2-2.7,9.2-6.7l0,0.9c0.2,3.2,2,5.9,6.7,5.9
			c5.5,0,10-3.9,12.7-9.9c1.2-2.7,1.8-5,2-6.8c0.5,0.3,1.2,0.4,2,0.4c0.8,0,1.7-0.2,2.6-0.6l-1,2.1c-1.1,2.3-2.3,4.9-3.2,7
			c-0.7,1.6-1.1,3.1-1.1,4.1c0,2.2,1.2,3.7,3.6,3.7c2.5,0,5.8-2.3,8.2-5.6h0.1c-0.1,0.6-0.3,1.6-0.3,2c0,1.8,0.5,3.5,3.1,3.5
			c2.9,0,5.2-2.1,7.4-4.8l-1.9,4.2h6.1l4.9-11.1c2.7-6.2,5.5-10,8.1-10c0.6,0,0.8,0.4,0.8,0.9c0,1-1.5,3.9-2.9,6.8
			c-1.3,2.6-2.2,4.6-2.9,6.2c-0.6,1.4-1.1,3.1-1.1,4.2c0,1.9,1.1,3.4,3.4,3.4c3.5,0,7.1-3.4,9-6c-0.4,1.2-0.7,2.7-0.7,3.8
			c0,3.5,2.1,5.3,5.1,5.3c2.1,0,3.9-0.7,5.5-1.8c2.3-1.6,4.2-4,5.7-6.3l-1-1c-1.5,2.1-3.1,4-4.7,5.3c-1,0.8-2.1,1.2-3.1,1.2
			c-1.3,0-2.1-0.6-2.1-2.3c0-1.6,0.7-3.8,1.9-6.7C404,403.1,405.6,399.5,407.2,395.9"/>
		<path class="st0" d="M193.4,422.2c0.8,0.1,1.6,0.1,2.5,0.1c17.1,0,27.6-13,32.1-28.7c2.1-0.2,5.4-0.9,6.7-1.4
			c7.9-2.2,16.9-7.5,16.9-17c0-10.9-11.5-16.1-25.2-16.1c-14.6,0-28,6.5-33,16.6c-1.3,2.7-2,5.6-2,8.7c0,2.8,0.7,5.3,2,7.4
			c2.1,3.1,5.9,5.1,11.4,5.1c6.8,0,12.2-3.7,12.2-10.2c0,0,0.1-1.8-2-1.8c-1.7,0-2.2,1.2-2.1,1.8c0.2,5.1-2.7,9.2-8.1,9.2
			c-6,0-8.5-5.1-8.5-10.6c0-11.2,8.4-18.7,17.2-21.9c4.5-1.6,8.1-2.2,12.8-2.2c9.9,0,18.1,3.8,18.1,14.1c0,8.6-7.2,15.9-15.8,16.5
			l0.3-1.2c1.8-6.3,3.9-13.2,7.4-18.3c0.2-0.3,0.6-0.8,1-1.3l-0.5-0.6c-0.6,0.4-1.7,1.2-2.2,1.5c-16.5,12.9-17,49.1-38.9,49.1
			c-0.8,0-1.5-0.1-2.2-0.2c-4.6-0.7-7-3.8-7-8.1c0-0.8,0.3-2,0.3-2.7c0-1.1-0.8-2.3-2.4-2.3c-2,0-2.8,1.5-2.8,3.8
			C181.4,417.8,186.2,421.5,193.4,422.2"/>
		<polygon class="st0" points="258.7,436.5 252.2,436.5 252.2,432.9 257.8,432.9 257.8,430.3 252.2,430.3 252.2,427.1 258.7,427.1 
			258.7,424.4 249.2,424.4 249.2,439.2 258.7,439.2 		"/>
		<polygon class="st0" points="278,439.2 278,427.1 282.9,427.1 282.9,424.4 269.9,424.4 269.9,427.1 274.9,427.1 274.9,439.2 		"/>
		<polygon class="st0" points="303.5,429.8 306.6,439.2 309.2,439.2 314.4,424.4 311,424.4 307.9,434 304.7,424.4 302.2,424.4 
			299,434 295.9,424.4 292.5,424.4 297.7,439.2 300.3,439.2 		"/>
		<path class="st0" d="M327.5,428.2c0.8-0.9,2-1.3,3.3-1.3c1.4,0,2.5,0.4,3.3,1.3c0.9,0.9,1.3,2.1,1.3,3.6c0,1.5-0.4,2.7-1.3,3.6
			c-0.8,0.9-1.9,1.3-3.3,1.3c-1.4,0-2.5-0.4-3.3-1.3c-0.9-0.9-1.3-2.1-1.3-3.6C326.2,430.3,326.6,429.1,327.5,428.2 M330.8,439.5
			c2.2,0,4.1-0.7,5.5-2.1c1.5-1.4,2.2-3.3,2.2-5.6c0-2.3-0.7-4.1-2.2-5.5c-1.4-1.4-3.3-2.1-5.5-2.1c-2.3,0-4.1,0.7-5.6,2.1
			c-1.4,1.4-2.2,3.2-2.2,5.5c0,2.3,0.7,4.2,2.2,5.6C326.7,438.8,328.5,439.5,330.8,439.5"/>
		<path class="st0" d="M352.7,427.1h2.9c1.2,0,2,0.7,2,2.1c0,1.3-0.8,2-2,2h-2.9V427.1z M352.7,433.9h2.5l2.9,5.4h3.5l-3.2-5.8
			c1.5-0.7,2.4-2.2,2.4-4.3c0-1.5-0.4-2.7-1.3-3.5c-0.9-0.9-2-1.3-3.5-1.3h-6.4v14.9h3.1L352.7,433.9L352.7,433.9z"/>
		<polygon class="st0" points="373,424.4 373,439.2 376,439.2 376,435.1 377.9,432.9 382,439.2 385.6,439.2 379.9,430.4 385,424.4 
			381.1,424.4 376,430.5 376,424.4 		"/>
		<path class="st0" d="M198.8,304.5c0,16.2,3.6,31.6,10.1,45.3l40.1-46.4l4-1.9l15.3-21.4l7.4-6.7l10.3-16.1l4.8-4l10.4-14.8l6.7-5
			l11.5,8.2l5.6,10.8c0,0,4.8,13.9,7.9,23.2c1,1.7,8.2,14.1,8.2,14.1l17.6,7.9l16.4,33.3l4.3,13l6.1,5.2l7.8,14.4
			c11.2-16.9,17.8-37.2,17.8-59c0-58.8-47.5-106.4-106.2-106.4S198.8,245.7,198.8,304.5"/>
		<polygon class="st0" points="250.6,345.1 257.9,336.4 264.5,325.4 267.8,323.7 275.2,309.4 276.1,300.6 280.3,290.6 279.3,290.7 
			274.1,297.6 271.4,299.7 260.6,316.4 261.7,318.4 249.7,345.1 		"/>
		<polygon class="st0" points="265.8,352 264.3,357.7 265.8,358.4 272.7,350.4 275.2,339.1 278.3,330.8 277.1,329.5 266.7,348.4 		
			"/>
		<path class="st0" d="M302.1,368.7h14.9l-2.2-6.9l23.8,8.8h25.7l-6.4-11.7l-3.3-12l14,17.9h17.1l-5.1-10.6l-7.4-7.2l-19-42.6
			l-9-2.9l-2.3,2.9l-1.6,0.2l-3.1-9.1l-11.3-18.9l-8.4-25.3l-8.7-8.8c0,0,0.3,25,0.3,25.7c0,0.5-6.7,20-6.7,20l9.1,6l-15.8,42.5
			l3.1,2l-8.2,18.8L302.1,368.7z"/>
	</g>
</g>
</svg>
