<?xml version="1.0" encoding="utf-8"?>
<!-- Generator: Adobe Illustrator 25.2.1, SVG Export Plug-In . SVG Version: 6.00 Build 0)  -->
<svg version="1.1" id="Layer_1" xmlns="http://www.w3.org/2000/svg" xmlns:xlink="http://www.w3.org/1999/xlink" x="0px" y="0px"
	 viewBox="0 0 610 610" style="enable-background:new 0 0 610 610;" xml:space="preserve">
<style type="text/css">
	.st0{fill:#FFFFFF;}
</style>
<g>
	<path class="st0" d="M342.7,231.5h-36.2l-9.2,27.9h45.5c2.1,0,3.9-1.7,3.9-3.8v-20.2C346.6,233.2,344.8,231.5,342.7,231.5"/>
	<path class="st0" d="M285.6,328.3c0-2.2-1.7-3.9-3.9-3.9h-23.2c-2.1,0-3.9,1.7-3.9,3.9c0,27,21.3,49,48,50.3v-31.1
		C293.1,346.3,285.6,338.1,285.6,328.3"/>
	<path class="st0" d="M301.7,231.5h-27.6c-1.7,0-3.2,1.1-3.7,2.7l-12.9,39.3h30.4L301.7,231.5z"/>
	<path class="st0" d="M275,305.9h30c16,0,30,8.5,37.8,21.3c0,0,7.3,11.1,6.3,25.4c0,0,6.3-10,6.3-24.3c0-27.8-22.5-50.3-50.3-50.3
		h-47.9l11.8,24.1C268.8,302,270.5,305.9,275,305.9"/>
	<path class="st0" d="M342.8,338.4c5.1,18-7,29.1-7,29.1s-9.3,9.9-28.5,11v-31.1c9.6-1.1,17-9.3,17-19.1c0-7.1-3.8-13.2-9.4-16.6
		C314.8,311.7,335.7,316,342.8,338.4"/>
</g>
</svg>
