<?xml version="1.0" encoding="utf-8"?>
<!-- Generator: Adobe Illustrator 25.2.1, SVG Export Plug-In . SVG Version: 6.00 Build 0)  -->
<svg version="1.1" id="Layer_1" xmlns="http://www.w3.org/2000/svg" xmlns:xlink="http://www.w3.org/1999/xlink" x="0px" y="0px"
	 viewBox="0 0 610 610" style="enable-background:new 0 0 610 610;" xml:space="preserve">
<style type="text/css">
	.st0{fill:#FFFFFF;}
</style>
<path class="st0" d="M417.8,253.1l-104.7-41.5c-4.7-1.8-11.7-1.8-16.4,0l-104.7,41.5c-5.1,2-9.2,8-9.2,13.5v76.5
	c0,5.5,4,11.5,9.2,13.5l104.7,41.8c2.4,0.9,5.3,1.4,8.3,1.4c2.9,0,5.8-0.5,8.1-1.4l104.6-40.9c5.2-2,9.2-7.9,9.2-13.5v-77.5
	C427,261.1,423,255.2,417.8,253.1 M263.5,270.8v5.1v10.2v4.9v0.5c0,0.5-0.4,1-1,1h-0.4l0,0h-10.6h-0.4c-0.5,0-1-0.4-1-1v-0.9
	c0-9.8-3.2-13.3-9.7-13.3c-6.4,0-9.9,3.4-9.9,10.8v31c0,4.1,0.9,13.5,9.2,13.5c7.1,0,10.3-4.5,10.4-14.7v-0.2v0v0
	c0-0.4,0.4-0.7,0.7-0.7h0.3h11h0.5c0.4,0,0.7,0.3,0.7,0.7v0v0v0v0.3c0,0,0,0,0,0.1c-0.2,10.5-6.5,22.5-24,22.5
	c-19.1,0-25.9-14.4-25.9-26.7v-20.6c0-11.7,9.9-24.3,24.6-24.3c3.5,0,6.9,0.8,9.7,2c1.3,0.6,4.1,1.7,4.9,1.7c0.2,0,0.4,0,0.5,0
	c0.1,0,0.2,0,0.2,0c0.4-0.1,0.7-0.5,0.7-0.9v-1.4c0-0.5,0.4-1,1-1h7.1h0.2c0.6,0,1,0.4,1,1L263.5,270.8L263.5,270.8z M341.6,271.1
	v4.5v0.7c0,0.4-0.3,0.8-0.7,0.9l0,0l-1.8,0.5c-1.3,0.3-3.2,0.9-3.2,7.6v39.3c0,6.8,1.9,7.3,3.2,7.6l1.9,0.5c0.4,0.1,0.7,0.5,0.7,0.9
	v0.5v4.4v0.6c0,0.5-0.4,1-1,1h-0.4h-4h-15.8h-4.1h-0.3c-0.5,0-1-0.4-1-1v-0.4v-5v-0.1c0-0.5,0.3-0.8,0.8-1c0,0,1-0.1,2.4-0.5
	c1.3-0.3,3.2-0.9,3.2-7.6V289l-17.2,50.3l0,0c-0.1,0.4-0.5,0.6-0.9,0.6h-2.5c-0.4,0-0.8-0.3-0.9-0.6l0,0L283,289v35.5
	c0,6.7,1.9,7.3,3.2,7.6c1.2,0.3,2.3,0.5,2.3,0.5c0.4,0.1,0.8,0.5,0.8,1v5.4c0,0.5-0.4,1-1,1H288h-4h-10.3h-4.2h-0.1
	c-0.5,0-1-0.4-1-1V339v-5.3v-0.1c0-0.5,0.3-0.8,0.7-0.9l1.8-0.5c1.3-0.3,3.2-0.9,3.2-7.6v-39.3c0-6.7-1.9-7.3-3.2-7.6l-1.9-0.5l0,0
	c-0.4-0.1-0.7-0.5-0.7-0.9V276v-5.1v-0.1c0-0.5,0.4-1,1-1h0h4.3h15.4h4.2h0.1c0.4,0,0.8,0.3,0.9,0.7l0,0l11.6,34.8l11.1-34.7l0,0
	c0.1-0.4,0.5-0.7,0.9-0.7h0.1h4.2h14h4h0.4c0.5,0,1,0.4,1,1L341.6,271.1L341.6,271.1z M396.5,271.9v1.1v16.2v1.9v0.4
	c0,0.5-0.4,1-1,1h-6.3c-0.5,0-1-0.4-1-1v-0.1v-0.5c0-5.9-1.6-12.2-6-12.2c-2.8,0-4.1,3.1-4.1,9.4v36.6c0,6.8,1.9,7.3,3.2,7.6
	l1.8,0.5v0c0.4,0.1,0.8,0.5,0.8,0.9v5.5c0,0.5-0.4,1-1,1h-0.8h-3.6h-15.1h-3.6H359c-0.5,0-1-0.4-1-1v-0.8v-4.1v0v-0.6
	c0-0.5,0.3-0.8,0.7-0.9l0,0l1.8-0.5c1.3-0.3,3.2-0.8,3.2-7.6V288c0-6.3-1.3-9.4-4.1-9.4c-4.3,0-5.9,6.1-6,11.9v0.8c0,0.5-0.5,1-1,1
	h-6.3c-0.5,0-1-0.4-1-1v-0.3v-2V273v-1.3v-1c0-0.5,0.4-1,1-1h0.6h5.7h36.6h5.5h0.8c0.5,0,1,0.4,1,1L396.5,271.9L396.5,271.9z"/>
</svg>
