<?xml version="1.0" encoding="utf-8"?>
<!-- Generator: Adobe Illustrator 25.2.1, SVG Export Plug-In . SVG Version: 6.00 Build 0)  -->
<svg version="1.1" id="Layer_1" xmlns="http://www.w3.org/2000/svg" xmlns:xlink="http://www.w3.org/1999/xlink" x="0px" y="0px"
	 viewBox="0 0 610 610" style="enable-background:new 0 0 610 610;" xml:space="preserve">
<style type="text/css">
	.st0{fill:#FFFFFF;}
</style>
<g>
	<path class="st0" d="M196.7,330.6c8.3,0,13.7,3.3,16.4,5.3c1.7,1,1.8,2.7,0.6,4.4l-1,1.5c-1.2,1.8-2.6,1.9-4.4,0.8
		c-2.1-1.5-5.9-3.7-11.1-3.7c-10,0-17.2,7.4-17.2,17.6c0,10.1,7.2,17.8,17.4,17.8c6,0,10.3-2.7,12.6-4.5c1.8-1.2,3.3-1,4.4,0.9
		l0.8,1.5c1,1.7,0.7,3.2-0.9,4.3c-2.7,2.3-8.7,6.1-17.6,6.1c-15.6,0-26.4-11.1-26.4-26C170.3,341.9,181.2,330.6,196.7,330.6"/>
	<path class="st0" d="M248.3,330.6c14.8,0,26.7,10.9,26.7,25.9c0,15.1-12,26-26.7,26c-14.8,0-26.6-11-26.6-26
		C221.7,341.5,233.5,330.6,248.3,330.6 M248.3,374.3c9.4,0,17-7.4,17-17.8c0-10.3-7.6-17.6-17-17.6c-9.3,0-17.1,7.3-17.1,17.6
		C231.3,366.9,239,374.3,248.3,374.3"/>
	<path class="st0" d="M285.5,315.5c0-2.2,1.1-3.3,3.2-3.3h3c2.1,0,3.2,1.1,3.2,3.3v51.2c0,5.6,2.5,6.4,4.5,6.6
		c1.5,0.2,2.6,1,2.6,2.8v2.4c0,2-0.9,3.3-3.3,3.3c-5.3,0-13.2-1.5-13.2-13.9V315.5z"/>
	<path class="st0" d="M334.3,330.6c14.8,0,26.7,10.9,26.7,25.9c0,15.1-11.9,26-26.7,26c-14.8,0-26.6-11-26.6-26
		C307.6,341.5,319.5,330.6,334.3,330.6 M334.3,374.3c9.4,0,17.1-7.4,17.1-17.8c0-10.3-7.6-17.6-17.1-17.6c-9.3,0-17,7.3-17,17.6
		C317.3,366.9,325,374.3,334.3,374.3"/>
	<path class="st0" d="M371.5,335c0-2.2,1.1-3.2,3.2-3.2h2.7c2.2,0,3.2,1,3.2,3.2v5.7c0,2.1-0.3,3.7-0.3,3.7h0.2
		c2.2-6.6,7.7-13,15.2-13c2.3,0,3.1,1.1,3.1,3.2v2.7c0,2.1-1.3,3.2-3.5,3.2c-9.7,0-14.4,10.5-14.4,20.3v17.2c0,2.1-1.1,3.2-3.2,3.2
		h-3c-2.1,0-3.2-1.1-3.2-3.2V335z"/>
	<path class="st0" d="M403.4,372.7l1-1.4c1.3-1.7,2.5-1.7,4.5-0.7c2.3,1.5,6.4,4,12.1,4c4.9,0,8.4-2.4,8.4-6.6
		c0-9.7-25.5-6.5-25.5-23.2c0-9.4,8.2-14.3,17.9-14.3c6.9,0,11.4,2.4,13.7,3.8c1.8,0.9,2.1,2.6,1.1,4.3l-0.9,1.5
		c-1,1.7-2.4,2-4.3,1.1c-2.1-1.2-5.4-2.8-10.1-2.8c-4.7,0-8.3,2.1-8.3,6.3c0,9.9,25.6,6.4,25.6,23.2c0,8.4-7.2,14.6-17.8,14.6
		c-8.2,0-13.9-3.3-16.6-5.4C402.5,376.1,402.4,374.4,403.4,372.7"/>
	<path class="st0" d="M391.5,233.6c-6.1,2.3-12,5.6-17,10.4c-8.6,8.3-14.8,21.1-15.7,40.8c-0.3,6.8-0.1,14.3,1,22.8
		c7.9,0.9,15,1.3,21.4,1c20.5-0.7,33.7-7,42.2-15.8c5.2-5.4,8.6-11.8,10.9-18.4c6.6-19.3,3.4-40.8,5.6-47
		C433.4,229.7,411.1,226.3,391.5,233.6"/>
</g>
</svg>
