<?xml version="1.0" encoding="utf-8"?>
<!-- Generator: Adobe Illustrator 25.2.1, SVG Export Plug-In . SVG Version: 6.00 Build 0)  -->
<svg version="1.1" id="Layer_1" xmlns="http://www.w3.org/2000/svg" xmlns:xlink="http://www.w3.org/1999/xlink" x="0px" y="0px"
	 viewBox="0 0 610 610" style="enable-background:new 0 0 610 610;" xml:space="preserve">
<style type="text/css">
	.st0{fill:#FFFFFF;}
</style>
<g>
	<path class="st0" d="M179.6,243.3c-23.1,0-43.2,12.7-53.8,31.5l13,7.3c8-14.3,23.3-23.9,40.9-23.9c25.9,0,46.9,21,46.9,46.9
		c0,25.9-21,46.9-46.9,46.9c-17.5,0-32.8-9.6-40.9-23.9l-12.9,7.3c10.6,18.8,30.7,31.4,53.8,31.4c34.1,0,61.8-27.6,61.8-61.7
		C241.3,270.9,213.7,243.3,179.6,243.3"/>
	<path class="st0" d="M194,313.2c-2.8,5-8.2,8.4-14.5,8.4c-9.1,0-16.6-7.4-16.6-16.6c0-9.2,7.4-16.6,16.6-16.6
		c6.2,0,11.6,3.4,14.5,8.5l12.9-7.3c-5.4-9.6-15.6-16.1-27.4-16.1c-17.3,0-31.4,14.1-31.4,31.4c0,17.4,14.1,31.4,31.4,31.4
		c11.7,0,22-6.5,27.4-16L194,313.2z"/>
	<path class="st0" d="M447.7,357.7l-1.5-6.2h-12.8l-1.5,6.2h-9.8l13.7-47.9h7.7l13.9,47.9H447.7z M438.7,329.3l-3.4,14.1h8.9
		l-3.4-14.1c-0.2-0.9-0.4-2.1-0.7-3.4c-0.2-1.3-0.4-2.3-0.4-3c0,0.7-0.2,1.7-0.3,2.9C439.2,327.1,439,328.2,438.7,329.3"/>
	<path class="st0" d="M266.4,262.6c-1.5,1.8-2.4,4.9-2.4,11.1v5.3c0,6.1,0.9,9.2,2.4,10.9c1.2,1.4,2.8,2,4.7,2
		c2.8,0,5.1-1.1,6.8-4.7l8.4,3.6c-2.8,6.8-8.2,10-15.2,10c-4.3,0-7.6-1.2-10.2-3.3c-4.3-3.4-6.5-9.4-6.5-18.5v-5.8
		c0-8.9,2.2-14.7,6.5-18.2c2.6-2,5.9-3.4,10.2-3.4c6.9,0,12.4,3.1,15.2,10.3l-8.4,3.6c-1.5-3.9-4.2-5-6.8-5
		C269.1,260.6,267.6,261.3,266.4,262.6"/>
	<path class="st0" d="M297,297.6c-4.3-3.4-6.5-9.4-6.5-18.5v-5.8c0-8.9,2.2-14.7,6.5-18.2c2.6-2,5.9-3.3,10.2-3.4
		c4.3,0,7.6,1.3,10.2,3.4c4.3,3.4,6.5,9.3,6.5,18.2v6.1c0,8.9-2.2,14.9-6.5,18.2c-2.6,2.1-5.9,3.3-10.2,3.3
		C302.9,300.9,299.6,299.7,297,297.6 M302.5,262.6c-1.5,1.8-2.4,4.9-2.4,11.1v5.4c0,6,0.9,9.2,2.4,10.9c1.2,1.4,2.8,2,4.7,2
		c1.9,0,3.5-0.6,4.7-2c1.5-1.7,2.4-4.9,2.4-10.9v-5.4c0-6.1-0.9-9.3-2.4-11.1c-1.2-1.3-2.7-2-4.7-2
		C305.2,260.6,303.7,261.3,302.5,262.6"/>
	<polygon class="st0" points="348.1,300.2 340.9,274 337.9,300.2 329,300.2 334.6,252.3 343.6,252.3 351.8,282.6 360.1,252.3 
		369,252.3 374.6,300.2 365.8,300.2 362.8,274 355.6,300.2 	"/>
	<polygon class="st0" points="382,252.3 407.5,252.3 407.5,261.3 391.6,261.3 391.6,271.4 405.4,271.4 405.4,280.4 391.6,280.4 
		391.6,291.3 407.5,291.3 407.5,300.2 382,300.2 	"/>
	<path class="st0" d="M415.5,252.3h15.3c5.1,0,9.2,2,12.1,5.4c2.9,3.4,4.5,8.1,4.5,13.7v8.5c0,6.1-1.6,11.1-4.5,14.7
		c-2.9,3.5-7,5.6-12.1,5.6h-15.3V252.3z M429.7,291.3c2.7,0,4.7-1,6.1-2.9c1.4-2,2-5,2-9.1v-7.6c0-3.4-0.6-6-2-7.8
		c-1.4-1.8-3.4-2.7-6.1-2.7h-4.7v30L429.7,291.3L429.7,291.3z"/>
	<polygon class="st0" points="460.8,277.2 447.4,252.3 457.7,252.3 465.6,267.5 473.4,252.3 483.8,252.3 470.3,277.2 470.3,300.2 
		460.8,300.2 	"/>
	<path class="st0" d="M266.4,320.1c-1.5,1.8-2.4,4.9-2.4,11v5.4c0,6.1,0.9,9.2,2.4,10.9c1.2,1.4,2.8,2,4.7,2c2.8,0,5.1-1.1,6.8-4.7
		l8.4,3.6c-2.8,6.8-8.2,10-15.2,10c-4.3,0-7.6-1.2-10.2-3.3c-4.3-3.4-6.5-9.4-6.5-18.5v-5.8c0-8.9,2.2-14.7,6.5-18.2
		c2.6-2,5.9-3.4,10.2-3.4c6.9,0,12.4,3.1,15.2,10.3l-8.4,3.7c-1.5-4-4.2-5-6.8-5C269.1,318.1,267.6,318.7,266.4,320.1"/>
	<polygon class="st0" points="291.5,309.8 315.7,309.8 315.7,318.7 301,318.7 301,328.9 313.5,328.9 313.5,337.8 301,337.8 
		301,348.7 315.7,348.7 315.7,357.7 291.5,357.7 	"/>
	<polygon class="st0" points="322.7,309.8 331.1,309.8 344,337.8 344,309.8 352.7,309.8 352.7,357.7 344.3,357.7 331.5,330 
		331.5,357.7 322.7,357.7 	"/>
	<polygon class="st0" points="366.4,318.7 357.5,318.7 357.5,309.8 384.9,309.8 384.9,318.7 376,318.7 376,357.7 366.4,357.7 	"/>
	<path class="st0" d="M399.5,357.7h-9.6v-47.9h15.3c8.4,0,14.7,6.8,14.7,15.8v1.1c0,6.1-2.8,11.1-7.2,13.8l7,17.2H410l-6.2-15.2
		h-4.4L399.5,357.7L399.5,357.7z M404.1,333.5c3.6,0,6.2-2.2,6.2-7.5v-0.1c0-4.8-2.6-7.2-6.2-7.2h-4.6v14.8L404.1,333.5L404.1,333.5
		z"/>
	<polygon class="st0" points="460.8,309.8 470.3,309.8 470.3,348.7 484.2,348.7 484.2,357.7 460.8,357.7 	"/>
</g>
</svg>
