<?xml version="1.0" encoding="utf-8"?>
<!-- Generator: Adobe Illustrator 25.2.1, SVG Export Plug-In . SVG Version: 6.00 Build 0)  -->
<svg version="1.1" id="Layer_1" xmlns="http://www.w3.org/2000/svg" xmlns:xlink="http://www.w3.org/1999/xlink" x="0px" y="0px"
	 viewBox="0 0 610 610" style="enable-background:new 0 0 610 610;" xml:space="preserve">
<style type="text/css">
	.st0{fill:#FFFFFF;}
</style>
<path class="st0" d="M362.4,289c-9.1,5.9-11,7.4-14.3,9.7v77.7h45.4v-40.9c-2.2,6.7-4.5,14.7-5.9,20.1c-2.2,8.2-4.1,10.3-9.5,10.3
	c-4.2,0-7-1.5-8.9-7c-1.1-3-8.5-23.8-9.9-27.7c-3.5-10-5.6-17.6-5.6-22c0-7.7,5.1-10.6,9.9-10.6c6.5,0,7.7,6.6,8.5,12.8
	c0.5,3.2,1.5,12,1.9,16.7c0.2,2.2,0.4,4.6,2.7,4.6c2.1,0,2.8-3.2,4.4-7.5c3.9-10.8,9.3-21.4,12.5-27.1v-64.3h-68l-29.4,33l-29.1-33
	h-69.7v142.7h72.6v-45.2l26.2,23.6l25.4-22.9v44.5h11.1c-0.1-2.3,0-31.9,0-56.4c0-7.3-1.4-9.1-3.6-9.1c-2.5,0-6.7,3.6-11.3,7.1
	c-7.3,5.6-11.3,10-16,10c-2.8,0-4.4-1.3-6.2-3.8c-0.3-0.5-1.3-2.5-1.3-4.1c0-1.8,0.7-3.9,3.3-5.6c2.8-1.8,5.9-1.4,12.6-5.7
	c7.9-5.1,15.3-9.6,16.8-10.7c2.7-1.5,2.1-3.9,2.1-6c0-4.8,3.9-6.4,7.4-6.4c3.2,0,5.3,1.3,5.8,1.5c1.2-0.7,4.4-2.7,10.3-6.5
	c3.9-2.6,6-7.5,10.7-7.5c1.9,0,3.6,0.4,5.3,1.8c2.3,2,2.7,3.1,2.7,4.9C371,283.8,365.4,287,362.4,289 M401.6,234.4V285
	c3.2-4.7,8.5-11.5,11.1-14.5v-29L401.6,234.4z M401.6,376.3h11.1v-79.2c-2.9,4.1-8.1,12.8-11.1,19V376.3z M302.9,246.6l-1.8-2
	L278,233.7l18.2,20.4L302.9,246.6z M311.2,359.9l2.3-2.1v-7.5l-10.7,9.6H311.2z M278,349.6l10,9v17.8h-10V349.6z"/>
</svg>
