<?xml version="1.0" encoding="utf-8"?>
<!-- Generator: Adobe Illustrator 25.2.1, SVG Export Plug-In . SVG Version: 6.00 Build 0)  -->
<svg version="1.1" id="Layer_1" xmlns="http://www.w3.org/2000/svg" xmlns:xlink="http://www.w3.org/1999/xlink" x="0px" y="0px"
	 viewBox="0 0 610 610" style="enable-background:new 0 0 610 610;" xml:space="preserve">
<style type="text/css">
	.st0{fill:#FFFFFF;}
</style>
<g>
	<path class="st0" d="M305,207c-54.1,0-98,43.9-98,98c0,54.1,43.9,98,98,98c54.2,0,98-43.9,98-98S359.1,207,305,207 M238.7,278.1
		c9.5,0,17.2-7.8,17.3-17.3h28.8c0,25.4-20.6,46.1-46.1,46.1h0L238.7,278.1z M325.3,351.1c-16.9,0-32.5-9.3-40.5-24.2v22.3h-28.8
		V309c12.3-4.4,22.4-13.3,28.3-24.9c7.9-15.4,23.7-25.1,41-25.1c25.5,0,46.1,20.6,46.1,46C371.4,330.4,350.8,351.1,325.3,351.1
		L325.3,351.1z"/>
	<path class="st0" d="M314.7,291.4c7.5-5.9,18.4-4.5,24.2,3c5.9,7.5,4.5,18.4-3,24.2c-7.5,5.9-18.4,4.5-24.3-3
		C305.8,308.1,307.1,297.2,314.7,291.4"/>
</g>
</svg>
