<?xml version="1.0" encoding="utf-8"?>
<!-- Generator: Adobe Illustrator 25.2.1, SVG Export Plug-In . SVG Version: 6.00 Build 0)  -->
<svg version="1.1" id="Layer_1" xmlns="http://www.w3.org/2000/svg" xmlns:xlink="http://www.w3.org/1999/xlink" x="0px" y="0px"
	 viewBox="0 0 610 610" style="enable-background:new 0 0 610 610;" xml:space="preserve">
<style type="text/css">
	.st0{fill:#FFFFFF;}
</style>
<g>
	<path class="st0" d="M74.8,292c-7,0-13.3,2.9-17.9,7.4c-4.6,4.5-7.4,10.9-7.4,17.9v23.2h19.2v-10.1v-12.6c0-2.8,0.7-5.2,1.8-7
		c1.1-1.8,2.6-2.9,4.3-2.9c1.7,0,3.2,1.1,4.3,2.9c1.1,1.8,1.8,4.2,1.8,7v22.7h19.3v-23.2c0-7-2.9-13.4-7.5-17.9
		C88.1,294.8,81.8,292,74.8,292"/>
	<path class="st0" d="M535.2,292c-6.9,0-13.3,2.9-17.8,7.4c-4.6,4.5-7.5,10.9-7.5,17.9v23.2h19.2v-10.1v-12.6c0-2.8,0.7-5.2,1.8-7
		c1.1-1.8,2.6-2.9,4.3-2.9c1.7,0,3.2,1.1,4.3,2.9c1.1,1.8,1.8,4.2,1.8,7v22.7h19.2v-23.2c0-7-2.9-13.4-7.4-17.9
		C548.5,294.8,542.2,292,535.2,292"/>
	<path class="st0" d="M120.8,285.7c2-1.9,3.1-4.6,3.1-7.6c0-3-1.2-5.6-3.1-7.5c-1.9-1.9-4.6-3.1-7.6-3.1c-3,0-5.6,1.2-7.6,3.1
		c-1.9,1.9-3.1,4.6-3.1,7.5c0,3,1.2,5.6,3.1,7.6l2.4,2.4c3.9,3.9,4.2,5,0.5,8.7l-2.1,2.2c-1.8,1.8-2.9,4.2-2.9,6.9v34.6H123v-34.6
		c0-2.7-1.1-5.1-2.8-6.9l-2.2-2.2c-3.7-3.7-3.5-4.8,0.5-8.7L120.8,285.7z"/>
	<path class="st0" d="M155.3,325.3c-1.1,2.1-2.6,3.4-4.3,3.4c-1.8,0-3.2-1.3-4.3-3.4c-1.1-2.1-1.8-4.8-1.8-8c0-3.2,0.7-5.9,1.8-8
		c1.1-2.1,2.6-3.3,4.3-3.4c1.7,0,3.2,1.2,4.3,3.4c0.8,1.6,1.4,3.5,1.6,5.7h19.3c-0.6-6-3.3-11.5-7.3-15.6c-4.6-4.5-11-7.4-17.9-7.4
		c-7,0-13.4,2.9-17.9,7.4c-4.6,4.6-7.5,10.9-7.5,17.9c0,7,2.8,13.4,7.5,17.9c3.5,3.5,9.6,7.4,17.9,7.4c6.2,0,12-2.3,16.4-6
		c3.2-2.7,8-8.2,8.8-16.9h-19.3C156.7,321.9,156.1,323.8,155.3,325.3"/>
	<path class="st0" d="M244.4,312.8c0.3-1.5,0.8-2.8,1.2-3.8c0.9-1.8,2.6-3.3,4.3-3.3c1.7,0,3.1,1.2,4.4,3.4c0.5,0.9,1,2.6,1.2,3.6
		L244.4,312.8z M250,291.9c-7,0-13.3,2.8-17.9,7.4c-4.6,4.6-7.4,10.9-7.4,17.9c0,7,2.9,13.4,7.4,17.9c4.4,4.5,10.7,7.4,18,7.4
		c7.5,0,13.7-3.4,17.9-7.6c5.3-6.1,5.6-12.6,5.6-12.6h-17.2c0,0-2.4,6-6.5,6c-1.7,0-3.2-1.2-4.3-3.3c-0.7-1.4-1.3-3.2-1.6-5.2h29.8
		c0,0,2.1-12.2-6.1-20.4C263,294.7,257,291.9,250,291.9"/>
	<path class="st0" d="M424.4,312.8c0.3-1.5,0.8-2.8,1.2-3.8c0.9-1.8,2.6-3.3,4.4-3.3c1.7,0,3.1,1.2,4.3,3.4c0.5,0.9,1,2.6,1.2,3.6
		L424.4,312.8z M430,291.9c-7,0-13.4,2.8-18,7.4c-4.6,4.6-7.4,10.9-7.4,17.9c0,7,2.8,13.4,7.4,17.9c4.5,4.5,10.8,7.4,18.1,7.4
		c7.5,0,13.7-3.4,17.9-7.6c5.3-6.1,5.6-12.6,5.6-12.6h-17.1c0,0-2.4,6-6.5,6c-1.8,0-3.2-1.2-4.4-3.3c-0.8-1.4-1.3-3.2-1.6-5.2H454
		c0,0,2.1-12.2-6.1-20.4C443.1,294.7,437.1,291.9,430,291.9"/>
	<path class="st0" d="M286.3,267.4c-5.3,0-9.6,4.3-9.6,9.6l0,63.4h19.3l0-63.4C295.9,271.7,291.6,267.4,286.3,267.4"/>
	<path class="st0" d="M323.9,328.7c-3.4,0-6.1-5.1-6.1-11.4c0-6.3,2.7-11.4,6.1-11.4c3.4,0,6.1,5.1,6.1,11.4
		C330,323.6,327.3,328.7,323.9,328.7 M323.9,292c-14,0-25.3,11.3-25.3,25.3c0,14,11.3,25.4,25.3,25.4c14,0,25.3-11.4,25.3-25.4
		C349.2,303.3,337.9,292,323.9,292"/>
	<path class="st0" d="M482.1,328.7c-3.4,0-6.1-5.1-6.1-11.4c0-6.3,2.7-11.4,6.1-11.4c3.3,0,6.1,5.1,6.1,11.4
		C488.2,323.6,485.5,328.7,482.1,328.7 M482.1,292c-14,0-25.3,11.3-25.3,25.3c0,14,11.3,25.4,25.3,25.4c14,0,25.3-11.4,25.3-25.4
		C507.5,303.3,496.1,292,482.1,292"/>
	<path class="st0" d="M376.9,328.7c-3.4,0-6.1-5.1-6.1-11.4c0-6.3,2.7-11.4,6.1-11.4c3.4,0,6.1,5.1,6.1,11.4
		C383,323.6,380.3,328.7,376.9,328.7 M402.2,317.3L402.2,317.3V277c0-5.3-4.3-9.6-9.6-9.6c-5.3,0-9.6,4.3-9.6,9.6v15.7
		c-2-0.5-4-0.8-6.1-0.8c-7,0-13.3,2.9-17.9,7.4c-4.6,4.6-7.4,10.9-7.4,17.9c0,7,2.8,13.4,7.4,17.9c2.9,2.9,9.2,7.4,17.9,7.4
		c8.7,0,15-4.5,18-7.4C399.4,330.7,402.2,324.3,402.2,317.3"/>
	<path class="st0" d="M227.4,337.1l-0.5-1.7l-10.5-15.9l7.3-13.3c2.7-4.6,1.2-10.5-3.4-13.2c-4.6-2.7-10.5-1.2-13.2,3.4l-8.7,15.6
		v-10.4c0-5.3-4.4-9.6-9.6-9.6c-5.3,0-9.6,4.3-9.6,9.6v38.9h19.3v-15.2l10.1,15.2h15.5C225.9,340.4,227.4,338.9,227.4,337.1"/>
</g>
</svg>
