<?xml version="1.0" encoding="utf-8"?>
<!-- Generator: Adobe Illustrator 25.2.1, SVG Export Plug-In . SVG Version: 6.00 Build 0)  -->
<svg version="1.1" id="Layer_1" xmlns="http://www.w3.org/2000/svg" xmlns:xlink="http://www.w3.org/1999/xlink" x="0px" y="0px"
	 viewBox="0 0 610 610" style="enable-background:new 0 0 610 610;" xml:space="preserve">
<style type="text/css">
	.st0{fill:#FFFFFF;}
</style>
<g>
	<g>
		<path class="st0" d="M86.8,305c0-7.9,6.5-14.4,15-14.4c7.7,0,11.6,5.5,11.6,5.5l-3.9,3.9c0,0-2.8-3.9-7.7-3.9s-8.9,3.9-8.9,8.9
			c0,4.9,3.9,8.9,8.9,8.9c5.1,0,7.9-3.9,7.9-3.9l3.9,3.9c0,0-3.9,5.5-11.8,5.5C93.3,319.4,86.8,312.9,86.8,305"/>
		<path class="st0" d="M115.7,291.2h11.6c5.5,0,8.9,3.3,8.9,7.3c0,4.3-3.7,5.7-3.7,5.7s5.1,1.4,5.1,6.7c0,4.3-3.5,7.9-9.4,7.9h-12.4
			C115.7,318.8,115.7,291.2,115.7,291.2z M127,301.9c2,0,3.1-1.2,3.1-2.8c0-1.6-1.2-2.8-3.1-2.8h-5.3v5.5H127z M127.7,313.7
			c2.4,0,3.7-1.4,3.7-3.3s-1.4-3.3-3.7-3.3h-6.1v6.7L127.7,313.7L127.7,313.7z"/>
		<path class="st0" d="M138.3,315l3.9-3.9c0,0,2.4,3,6.5,3c3.1,0,4.5-1.4,4.5-3.1c0-4.7-13.8-2.6-13.8-12.2c0-4.3,3.7-8.1,10-8.1
			c6.1,0,9.2,3.7,9.2,3.7l-3.9,3.9c0,0-2-2.4-5.1-2.4c-2.9,0-4.1,1.2-4.1,2.8c0,4.7,13.8,2.6,13.8,12.2c0,4.5-3.9,8.5-10.4,8.5
			C141.8,319.4,138.3,315,138.3,315"/>
		<polygon class="st0" points="176.5,294 167.8,294 167.8,291.2 188.1,291.2 188.1,294 179.4,294 179.4,318.8 176.5,318.8 		"/>
		<polygon class="st0" points="191.4,291.2 210.3,291.2 210.3,294 194.4,294 194.4,303 207.2,303 207.2,305.8 194.4,305.8 
			194.4,316 210.7,316 210.7,318.8 191.4,318.8 		"/>
		<polygon class="st0" points="215,291.2 218,291.2 218,316 232.1,316 232.1,318.8 215,318.8 		"/>
		<polygon class="st0" points="235.5,291.2 254.4,291.2 254.4,294 238.4,294 238.4,303 251.2,303 251.2,305.8 238.4,305.8 
			238.4,316 254.8,316 254.8,318.8 235.5,318.8 		"/>
		<polygon class="st0" points="256.1,291.2 259.3,291.2 268.3,314.6 277.4,291.2 280.5,291.2 269.7,318.8 267,318.8 		"/>
		<rect x="284.3" y="291.2" class="st0" width="3" height="27.5"/>
		<path class="st0" d="M291.6,315l1.8-2c0,0,2.4,3.4,7.5,3.4c4.1,0,6.3-2.2,6.3-5.1c0-7.1-15-3.1-15-13c0-4,3.4-7.5,8.9-7.5
			c5.3,0,8.1,3.5,8.1,3.5l-2,2c0,0-2-2.8-6.1-2.8c-3.8,0-5.9,2.2-5.9,4.7c0,7.1,15,3.1,15,13c0,4.5-3.3,7.9-9.2,7.9
			C294.5,319.2,291.6,315,291.6,315"/>
		<rect x="314.6" y="291.2" class="st0" width="3" height="27.5"/>
		<path class="st0" d="M322.5,305c0-7.9,6.3-14.2,14.2-14.2s14.2,6.3,14.2,14.2c0,7.9-6.3,14.2-14.2,14.2
			C328.8,319.2,322.5,312.9,322.5,305 M347.8,305c0-6.5-4.9-11.4-11.2-11.4c-6.3,0-11.2,4.9-11.2,11.4c0,6.5,4.9,11.4,11.2,11.4
			C342.9,316.4,347.8,311.5,347.8,305"/>
		<polygon class="st0" points="355.7,291.2 358.3,291.2 375.2,313.5 375.2,291.2 378.1,291.2 378.1,318.8 375.6,318.8 358.7,296.5 
			358.7,318.8 355.7,318.8 		"/>
		<path class="st0" d="M389.2,315l1.8-2c0,0,2.4,3.4,7.5,3.4c4.1,0,6.3-2.2,6.3-5.1c0-7.1-15-3.1-15-13c0-4,3.4-7.5,8.9-7.5
			c5.3,0,8.1,3.5,8.1,3.5l-2,2c0,0-2-2.8-6.1-2.8c-3.8,0-5.9,2.2-5.9,4.7c0,7.1,15,3.1,15,13c0,4.5-3.3,7.9-9.2,7.9
			C392.1,319.2,389.2,315,389.2,315"/>
		<polygon class="st0" points="417.5,294 408.8,294 408.8,291.2 429.1,291.2 429.1,294 420.4,294 420.4,318.8 417.5,318.8 		"/>
		<path class="st0" d="M440.5,291.2h2.8l11.4,27.5h-3.1l-3.1-7.7h-13l-3.1,7.7h-3.1L440.5,291.2z M447.2,308.3l-5.3-13l-5.3,13
			H447.2z"/>
		<polygon class="st0" points="463.3,294 454.7,294 454.7,291.2 474.9,291.2 474.9,294 466.3,294 466.3,318.8 463.3,318.8 		"/>
		<rect x="478.3" y="291.2" class="st0" width="3" height="27.5"/>
		<path class="st0" d="M486.2,305c0-7.9,6.3-14.2,14.2-14.2s14.2,6.3,14.2,14.2c0,7.9-6.3,14.2-14.2,14.2S486.2,312.9,486.2,305
			 M511.5,305c0-6.5-4.9-11.4-11.2-11.4c-6.3,0-11.2,4.9-11.2,11.4c0,6.5,4.9,11.4,11.2,11.4C506.6,316.4,511.5,311.5,511.5,305"/>
		<polygon class="st0" points="519.4,291.2 522,291.2 538.9,313.5 538.9,291.2 541.8,291.2 541.8,318.8 539.3,318.8 522.4,296.5 
			522.4,318.8 519.4,318.8 		"/>
		<path class="st0" d="M546.2,315l1.8-2c0,0,2.4,3.4,7.5,3.4c4.1,0,6.3-2.2,6.3-5.1c0-7.1-15-3.1-15-13c0-4,3.4-7.5,8.9-7.5
			c5.3,0,8.1,3.5,8.1,3.5l-2,2c0,0-2-2.8-6.1-2.8c-3.8,0-5.9,2.2-5.9,4.7c0,7.1,15,3.1,15,13c0,4.5-3.3,7.9-9.2,7.9
			C549.1,319.2,546.2,315,546.2,315"/>
		<path class="st0" d="M84.1,305c0,4.2-1.5,7.8-4.5,10.8c-3,3-6.6,4.5-10.8,4.5c-4.2,0-7.8-1.5-10.8-4.5c-3-3-4.5-6.6-4.5-10.8
			c0-4.2,1.5-7.8,4.5-10.8c3-3,6.6-4.5,10.8-4.5s7.8,1.5,10.8,4.5C82.6,297.2,84.1,300.8,84.1,305 M83.1,305c-1.2-2.6-3-4.8-5.5-6.4
			c-2.6-1.8-5.6-2.7-8.8-2.7c-3.2,0-6.2,0.9-8.8,2.7c-2.5,1.6-4.3,3.8-5.5,6.4c1.2,2.6,3,4.8,5.5,6.5c2.7,1.8,5.6,2.6,8.8,2.6
			c3.2,0,6.1-0.9,8.8-2.6C80.1,309.8,81.9,307.6,83.1,305 M76.9,305c0,2.2-0.8,4.1-2.4,5.7c-1.6,1.6-3.5,2.4-5.7,2.4
			c-2.2,0-4.1-0.8-5.7-2.4c-1.6-1.6-2.4-3.5-2.4-5.7s0.8-4.1,2.4-5.7c1.6-1.6,3.5-2.4,5.7-2.4c2.2,0,4.1,0.8,5.7,2.4
			C76.1,300.8,76.9,302.7,76.9,305"/>
	</g>
</g>
</svg>
