<?xml version="1.0" encoding="utf-8"?>
<!-- Generator: Adobe Illustrator 25.2.1, SVG Export Plug-In . SVG Version: 6.00 Build 0)  -->
<svg version="1.1" id="Layer_1" xmlns="http://www.w3.org/2000/svg" xmlns:xlink="http://www.w3.org/1999/xlink" x="0px" y="0px"
	 viewBox="0 0 610 610" style="enable-background:new 0 0 610 610;" xml:space="preserve">
<style type="text/css">
	.st0{fill:#FFFFFF;}
</style>
<path class="st0" d="M185.4,343.2c0,18.1,4.8,38.4,13.3,55.1c15.4-14.4,55.9-60.1,60.6-65.4c7.1-8.1,10.1-2.9,13.9-7.5
	c2-2.5,3.2-3.4,4.1-3.9c1.5-0.9,3.1-3,3.9-3.6c0.8-0.6,2.7-3.1,4.2-4.4c1.5-1.2,4.4-3.1,7.3-5.6c2.9-2.5,7.9-8.3,13.3-8.3
	c6.4,0,9.1,4.4,9.7,4.9c0.5,0.5,4.4,4,5.1,4.7c0.7,0.8,4.9,4.1,7.2,4.1c2.3,0,4,2.5,5.2,3.7c2.7,2.5,14,14.3,17.6,16.8
	c1.7,1.1,3.2,0.9,4.5,1.9c1.3,0.9,1.9,1.5,2.6,1.8c0.7,0.2,3.1-0.4,5.9,3.1c1.3,0.9,1.7,1,1.7,1s3.8,3.5,5.2,5.9
	c1.2,2.1,29.7,39.9,39.9,53.4c9.5-17.1,14.9-36.8,14.9-57.8c0-66.3-53.7-120-120-120C239.1,223.3,185.4,277,185.4,343.2
	 M277.1,277.1c-2,4.4-3.4,7.6-5.2,11.8c-0.1,0.4-0.3,1.1,0.1,1.3c0.3,0.1,0.7,0.1,0.9,0c2.3-1.1,4.3-3.8,5.9-6.9l2.9-6.3h4l-1.1,2.4
	c-0.1,0.2-0.1,0.2,0,0.2c1.3-1,2.6-2.4,4.2-3.2c0.6-0.3,2.1-0.3,2,0.7c-0.1,0.9-0.8,1.6-1.2,2.5c-0.2,0.5-0.5,1.2-0.4,1.6
	c0.2,0.4,0.6,0.6,1.3,0.2c0.6-0.4,1.1-0.7,1.7-1.2c1-1,2.3-1.9,3.7-2.6c2.8-1.3,6.7-2.2,9.5-0.4c-2,4.4-3.4,7.7-5.3,11.9
	c-0.4,0.7-0.1,0.9,0.1,1.1c0.3,0.1,0.7,0.2,1.4-0.1c1.6-0.7,4.3-3.7,5.4-6.1c1-2.2,2-4.4,3.1-6.9h4.1l-1.1,2.4l0.2,0.1
	c1.1-1,4-3.3,6.1-2.8c1.2,0.2,1.8,1.6,1.7,2.7c1.3-1,2.7-2.1,4.7-2.6c2.9-0.7,4,1.3,3.1,3.2c-1.1,2.6-3.3,7.7-4.6,10.3
	c-0.1,0.3-0.1,0.9,0,1c0.3,0.2,0.9,0,1.1-0.2c1.4-1.2,2.2-2,3.3-3.5c0.3-2.8,1.8-5.3,3.9-7.4c2.2-2.4,5.6-4.3,9-3.2
	c1.1,0.4,1.9,1.6,2.3,2.7c0.1,0.6,0.3,0.9,0.3,1.7c1.8,1.3,4-0.8,5-2.4c0.2-0.7,0.6-1.3,0.7-1.8c1,0.1,3,0,4.1,0l-5.2,11.8
	c-0.3,0.7-0.4,1.1-0.4,1.6c0,0.4,0.5,0.5,1,0.4c1.4-0.2,3.7-3,4.9-5.4c1.3-2.9,2.6-5.3,3.9-8.3h4.2c-1.6,3.9-3.5,8.1-4.9,11.2
	c-0.3,0.6-0.7,1.3-0.5,2.1c0.2,0.4,0.7,0.3,1.1,0.2c1.8-1,4.9-4.5,6-6.6c1.1-2.5,2-4.4,3.1-6.9h4.3l-1,2.4c1.6-1.3,3.3-2.6,5.4-2.9
	c1-0.1,2.1-0.1,2.7,0.9c0.6,1.1,0.2,2.3-0.2,3.3c-1.2,2.7-2.5,5.6-3.7,8.2c-0.2,0.6-0.3,1.2,0.2,1.5c0.6,0.4,3.6-1.4,5.1-4.7
	c1.3-2.9,2.2-4.6,3.4-7.5h-2.2l0.6-1.3h2.2l3.1-6.8h4.2l-3,6.8h3.2l-0.6,1.3h-3.2c-1.8,3.8-3.3,7.1-4.9,10.7
	c-0.6,1.2-1.3,3.3-0.9,4.6c0.2,0.7,1.1,0.9,1.9,0.6c2.4-0.8,4.1-2.9,5.5-5.1c0.1-0.2,1.3-0.1,1.2,0.1c-1.7,3.3-5.3,6.6-8.8,6.5
	c-1,0-2.2-0.6-2.8-1.5c-0.3-0.5-0.5-0.8-0.6-1.4c-0.2-0.9-0.2-1.9,0-2.8c-1.9,1.4-3.7,3.2-6.1,3.6c-1,0.2-2.3-0.2-2.6-1.4
	c-0.2-0.9-0.1-1.8,0.3-2.6c1.5-3.2,2.8-6.2,4.2-9.5c0.1-0.2,0-0.8-0.2-0.8c-0.2-0.2-0.9-0.2-1.6,0.2c-2.9,2.2-4.4,5.1-5.7,8
	c-0.9,2-1.8,4-2.8,5.9h-4.2c0.5-1.2,1.2-2.8,1.8-4c0-0.1-0.1-0.1-0.1,0c-1.7,1.7-4,3.6-6.1,4.2c-0.9,0.2-1.8-0.1-2.2-0.9
	c-0.5-0.8-0.6-2-0.2-3c0,0,0,0-0.1,0c-1.6,1.6-3.1,3-5.2,3.7c-2.4,0.8-4.5-0.9-3-4.4c0.4-0.9,1.6-3.5,2.9-6.7
	c-1.1,0.5-2.4,0.5-3.1,0.2c0,0-0.1,0-0.1,0.1c-0.9,4.4-3.5,8.4-7.6,10.3c-2,1-4.2,1.2-6.1-0.2c-1-0.6-1.5-2.1-1.6-3.4
	c-2,2-4.3,4.6-7.5,4.2c-0.5-0.1-0.9-0.5-1.1-0.9c-0.7-1.2-0.3-2.5,0.2-3.5c1.5-3.1,2.7-6.1,4.2-9.6c0.2-0.5-0.4-0.9-0.9-0.6
	c-1.5,0.7-2.4,1.4-3.2,2.7c-0.5,0.7-0.9,1.5-1.3,2.2c-1.4,3-2.9,6.2-4.1,9.2h-4.3c1.9-4.3,3.7-8.5,5.6-12.7c0.2-0.4,0.1-0.9-0.1-1.1
	c-0.4-0.2-1,0.2-1.5,0.4c-1,0.7-1.9,1.6-2.6,2.9c-0.7,1.1-1.3,2.4-1.9,3.6l-3.2,7h-4.2c0.4-0.9,1.2-2.7,1.7-3.6
	c0-0.1-0.1-0.2-0.1-0.1c-2.3,1.8-5.2,4.3-7.3,3.9c-0.7,0-1.3-0.7-1.5-1.3c-0.2-0.8-0.1-1.5,0.1-2.2c0-0.1-0.1-0.1-0.2,0
	c-1.8,1.7-3.5,3.1-5.7,3.7c-1.4,0.3-2.6-0.6-3-1.5c-0.6-1.1-0.7-2.8,0.2-4.8c0.6-1.3,1.2-2.6,2-3.7c-0.5,0.2-1.4,0.3-2,0.2
	c-0.5-0.1-1.1-0.5-1.4-0.9c-0.3-0.4-0.4-1.1-0.4-1.5c0.1-0.1-0.2-0.1-0.3,0c-1.3,1-1.8,2.2-2.4,3.5l-3.6,8.2h-4.3l1.6-3.5
	c0.1,0,0-0.1-0.1,0c-2.2,1.9-4.9,4.2-7,3.8c-0.6-0.1-1.3-0.7-1.4-1.4c-0.2-0.7-0.1-1.5,0-2.2h-0.2c-1.7,1.7-3.4,3.2-5.6,3.6
	c-1.3,0.4-2.5-0.4-3-1.5c-0.6-1.6-0.4-3.3,0.2-4.8c1.7-4.3,4.6-7.3,8.8-9.6C270.3,276.2,274.3,275.7,277.1,277.1 M246.7,258.5
	c12.3,0.6,19.5,6.6,19.5,13c0,11.5-18.3,13.5-18.3,13.5c-3.2,16-15.9,22.1-24.6,22c-11.8-0.1-11.6-9.7-11.2-10.9
	c0.5-1.4,1.2-2.7,2.7-2.7c1.4,0,2.7,1.2,2.7,2.7c0,0.9-0.4,1.8-1.2,2.2c-1.5,1-1.2,2.1-1.2,2.1c0,5.1,6.5,5.5,8.3,5.5
	c17.5,0,15.5-28.9,31-38.7c0.7-0.5,1.3,0,0.8,0.5c-4.8,6-6.6,15.8-6.6,15.8c7.5,0,12.4-7.1,12.4-12c0-8.5-7.6-12-14.1-12
	c-18,0-25.9,12.6-25.9,19.5c0,6.9,4.3,9.4,7.5,9.4c4.4,0,5.7-2.9,5.2-4.4c-0.9-2.3,0.3-4.1,1.7-4.1c0.5,0,2.4-0.1,2.4,3.1
	c0,3-4.4,6.1-9.1,6.1c-4.8,0-11.6-2.6-11.6-10.1C216.8,263.7,235.6,257.9,246.7,258.5 M264,290.6c1.6,0,3.8-2.8,5.1-5.3
	c1.2-2.7,1.9-4.1,3.5-7.5c0-0.2-0.1-0.2-0.1-0.2c-1.9,0-3.9,1.8-5.2,3.3c-1.5,1.8-3.9,5.3-4.4,7.8C262.7,290,263.3,290.6,264,290.6
	 M332.2,293c1.8,0.9,3.9-3,5.8-6.5c1.9-3.6,3.4-8,1.8-8.5c-1.8-0.7-4.1,2.7-6,6.3C332,287.7,330.5,292.2,332.2,293 M292.3,290.6
	c1.5,0,3.8-2.8,5-5.3c1.3-2.7,1.9-4.1,3.5-7.5c0.1-0.2-0.1-0.2-0.2-0.2c-1.8,0-3.8,1.8-5.1,3.3c-1.5,1.8-3.9,5.3-4.3,7.8
	C290.9,290,291.5,290.6,292.3,290.6 M276.2,347.6c0.4-0.9,1.7-3.6,1.6-4.6c0-0.2-0.5-0.5-0.9-0.1c-1.9,1.8-5.6,8.4-7.1,9.2
	c-3.3,1.6-4.7,5.4-5.6,6.9c-0.7,1.1-1.6,2.9-3.1,5.1c-1.4,2-2.9,4.9-3.5,5.9c-0.6,1.1-0.8,2,0.3,2c1.1,0,0.2,1.7-1.1,3.6
	c-0.7,1.1-2.5,6.3-3,7.8c-0.7,1.8-0.6,4-0.8,4.8c-0.3,0.8-3.7,8-4.6,9.7c-0.5,1-0.4,1.4-0.6,2c-0.3,0.7,0.1,0.9,0.6,0.4
	c0.6-0.6,4.3-6.2,5.4-6.9c1.1-0.7,2.1-1.7,2.3-4.1c0.2-2.4,1.7-3.1,2.9-4.5c1.2-1.4,2.8-3.3,3.7-5.2c0.8-2,1.8-0.5,3.7-3.5
	c1.8-3,6-10.5,7-11.9c0.9-1.4,0.3-3.5,0.1-5.2c-0.1-0.9,0.1-3.1,0.6-5.5C274.7,351.1,275.7,348.9,276.2,347.6 M391,388.4
	c0.3-0.3-0.5-1.2-0.9-1.9c-0.4-0.7-3-3.6-3.5-4.4c-0.4-0.8-3.8-5.5-5-7.1c-2.1-2.7-0.1-3.7-1.2-5.3c-0.5-0.7-3.1-3.9-6.3-7.1
	c-1.6-1.6-3.4-3.2-4.9-4.5c-2.5-2.2-4.3-3.8-4.6-3.5c-0.4,0.4,1,2.2,1.7,3c0.6,0.8,1.6,2.2,2.9,3.7c2.2,2.5,0.2,4.4,2.2,6.4
	c0.4,0.3,5.9,6.6,7.3,7.7c2,1.8,9.3,10.4,9.8,10.9C389.3,387,390.8,388.7,391,388.4 M358,376.1c2,3.3,2.6,2.7,3.4,2.7
	c1.9,0.1,6.1,4.6,6.9,5.8c0.8,1.3,7.6,8,9.4,9.7c0.8,0.7,6.1,9.4,6.8,8.8c0.8-0.6-2.1-4.9-2.5-5.8c-0.4-0.9-2-2.3-2.7-4.3
	c-0.7-1.9-3.9-6.8-5-8.4c-1-1.6-2.7-5-4.5-7.2c-1.7-1.9-0.4-2.5-2.1-4.1c-1.1-1-4.4-3.9-5.1-4.5c-0.7-0.6-3.4-3-4.9-4.4
	c-1.5-1.3-5.2-3.8-5.1-5.5c0-1.7-0.8-4.9-2-5.9c-0.9-0.7-3.5-5-6.5-7.4c-1.5-1.3-4.8-4.6-7.2-7.6c-2.4-2.8-4.1-5.3-4.7-5
	c-0.8,0.5,2.7,5.4,3.1,6c0.4,0.6,4.4,7.6,4.8,9.4c0.4,1.9,8,14.6,9.6,18.6C350.6,369.4,355.8,372.5,358,376.1 M311.7,340.5
	c0.7,2,3.1,13.5,3.8,15.9c0.7,2.4,1.5,2.5,1.9,3.4c1.5,3.6,3.5,3.7,4.5,4c3,0.9,3.2,4.9,5.1,8.4c1.7,3.3,3.4,6.3,5,9.9
	c1.6,3.6,9.5,23.3,10.9,26.3c0.5,1.1,4.2,1.1,3.8,0c-1-2.1-3.2-7.6-4.5-13c-0.9-3.5,2.4-1,0.3-6.7c-1-2.6-2.8-5.1-3.8-6.2
	c-1.1-1-2.1-5.5-2.9-7.5c-0.8-1.9-0.4-2-2.2-6.7c-1.3-3.4,2.4-2.3,0.3-7.5c-1.4-3.4-8.2-15.9-8.9-17.1c-0.4-0.7-1.7-2.8-3.3-5.4
	c-1.5-2.4-2.8-5-3.5-6.1c-1.4-2.3-4.1-7.3-5.5-9.3c-1.5-2.1-3.3-6.7-4.1-5.9c-0.7,0.7,2.2,7.5,3.4,11.9c1.3,4.3,0.3,6.1-0.4,7.4
	C311,337.5,311,338.3,311.7,340.5 M310.8,216l6.1-3.6l5.3,4.7l-1.6-7l6.1-3.7l-7.1-0.7l-1.4-6.9l-2.8,6.4l-7.1-0.7l5.3,4.8
	L310.8,216z M423.1,296.5l5.8,4.1l-2.2,6.7l5.8-4.2l5.9,4.1l-2.2-6.8l5.6-4.1l-7,0.1l-2.3-6.8l-2.3,6.8L423.1,296.5z M440.4,315
	l-3.6,6.2l-7-1.4l4.9,5.2l-3.4,6.2l6.5-3.1l5,5.2l-0.9-7.1l6.4-2.9l-6.9-1.3L440.4,315z M248.7,358.2c-0.6-0.4-7.3,6.4-11.7,11.2
	c-1.5,1.7-2.6,3.2-3.2,4c0,0-1.9,3.2-3,4.6c-1,1.3-3.7,5.2-4.8,6.8c-0.4,0.6-1.4,2.9-3.4,5.5c-1,1.2-2,2.9-4,5.4
	c-2.6,3.3-4.6,6.1-4.1,6.4c0.3,0.2,4.1-4.4,8.2-9.4c1.7-2.1,3.6-4.2,5.1-6.3c0.8-1,2.5-2.6,3.1-3.4c1-1.5,2.1-2.6,2.5-3
	c2.3-1.9,3.6-2,4.3-3c0.4-0.5,4.9-7.4,6.5-10.1C245.9,364.2,249.6,359,248.7,358.2 M424.2,402.9l1.4,7.1l3.1-6.4l6.9,1l-5.1-4.8
	l3.1-6.4l-6.4,3.3l-5.2-5l1.3,7l-6.2,3.3L424.2,402.9z M438,378.8l7-0.4l-5.8-3.8l1.8-6.9l-5.6,4.5l-6-4l2.6,6.6l-5.5,4.5l7.2-0.4
	l2.7,6.6L438,378.8z M442.8,348.5l0.5-7.1l-4.7,5.5l-6.7-2.7l3.8,5.9l-4.6,5.5l6.9-1.8l3.9,6l0.5-7.1l6.8-1.7L442.8,348.5z
	 M334.9,219.5l6.7-2.4l4.2,5.7l-0.2-7.2l6.8-2.5l-6.8-2.1l-0.1-7l-4,5.8l-6.8-2l4.3,5.8L334.9,219.5z M418.5,277.8l-0.9,7l4.9-5.3
	l6.5,2.9l-3.5-6.3l4.8-5.1l-6.9,1.4l-3.5-6.2l-0.9,7.2l-7,1.3L418.5,277.8z M364.9,226.5l3.1,6.3l1.2-7l7.1-1.1l-6.3-3.3l1.2-6.9
	l-5,4.9l-6.3-3.3l3.1,6.5l-5.1,5L364.9,226.5z M397.1,255.7l6.9,1.6l0.5,7.1l3.8-6.1l7,1.6l-4.6-5.4l3.7-5.9l-6.5,2.6l-4.6-5.4
	l0.5,7.2L397.1,255.7z M385.9,240.1l1.9,6.8l2.5-6.7l7.2,0.2l-5.6-4.5l2.5-6.5l-5.9,3.8l-5.5-4.4l1.8,7l-6,3.9L385.9,240.1z
	 M180.2,283.5l6.6-2.9l4.8,5.4l-0.8-7l6.5-2.9l-7-1.4l-0.9-7.1l-3.5,6.2l-6.8-1.5l4.7,5.2L180.2,283.5z M172.2,380.1l1.7,6.9
	l2.8-6.7l7.2,0.5l-5.5-4.5l2.7-6.6l-6.1,3.8l-5.6-4.5l1.8,6.9l-5.9,3.7L172.2,380.1z M262.8,223.1l4.3-5.6l6.7,2.4l-4.1-5.9l4.3-5.7
	l-6.9,2l-3.9-5.8l-0.2,7l-6.8,2l6.8,2.5L262.8,223.1z M239.6,226.3l1.1,7.1l3.2-6.4l7,1.1l-5.1-5.1l3.2-6.5l-6.4,3.3l-4.9-4.9
	l1.2,6.8l-6.4,3.3L239.6,226.3z M218.7,241l2.5,6.8l1.9-6.9l7.1-0.2l-6-4l1.9-7l-5.6,4.4l-5.8-3.9l2.4,6.6l-5.5,4.4L218.7,241z
	 M184.9,411.1l1.4-7.1l7.1-0.9l-6.2-3.4l1.4-6.9l-5.2,4.9l-6.3-3.3l3.1,6.5l-5.1,4.7l6.9-0.9L184.9,411.1z M286.5,217.2l5.3-4.7
	l6.1,3.7l-2.9-6.6l5.3-4.8l-7.1,0.6l-2.7-6.4l-1.6,6.8l-7,0.7l6.1,3.7L286.5,217.2z M200.8,259.2l3.7,6.1l0.5-7l6.9-1.6l-6.6-2.7
	l0.5-7.1l-4.6,5.4l-6.4-2.8l3.6,6l-4.6,5.4L200.8,259.2z M171.1,308.3l5.9-4.1l5.7,4.3l-2.2-6.7l5.9-4.1l-7.2-0.1l-2.2-6.8l-2.3,6.8
	l-7-0.2l5.6,4.2L171.1,308.3z M166.9,334.6l5.1-5.2l6.4,3.2l-3.4-6.2l4.9-5.1l-7.1,1.3l-3.5-6.3l-0.9,7l-6.9,1.2l6.3,3L166.9,334.6z
	 M167.9,361.1l4-6l6.9,1.9l-4.5-5.5l3.9-5.9l-6.7,2.6l-4.6-5.5l0.4,7.1l-6.5,2.5l6.7,1.8L167.9,361.1z"/>
</svg>
