<?xml version="1.0" encoding="utf-8"?>
<!-- Generator: Adobe Illustrator 25.2.1, SVG Export Plug-In . SVG Version: 6.00 Build 0)  -->
<svg version="1.1" id="Layer_1" xmlns="http://www.w3.org/2000/svg" xmlns:xlink="http://www.w3.org/1999/xlink" x="0px" y="0px"
	 viewBox="0 0 610 610" style="enable-background:new 0 0 610 610;" xml:space="preserve">
<style type="text/css">
	.st0{fill:#FFFFFF;}
</style>
<g>
	<path class="st0" d="M285.2,308.2c-0.9-0.4-2.4-2,0.1-6.6l5.6-11.8c0.2-0.4-0.2-0.8-0.5-0.5l-4.9,5c-2.3,2.4-6.3,9.3-7.1,10.6
		l-6,9.9c0.6,0,1,0.7,0.7,1.2l-5.5,9.2c-1.3,2.3,1.1,3.9,1.4,3.4c8.6-13.9,13.6-12.8,13.6-12.8l2.9-6.7
		C285.8,308.8,285.6,308.4,285.2,308.2"/>
	<path class="st0" d="M304.8,192.1c-49.3,0-89.3,40-89.3,89.3c0,19.9,6.5,38.2,17.4,53c3.7-1.6,5.8-4,7.3-5.9l16.6-21.3
		c0.4-0.4,0.8-0.8,1.3-1l2.5-1.1l27.3-34.7l4-3.1l8.1-11.3c0.2-0.3,0.5-0.6,0.8-0.8l3.6-2.6c0.9-0.6,2.1-0.7,3,0l4.3,3
		c2.3,1.6,4.1,3.7,5.4,6.2l17.3,30.3c0.4,0.7,0.7,1,1.4,1.3c3.4,1.7,5.4,2,9.9,6.8c2.1,2.3,11.1,12.4,23.8,28.1
		c1.8,2.4,4,4.4,7.2,5.8c10.9-14.8,17.4-33.1,17.4-52.9C394.1,232.1,354.1,192.1,304.8,192.1 M239.6,286.3l-5.8-1.9l-3.6,4.9v-6.1
		l-5.8-1.9l5.8-1.9v-6.1l3.6,4.9l5.8-1.9l-3.6,4.9L239.6,286.3z M238.3,306.2l-1.9,5.8l-1.9-5.8h-6.1l4.9-3.6l-1.9-5.8l4.9,3.6
		l4.9-3.6l-1.9,5.8l4.9,3.6H238.3z M239.4,260.1l1.9,5.8l-4.9-3.6l-4.9,3.6l1.9-5.8l-4.9-3.6h6.1l1.9-5.8l1.9,5.8h6.1L239.4,260.1z
		 M249.2,247l-3.6-4.9l-5.8,1.9l3.6-4.9l-3.6-4.9l5.8,1.9l3.6-4.9v6.1l5.8,1.9l-5.8,1.9V247z M264.4,225.7l-1.9,5.8l-1.9-5.8h-6.1
		l4.9-3.6l-1.9-5.8l4.9,3.6l4.9-3.6l-1.9,5.8l4.9,3.6H264.4z M283.6,216l-3.6,4.9v-6.1l-5.8-1.9l5.8-1.9V205l3.6,4.9l5.8-1.9
		l-3.6,4.9l3.6,4.9L283.6,216z M307.9,210.4l1.9,5.8l-4.9-3.6l-4.9,3.6l1.9-5.8l-4.9-3.6h6.1l1.9-5.8l1.9,5.8h6.1L307.9,210.4z
		 M329.7,214.8v6.1l-3.6-4.9l-5.8,1.9l3.6-4.9l-3.6-4.9l5.8,1.9l3.6-4.9v6.1l5.8,1.9L329.7,214.8z M370,276.4l5.8,1.9l3.6-4.9v6.1
		l5.8,1.9l-5.8,1.9v6.1l-3.6-4.9l-5.8,1.9l3.6-4.9L370,276.4z M347.1,231.5l-1.9-5.8h-6.1l4.9-3.6l-1.9-5.8l4.9,3.6l4.9-3.6
		l-1.9,5.8l4.9,3.6H349L347.1,231.5z M360.5,247V241l-5.8-1.9l5.8-1.9v-6.1l3.6,4.9l5.8-1.9l-3.6,4.9l3.6,4.9l-5.8-1.9L360.5,247z
		 M371.4,256.5l1.9-5.8l1.9,5.8h6.1l-4.9,3.6l1.9,5.8l-4.9-3.6l-4.9,3.6l1.9-5.8l-4.9-3.6H371.4z M375.2,306.2l-1.9,5.8l-1.9-5.8
		h-6.1l4.9-3.6l-1.9-5.8l4.9,3.6l4.9-3.6l-1.9,5.8l4.9,3.6H375.2z"/>
	<path class="st0" d="M337.2,333c0.4-0.6,1.1-2.3-0.2-5.5l-3.9-10.6c-0.5-1.4,0.6-2.2,1.4-1.3c0,0,7.5,8.6,9.4,12.2l3.7,6.1
		c3.2,0.2,11.9,0.5,20.3,0.5c-0.8-0.8-1.6-1.7-2.4-2.7c-14.4-17.8-23.5-27.7-23.5-27.8c-2.9-3.2-4.3-3.8-6.5-4.8
		c-0.3-0.1-0.7-0.3-1-0.5v2.7c0,0.4-0.4,0.5-0.6,0.2l-21.1-37.1l-0.1-0.1c-0.9-1.7-2.2-3.2-3.8-4.4l-2.1-1.4l-10.1,23.2
		c1.6,0,2.6,1.6,2,3l-9.3,21.5h8.5c3.3,0,6.6,0.6,9.6,1.9l2.2,0.9c0,0-6.8,14-6.8,21.3c0,1.3,0.2,2.7,0.6,4h15.6l-0.7-4.4
		C318.6,329.9,328,332.1,337.2,333"/>
	<path class="st0" d="M216.4,355.6c0-14.4-15.2-21.3-33.3-21.3c-19.4,0-37.1,8.6-43.7,21.9c-1.8,3.5-2.7,7.5-2.7,11.4
		c-0.1,3.5,0.9,6.9,2.7,9.7c2.8,4.1,7.8,6.7,15.1,6.7c9,0,16.1-4.9,16.1-13.5c0,0,0.1-2.4-2.7-2.4c-2.3,0-2.9,1.6-2.8,2.4
		c0.3,6.7-3.7,12.1-10.8,12.1c-8,0-11.3-6.8-11.3-14c0-14.8,11.2-24.7,22.8-29c5.5-2.1,11.2-3.1,17-3c13.2,0,24,5.1,24,18.6
		c0,11.3-9.5,21-20.9,21.8l0.5-1.5c2.3-8.3,5.2-17.4,9.9-24.2c0.3-0.4,0.7-1.1,1.3-1.7l-0.7-0.8c-1,0.6-1.9,1.3-2.9,2
		c-21.8,17-22.5,65-51.6,65c-1,0-2-0.1-3-0.2c-6.1-1-9.2-5.1-9.2-10.7c0-1.1,0.4-2.7,0.4-3.5c0.1-1.6-1.3-3-2.9-3h-0.3
		c-2.6,0-3.7,2.1-3.7,5c-0.2,8.4,6.1,13.4,15.7,14.3c1.1,0.1,2.1,0.1,3.3,0.1c22.7,0,36.6-17.2,42.5-38c3-0.3,6-1,8.9-1.9
		C204.5,375.1,216.4,368,216.4,355.6"/>
	<path class="st0" d="M432.5,360.6h-8l-1.8,4.2l-3.1,7.1h-3.7l-1.1,2.4h3.9l-4.7,10.3c-3.3,7.3-8.5,14.4-11.5,14.4
		c-0.7,0-1.1-0.3-1.1-0.9s0.2-1.3,0.9-3.1c0.9-2.2,2.5-5.4,3.6-7.7c1.7-3.4,4.3-8.6,4.3-11.2c0-2.6-1.7-4.7-4.9-4.7
		c-3.7,0-7,2.2-10,5.4l2-4.8h-7.5l-6.1,14c-2.5,4.9-7.5,13.1-10.6,13.1c-0.7,0-0.9-0.4-0.9-1.1c0.1-0.6,0.2-1.1,0.5-1.7
		c0.3-0.6,3.9-9.2,3.9-9.2l6.7-15.2H375l-6.5,14.8c-2,4.6-7.1,12.4-10.3,12.4c-0.5,0.1-1.1-0.3-1.1-0.9v-0.3c0-0.8,0.6-2.3,1.1-3.3
		l3.4-7.5l7-15.2h-8.1l-1.6,3.5c-1.2,2.3-3.2,5.1-6.4,5.1c-1.5,0-2.3-0.6-2.6-1.2c-0.5-5.1-3.7-7.8-8.5-7.8
		c-6.6,0-11.4,3.9-14.5,8.7c-2.1,3.3-3.7,6.9-4.8,10.6c-2.9,4.7-5.9,8.4-8.3,8.4c-0.6,0-1-0.3-1-1.1s0.8-2.6,1.1-3.3l5.3-11.2
		c1.5-3.5,2.5-5.7,2.5-8c0-2.4-1.7-4.1-4.4-4.1c-3.8,0-7.9,2.2-11.2,5.8c0.1-0.6,0.1-1.1,0.1-1.7c0-2.7-1.3-4-4.1-4
		c-3.5,0-7.1,2.1-10.3,5.8l2.1-5.2h-7.3l-6.2,14c-2.9,6.6-7.7,13.1-10.3,13.1c-0.6,0-1-0.3-1-1.1c0-1.3,1.4-4.4,1.9-5.7l8.2-18.6
		c0.6-1.4-3.3-2.3-8.3-2.3c-5.1,0-10.4,2.5-14.2,5.8c-2.7,2.3-4.7,3.4-5.7,3.4c-0.5,0-0.7-0.3-0.7-0.6c0-1.1,2.7-4.3,2.7-6.8
		c0-1.1-0.6-1.9-2.1-1.9c-2.9,0-6.4,2.8-8.9,5.7l2.1-5.1h-7.2l-6.2,14c-2.9,6.6-7.8,13.5-10.5,13.5c-0.6,0-1-0.3-1-1.1
		c0-1.3,1.3-4.3,2.1-5.9l8.2-18.6c0.6-1.4-3.3-2.3-8.3-2.3c-7.4,0-14.6,5-18.4,10.1c-4.2,5.5-7.1,11.4-7.1,16.2
		c-0.1,3.9,1.9,6.3,5.9,6.3c4.5,0,8.1-3.5,10.1-6.2c-0.1,0.5-0.2,1.1-0.3,1.6c0,2.7,1.1,4.6,4.3,4.6c2.9,0,6.7-2.4,9.7-6.2l-2.5,5.7
		h7.8l7.7-17.4c2.5-5.7,5.4-8.6,6.2-8.6c0.3,0,0.4,0.1,0.4,0.3c0,0.6-1.2,2.2-1.2,3.6c0,1.5,0.8,2.6,2.9,2.6c1.7,0,3.5-0.8,5.2-1.9
		c-3.9,5.3-6.6,10.9-6.6,15.5c-0.1,3.9,1.9,6.3,5.9,6.3c4.2,0,8.1-4,10.3-6.7c-0.1,0.6-0.1,1.2-0.1,1.9c0,2.6,1.5,4.8,4.5,4.8
		c3.3,0,6-2.1,9.3-6.1l-2.5,5.6h8l7.3-16.6c3.2-7.2,7.5-11,9.7-11c0.5-0.1,1,0.3,1.1,0.9v0.2c-0.1,0.8-0.3,1.6-0.7,2.3l-10.5,24.3
		h8.2l7.5-16.9c3.2-7.3,6.7-10.8,9.4-10.8c0.8,0,1.1,0.4,1.1,1.3c-0.1,0.9-0.3,1.9-0.7,2.7l-7.2,15.3c-0.7,1.5-1.1,3.1-1.2,4.7
		c0,2.3,1.3,4.4,4.9,4.4c4.7,0,8.2-3.5,12.2-8.8v1.1c0.3,4.2,2.7,7.9,8.9,7.9c7.3,0,13.3-5.1,16.8-13.1c1.3-2.9,2.3-5.9,2.6-9
		c0.8,0.4,1.7,0.6,2.6,0.5c1.2,0,2.4-0.3,3.5-0.9l-1.3,2.7c-1.5,3.1-3.1,6.5-4.3,9.3c-0.8,1.7-1.3,3.5-1.4,5.4
		c0,2.9,1.6,4.9,4.9,4.9c3.3,0,7.7-3.1,10.9-7.4h0.1c-0.2,0.9-0.3,1.8-0.3,2.7c0,2.4,0.7,4.7,4.1,4.7c3.9,0,6.9-2.8,9.8-6.3
		l-2.5,5.6h8l6.5-14.6c3.7-8.3,7.3-13.2,10.7-13.2c0.6,0,1.1,0.4,1.1,1v0.2c0,1.4-2,5.2-3.8,9c-1.7,3.5-2.9,6.1-3.8,8.2
		c-0.8,1.7-1.3,3.6-1.4,5.5c0,2.5,1.4,4.5,4.5,4.5c4.7,0,9.4-4.5,11.9-7.9c-0.6,1.7-0.9,3.3-0.9,5.1c0,4.7,2.8,7,6.7,7
		c2.6,0,5.1-0.9,7.3-2.4c3.1-2.1,5.5-5.3,7.6-8.2l-1.4-1.3c-1.9,2.7-4.1,5.3-6.3,6.9c-1.2,1-2.6,1.5-4.1,1.6c-1.7,0-2.7-0.9-2.7-3
		c0-2.1,1-5,2.5-8.9c0.1-0.1,2.3-5,4.3-9.7c1.7-4,3.5-7.9,3.8-8.7h5.3l1.1-2.4h-5.2L432.5,360.6z M205.5,399c-1.1,0-1.9-0.4-1.9-1.9
		c0.1-3.9,3.3-10.9,7.4-16.5c2.9-3.9,6.6-6.7,10.6-6.7l-5.1,11.3C212.7,393.7,208.6,399,205.5,399 M255.3,399c-1.1,0-1.9-0.4-2-1.9
		c0.1-3.9,3.3-10.9,7.4-16.5c2.9-3.9,6.6-6.7,10.6-6.7l-5.1,11.3C262.4,393.9,258.4,399,255.3,399 M343.7,377
		c-0.2,4.3-4,14.8-8.4,21c-1.8,2.5-3.3,3.3-4.7,3.3c-1.9,0-2.4-1.5-2.1-3.8c0.4-3.9,3.7-13.1,8.2-19.4c2.1-2.9,3.5-4.1,5.1-4.1
		C343.3,374,343.8,375.3,343.7,377"/>
	<polygon class="st0" points="467.9,371.8 475.2,354.9 466.6,354.9 459.2,371.8 440.8,371.8 437.7,378.9 456.2,378.9 448.8,395.9 
		457.5,395.9 464.8,378.9 483.3,378.9 486.4,371.8 	"/>
</g>
</svg>
