<?xml version="1.0" encoding="utf-8"?>
<!-- Generator: Adobe Illustrator 25.2.1, SVG Export Plug-In . SVG Version: 6.00 Build 0)  -->
<svg version="1.1" id="Layer_1" xmlns="http://www.w3.org/2000/svg" xmlns:xlink="http://www.w3.org/1999/xlink" x="0px" y="0px"
	 viewBox="0 0 610 610" style="enable-background:new 0 0 610 610;" xml:space="preserve">
<style type="text/css">
	.st0{fill:#FFFFFF;}
</style>
<g>
	<path class="st0" d="M341.9,416.6c-0.1,0-0.2,0-0.3,0c-1,0-1.6-0.4-2-1.3c-0.5-1.3-1.1-2.6-1.7-4c-2.4-5.7-4.8-11.5-7.1-17.2
		c-1.5-3.7-3.2-7.3-5.1-10.8c-0.9-1.7-1.7-3.5-2.3-5.3c-0.2-0.7-0.5-1.3-0.9-1.9c-0.6-1.1-1.5-2-2.8-2.2c-1.5-0.3-2.5-1.2-3.2-2.5
		c-0.5-0.9-1-1.8-1.6-2.6c-0.5-0.7-0.7-1.5-0.9-2.2c-0.7-2.5-1.2-5.1-1.8-7.7c-0.4-1.8-0.8-3.6-1.3-5.4c-0.2-1-0.5-1.9-0.8-2.8
		c-0.2-0.8-0.1-1.5,0.2-2.2c0-0.1,0.1-0.2,0.2-0.3c1.1-1.7,1.1-3.7,0.7-5.6c-0.2-1-0.5-1.9-0.8-2.8c-0.7-2.2-1.4-4.3-2.1-6.5
		c-0.3-0.8-0.4-1.6-0.6-2.4c0-0.2,0-0.3,0-0.5c0-0.2,0.3-0.3,0.4-0.2c0.1,0.1,0.2,0.2,0.3,0.3c0.2,0.3,0.5,0.6,0.7,1
		c1.1,2,2.2,3.9,3.4,5.8c1,1.6,1.9,3.3,2.8,4.9c2.3,3.9,4.5,7.8,6.8,11.6c1.3,2,2.4,4.1,3.5,6.1c1.7,3.3,3.4,6.5,5.1,9.8
		c0.5,1,0.9,2,1.2,3.1c0.3,1,0.2,2-0.4,2.9c-0.1,0.1-0.1,0.2-0.2,0.3c-0.5,0.7-0.5,1.5-0.2,2.3c0.3,0.8,0.6,1.6,0.8,2.4
		c0.1,0.3,0.2,0.7,0.3,1c0.8,2.9,1.9,5.7,2.8,8.6c0.3,0.7,0.7,1.4,1.2,2c1.8,2.1,3.1,4.4,3.8,7.1c0.2,1,0.2,1.8-0.5,2.5
		c-0.6,0.6-0.5,1.3-0.3,2c0.1,0.6,0.4,1.3,0.5,1.9c0.9,3.2,2,6.4,3.3,9.4c0.1,0.2,0.2,0.4,0.2,0.6c0.2,0.6,0,0.9-0.6,1
		C342.5,416.7,342.2,416.6,341.9,416.6L341.9,416.6L341.9,416.6z"/>
	<path class="st0" d="M379.1,410.4c-0.1,0.1-0.1,0.2-0.2,0.2c-0.1,0-0.2,0.1-0.3,0c-0.2-0.2-0.5-0.4-0.7-0.6
		c-0.8-1.1-1.6-2.1-2.4-3.2c-0.9-1.3-1.7-2.5-2.7-3.7c-0.3-0.3-0.6-0.6-0.9-0.9c-1.5-1.5-3.1-3.1-4.6-4.6c-1.6-1.6-3.1-3.2-4.4-4.9
		c-1.1-1.3-2.3-2.5-3.6-3.5c-0.8-0.6-1.7-1.2-2.8-1.1c-0.5,0-0.8-0.2-1.1-0.5c-0.3-0.3-0.6-0.7-0.8-1.1c-1.3-2.2-3.1-3.9-5-5.6
		c-0.8-0.7-1.6-1.5-2.4-2.2c-0.5-0.5-0.8-1-1.1-1.6c-1.4-3.1-3.1-6-4.7-9c-1.3-2.4-2.6-4.9-3.9-7.4c-0.1-0.2-0.2-0.4-0.3-0.6
		c-1.3-3.7-3.3-7-5.4-10.3c-0.7-1.1-1.3-2.2-2-3.3c-0.1-0.3-0.2-0.6-0.3-0.9c0-0.2,0.2-0.3,0.4-0.2c0.1,0.1,0.3,0.2,0.4,0.3
		c0.5,0.6,1.1,1.2,1.6,1.8c1.3,1.5,2.5,3,3.8,4.4c1.7,1.8,3.3,3.6,5.2,5.2c1.7,1.5,3.2,3.3,4.6,5.1c0.5,0.7,1,1.3,1.6,1.9
		c0.5,0.5,0.8,1.2,1,1.8c0.4,1,0.7,2,0.6,3.1c0,0.9,0.3,1.6,0.9,2.2c0.7,0.7,1.5,1.5,2.3,2.2c2.7,2.1,5.2,4.4,7.7,6.7
		c1,0.9,2,1.8,3.1,2.7c0.7,0.6,1.2,1.3,1.4,2.3c0.1,0.7,0.4,1.3,0.8,1.8c1.2,1.5,2.1,3.1,3.1,4.7c1,1.6,2,3.2,3,4.7
		c0.9,1.5,1.8,2.9,2.7,4.4c0,0,0,0.1,0.1,0.1c0.6,1.5,1.5,2.8,2.5,4.1c1,1.5,1.9,3.1,2.6,4.8C379,410,379.1,410.2,379.1,410.4"/>
	<path class="st0" d="M278.1,354.1c0.4,0.1,0.5,0.3,0.5,0.6c-0.1,0.5-0.2,1-0.4,1.4c-0.4,1-0.9,2.1-1.3,3.1
		c-0.4,0.9-0.7,1.8-1.1,2.6c-0.7,2-1.1,4-1.2,6.1c0,0.9,0.1,1.9,0.2,2.8c0,0.4,0.1,0.8,0.1,1.2c0.1,0.9-0.2,1.6-0.6,2.4
		c-2,3.4-4,6.8-6,10.2c-0.2,0.4-0.5,0.8-0.7,1.2c-0.5,0.7-1.1,1.3-1.9,1.6c-0.6,0.2-1.1,0.7-1.3,1.3c-0.9,2-2.3,3.6-3.8,5.3
		c-0.4,0.4-0.9,0.8-1.3,1.3c-0.7,0.7-1.1,1.5-1.1,2.5c0,0.4-0.1,0.8-0.2,1.2c-0.2,0.8-0.5,1.5-1.2,2c-1.5,1.1-2.6,2.7-3.7,4.1
		c-0.5,0.7-1,1.4-1.5,2c-0.1,0.2-0.3,0.4-0.5,0.6c-0.3,0.3-0.6,0.5-0.7,0.3c-0.2-0.2,0-0.5,0-0.7c0.2-0.8,0.5-1.5,0.9-2.2
		c1.3-2.6,2.5-5.2,3.7-7.8c0.3-0.6,0.4-1.3,0.4-1.9c0.1-1.1,0.3-2.2,0.6-3.3c0.3-0.9,0.6-1.8,1-2.7c0.4-1,0.7-2,1.2-3
		c0.3-0.6,0.6-1.2,1-1.9c0.2-0.5,0.5-0.9,0.8-1.4c0.1-0.2,0.2-0.4,0.3-0.7c0.1-0.4,0-0.7-0.3-0.9c-0.2-0.1-0.5-0.2-0.6-0.5
		c-0.1-0.4,0-0.7,0.2-1c0.2-0.5,0.5-1,0.7-1.4c0.9-1.5,1.8-3.1,2.8-4.6c1.4-2.1,2.6-4.3,3.8-6.4c0.6-1,1.1-2,1.9-2.9
		c0.6-0.7,1.3-1.3,2.2-1.8c0.5-0.3,0.9-0.6,1.3-1.1c1.2-1.6,2.3-3.2,3.5-4.8c0.6-0.8,1.3-1.7,1.9-2.5
		C277.7,354.4,278,354.3,278.1,354.1"/>
	<path class="st0" d="M285.9,213c0-0.2,0-0.4,0-0.5c0.4-2,0.9-4,1.3-5.9c0-0.2,0.1-0.4,0.1-0.6c0-0.3-0.1-0.6-0.3-0.7
		c-0.3-0.2-0.6-0.4-0.9-0.5c-1.6-0.9-3.2-1.9-4.8-2.8c-0.2-0.1-0.5-0.3-0.5-0.7c0.2,0,0.4-0.1,0.7-0.2c2-0.2,3.9-0.3,5.9-0.5
		c0.2,0,0.4,0,0.5,0c0.4-0.1,0.7-0.3,0.7-0.6c0.1-0.6,0.3-1.2,0.4-1.9c0.3-1.4,0.5-2.9,0.8-4.3c0-0.1,0.1-0.2,0.1-0.2
		c0.3,0,0.4,0.2,0.4,0.4c0.8,1.7,1.6,3.4,2.3,5.2c0.4,1,0.4,1,1.5,0.9c1.4-0.1,2.7-0.2,4.1-0.4c0.6-0.1,1.3-0.1,1.9-0.2
		c0.1,0,0.2,0.1,0.4,0.1c-0.1,0.1-0.1,0.3-0.1,0.3c-1,1-2,2-3.1,3c-0.5,0.5-1,1-1.5,1.5c-0.3,0.3-0.4,0.6-0.2,1
		c0.1,0.2,0.2,0.5,0.3,0.7c0.8,1.8,1.6,3.5,2.3,5.3c0.1,0.2,0,0.4,0.1,0.7c-0.3-0.1-0.5-0.2-0.6-0.3c-1.7-1.1-3.5-2.1-5.2-3.2
		c-0.1-0.1-0.2-0.2-0.4-0.2c-0.2-0.1-0.4-0.1-0.6,0.1c-0.1,0.1-0.3,0.2-0.4,0.4c-1.5,1.3-3,2.7-4.6,4
		C286.4,212.7,286.2,212.8,285.9,213"/>
	<path class="st0" d="M205.6,260.4c-0.1-0.2-0.3-0.4-0.4-0.6c-1-1.5-1.9-3-2.9-4.5c-0.1-0.2-0.3-0.4-0.4-0.6c-0.2-0.4-0.5-0.5-1-0.3
		c-1.8,0.4-3.5,0.8-5.3,1.2c-0.4,0.1-0.9,0.2-1.3,0.2c-0.2-0.2-0.1-0.4,0-0.5c1.3-1.6,2.6-3.2,3.9-4.8c0-0.1,0.1-0.1,0.1-0.2
		c0.3-0.3,0.3-0.6,0.1-0.9c-0.7-1.1-1.4-2.2-2-3.3c-0.5-0.8-0.9-1.6-1.4-2.3c-0.1-0.1-0.1-0.2-0.1-0.4c0.2,0,0.4-0.1,0.5,0
		c1.3,0.6,2.6,1.1,3.8,1.7c0.6,0.3,1.3,0.6,1.9,0.9c0.7,0.3,0.8,0.3,1.3-0.3c0.6-0.7,1.2-1.4,1.7-2.1c0.7-0.8,1.3-1.6,2-2.5
		c0.1-0.1,0.2-0.2,0.5-0.4c0.1,0.2,0.2,0.4,0.2,0.5c-0.1,1.8-0.1,3.6-0.2,5.4c0,0.5,0,1,0,1.5c0.4,0.2,0.8,0.4,1.1,0.5
		c1.8,0.7,3.6,1.4,5.4,2.1c0.2,0.1,0.5,0.1,0.5,0.5c-1.2,0.4-2.5,0.6-3.7,1c-1.2,0.3-2.5,0.5-3.7,1c-0.3,2.4-0.2,4.8-0.5,7.2
		C205.8,260.4,205.7,260.4,205.6,260.4"/>
	<path class="st0" d="M275.2,215.6c-0.3,0-0.4,0-0.6-0.1c-2-0.7-3.9-1.5-5.9-2.2c-0.2-0.1-0.3-0.1-0.5-0.2c-0.3-0.1-0.5,0-0.7,0.3
		c-0.2,0.3-0.5,0.7-0.7,1c-1,1.4-2,2.9-3.1,4.3c-0.1,0.1-0.2,0.2-0.3,0.3c-0.3-0.1-0.3-0.3-0.3-0.4c0-2,0-3.9,0-5.9
		c0-1.1,0-1.1-1.1-1.5c-1.7-0.7-3.5-1.3-5.2-2c-0.2-0.1-0.4-0.2-0.6-0.3c0-0.4,0.4-0.4,0.6-0.5c1.6-0.5,3.3-0.9,5-1.4
		c1.4-0.4,1.3-0.4,1.3-1.8c0-1.9,0-3.9,0-5.8c0-0.2-0.1-0.5,0.3-0.7c0.2,0.2,0.4,0.4,0.5,0.6c1,1.6,2.1,3.2,3.1,4.8
		c0.1,0.1,0.1,0.2,0.2,0.3c0.5,0.8,0.6,0.8,1.6,0.5c1.9-0.6,3.7-1.2,5.6-1.9c0.1-0.1,0.3,0,0.6-0.1c-0.2,0.3-0.3,0.5-0.4,0.6
		c-1.1,1.5-2.1,3-3.2,4.4c-0.2,0.2-0.3,0.5-0.5,0.7c-0.2,0.3-0.2,0.5,0,0.8c0.2,0.3,0.4,0.6,0.6,0.9c1.1,1.6,2.3,3.2,3.4,4.8
		C275,215.2,275.1,215.4,275.2,215.6"/>
	<path class="st0" d="M388.7,244c-0.2-0.5-0.3-0.8-0.3-1.1c-0.4-1.7-0.8-3.4-1.2-5.1c0-0.1,0-0.1,0-0.2c-0.1-0.5-0.4-0.8-0.9-0.8
		c-0.7-0.1-1.4-0.1-2.1-0.2c-1.3-0.1-2.5-0.2-3.8-0.3c-0.3,0-0.6,0-0.8-0.3c0.1-0.1,0.2-0.2,0.3-0.3c1.7-1,3.3-1.9,5-2.9
		c0.1-0.1,0.2-0.1,0.3-0.2c0.7-0.4,0.7-0.5,0.5-1.3c-0.4-2-0.9-3.9-1.3-5.8c-0.1-0.2-0.1-0.5-0.1-0.7c0.4-0.1,0.6,0.2,0.9,0.4
		c1.4,1.2,2.8,2.3,4.2,3.5c0.1,0.1,0.2,0.2,0.3,0.3c0.3,0.3,0.6,0.3,1,0.1c0.2-0.1,0.3-0.2,0.4-0.3c1.7-1,3.3-1.9,5-2.9
		c0.1-0.1,0.3-0.1,0.6-0.2c-0.4,1.2-1,2.3-1.4,3.4c-0.5,1.1-1,2.2-1.5,3.3c0.1,0.2,0.2,0.4,0.4,0.5c1.6,1.5,3.3,2.9,4.9,4.4
		c0.1,0.1,0.1,0.2,0.2,0.2c0,0.3-0.2,0.2-0.4,0.2c-1.5-0.1-3.1-0.3-4.6-0.4c-0.7-0.1-1.3-0.1-2-0.1c-0.4,0-0.6,0.1-0.7,0.5
		c-0.3,0.7-0.7,1.5-1,2.2c-0.5,1.1-1,2.3-1.5,3.5C389,243.6,388.9,243.7,388.7,244"/>
	<path class="st0" d="M226.4,224.4c0.2,0.3,0.1,0.6,0,0.9c-0.4,1.8-0.9,3.7-1.3,5.5c-0.1,0.6-0.1,0.7,0.4,1c1.7,1.1,3.5,2.2,5.2,3.4
		c0.2,0.1,0.3,0.2,0.6,0.4c-0.2,0.1-0.4,0.2-0.5,0.3c-1.6,0.2-3.3,0.3-4.9,0.5c-0.5,0.1-1,0.1-1.6,0.2c-0.3,0-0.5,0.2-0.6,0.5
		c-0.2,0.6-0.3,1.3-0.5,1.9c-0.3,1.3-0.6,2.6-0.9,3.9c0,0.2-0.1,0.4-0.2,0.5c-0.3,0-0.4-0.2-0.5-0.4c-0.7-1.6-1.4-3.3-2.2-4.9
		c-0.1-0.2-0.1-0.3-0.2-0.5c-0.2-0.5-0.6-0.7-1.1-0.7c-1.6,0.1-3.2,0.2-4.8,0.2c-0.6,0-1.2,0.1-1.7,0c-0.2-0.3,0.1-0.4,0.2-0.6
		c1.5-1.2,3-2.4,4.5-3.6c0.1-0.1,0.2-0.2,0.3-0.3c0.5-0.4,0.5-0.6,0.3-1.2c-0.8-1.8-1.6-3.6-2.4-5.4c-0.1-0.2-0.3-0.4-0.1-0.7
		c0.2,0.1,0.4,0.1,0.5,0.2c1.6,0.9,3.1,1.8,4.7,2.8c1,0.6,1.1,0.6,2-0.2c1.4-1.2,2.8-2.3,4.2-3.5
		C226.1,224.6,226.2,224.5,226.4,224.4"/>
	<path class="st0" d="M404.6,261.3c0-0.6-0.1-0.9-0.1-1.3c-0.1-1.8-0.2-3.5-0.2-5.3c0-0.1,0-0.3,0-0.4c0-0.3-0.2-0.5-0.4-0.5
		c-0.2-0.1-0.5-0.2-0.7-0.2c-1.8-0.4-3.7-0.9-5.5-1.3c-0.1,0-0.2-0.1-0.4-0.2c0.1-0.4,0.4-0.4,0.7-0.5c1.5-0.6,3.1-1.2,4.6-1.8
		c0.3-0.1,0.6-0.3,1-0.4c0.3-0.1,0.4-0.4,0.4-0.7c0-0.6,0-1.1-0.1-1.7c-0.1-1.2-0.1-2.4-0.2-3.6c0-0.5-0.1-1-0.1-1.5
		c0-0.2,0.1-0.3,0.1-0.6c0.2,0.1,0.3,0.2,0.4,0.3c1.2,1.4,2.3,2.8,3.5,4.2c1,1.2,0.8,1.3,2.3,0.6c1.8-0.8,3.6-1.4,5.4-2.1
		c0.1,0,0.3,0,0.4,0c0.2,0.3,0,0.4-0.1,0.6c-1.1,1.6-2.2,3.3-3.3,4.9c-0.2,0.2-0.3,0.5-0.5,0.8c0.2,0.2,0.3,0.5,0.5,0.7
		c1.4,1.7,2.8,3.4,4.1,5c0.1,0.2,0.2,0.3,0.4,0.6c-0.3,0-0.4,0.1-0.6,0c-2-0.5-4.1-1.1-6.1-1.6c-0.1,0-0.2-0.1-0.3-0.1
		c-0.9-0.2-0.9-0.2-1.4,0.5c-0.7,1.2-1.5,2.3-2.2,3.5c-0.4,0.6-0.7,1.1-1.1,1.7C405,261,404.9,261.1,404.6,261.3"/>
	<path class="st0" d="M358.5,223.7c0.7-0.6,1.1-1.1,1.6-1.5c1.1-1,2.3-2,3.4-3c0.1-0.1,0.2-0.1,0.2-0.2c0.5-0.5,0.5-0.6,0.2-1.2
		c-0.8-1.8-1.6-3.5-2.4-5.3c-0.1-0.2-0.2-0.4-0.3-0.6c0.2-0.3,0.4-0.2,0.6,0c1.6,0.9,3.2,1.8,4.7,2.8c1.1,0.6,1.2,0.7,2.1-0.2
		c1.3-1.3,2.6-2.5,3.9-3.7c0.1-0.1,0.3-0.3,0.5-0.3c0.2,0.3,0.1,0.6,0,0.9c-0.3,1.6-0.6,3.2-0.9,4.9c0,0.2-0.1,0.5-0.1,0.7
		c-0.1,0.3,0,0.6,0.3,0.7c0.4,0.3,0.8,0.5,1.1,0.8c1.5,0.9,3,1.9,4.4,2.8c0.2,0.1,0.4,0.2,0.3,0.5c0,0-0.1,0.1-0.1,0.1
		c-0.6,0.1-1.2,0.2-1.9,0.2c-1.5,0.1-3.1,0.3-4.6,0.4c-0.6,0.1-0.8,0.2-0.9,0.8c-0.3,1.3-0.6,2.5-0.8,3.8c-0.2,0.7-0.3,1.4-0.5,2.2
		c-0.1,0.2-0.1,0.5-0.3,0.6c-0.3,0-0.3-0.3-0.4-0.4c-0.8-1.7-1.5-3.4-2.3-5.1c-0.1-0.2-0.1-0.3-0.2-0.5c-0.2-0.4-0.4-0.5-0.8-0.5
		c-1.5,0.1-3,0.3-4.5,0.4C360.2,223.7,359.5,223.8,358.5,223.7"/>
	<path class="st0" d="M416.9,397.7c0.2-0.2,0.4-0.3,0.5-0.4c1.5-0.9,3-1.7,4.5-2.6c0.3-0.2,0.5-0.3,0.8-0.5c0.4-0.2,0.5-0.6,0.4-1.1
		c-0.2-1.1-0.4-2.3-0.6-3.4c-0.2-0.9-0.3-1.8-0.5-2.7c0-0.2,0-0.4,0-0.6c0.3-0.1,0.5,0.1,0.6,0.3c1.4,1.3,2.7,2.6,4.1,3.9
		c0.1,0.1,0.2,0.2,0.3,0.3c0.3,0.3,0.7,0.4,1,0.1c0.6-0.3,1.2-0.7,1.9-1c1.4-0.7,2.7-1.5,4.1-2.2c0.1,0,0.2,0,0.3-0.1
		c0.2,0.2,0.1,0.3,0,0.5c-0.5,1-1.1,2.1-1.6,3.1c-0.5,1-1,2-1.5,3c0,0.4,0.3,0.7,0.5,0.9c1.4,1.4,2.8,2.8,4.2,4.2
		c0.2,0.2,0.3,0.4,0.6,0.6c-0.2,0.1-0.3,0.2-0.4,0.2c-1.4-0.2-2.7-0.3-4.1-0.5c-0.8-0.1-1.6-0.2-2.4-0.3c-0.5-0.1-0.7,0.1-0.9,0.5
		c-0.4,0.9-0.8,1.8-1.2,2.7c-0.4,1-0.9,1.9-1.3,2.9c-0.1,0.2-0.2,0.3-0.3,0.4c-0.3,0-0.3-0.2-0.3-0.3c-0.4-2-0.7-3.9-1.1-5.9
		c-0.1-0.7-0.3-0.8-1.1-0.9c-2.1-0.3-4.2-0.6-6.3-0.9C417,397.8,417,397.8,416.9,397.7"/>
	<path class="st0" d="M162.5,317.1c0.5-0.1,0.9-0.2,1.4-0.2c1.6-0.2,3.2-0.5,4.8-0.7c0,0,0.1,0,0.1,0c0.4,0,0.6-0.3,0.7-0.7
		c0.1-0.8,0.2-1.7,0.3-2.5c0.2-1.6,0.5-3.1,0.7-4.8c0.2,0.2,0.4,0.2,0.5,0.4c0.3,0.6,0.6,1.2,0.9,1.8c0.7,1.3,1.3,2.6,2,4
		c0.1,0.2,0.2,0.4,0.3,0.7c0.2,0.3,0.4,0.4,0.7,0.3c0.1,0,0.3-0.1,0.4-0.1c2-0.4,3.9-0.7,5.9-1.1c0.1,0,0.3,0,0.5,0
		c-0.1,0.2-0.1,0.3-0.1,0.4c-0.3,0.3-0.6,0.6-0.9,0.9c-1.1,1.1-2.1,2.1-3.2,3.2c-0.1,0.1-0.3,0.3-0.4,0.4c-0.5,0.5-0.5,0.6-0.2,1.2
		c0.4,0.8,0.9,1.7,1.4,2.5c0.6,1,1.1,2,1.7,3c0.1,0.2,0.2,0.3,0.1,0.6c-0.2-0.1-0.3-0.1-0.5-0.2c-1.8-1-3.7-1.9-5.5-2.9
		c-0.1-0.1-0.2-0.1-0.4-0.2c-0.3-0.1-0.5-0.1-0.8,0.1c-0.6,0.6-1.2,1.2-1.9,1.9c-0.9,0.9-1.9,1.9-2.8,2.8c-0.1,0.1-0.3,0.2-0.5,0.4
		c0-0.3,0-0.5,0-0.7c0.2-1.6,0.4-3.2,0.6-4.8c0.1-0.4,0.1-0.8,0.2-1.2c0.1-0.8,0-1-0.7-1.3c-1.6-0.8-3.2-1.7-4.7-2.5
		C162.9,317.6,162.6,317.5,162.5,317.1"/>
	<path class="st0" d="M318.6,193.3c0.3,0.2,0.3,0.5,0.4,0.7c0.4,1.9,0.8,3.8,1.3,5.6c0,0.2,0.1,0.3,0.1,0.5c0.1,0.3,0.3,0.5,0.6,0.5
		c0.3,0,0.6,0.1,0.9,0.1c1.9,0.2,3.8,0.4,5.6,0.7c0.1,0,0.1,0.1,0.2,0.1c0,0.2-0.2,0.3-0.3,0.4c-1.9,1-3.7,2.1-5.6,3.1
		c-0.1,0.1-0.3,0.2-0.4,0.3c-0.2,0.5,0,0.9,0.1,1.3c0.4,1.9,0.9,3.8,1.3,5.7c0,0.1,0,0.3,0,0.5c-0.2-0.1-0.4-0.1-0.5-0.2
		c-1.4-1.3-2.7-2.6-4-3.8c-0.1-0.1-0.2-0.2-0.3-0.3c-0.7-0.6-0.8-0.5-1.4-0.1c-1.8,1.1-3.5,2.3-5.3,3.4c-0.1,0.1-0.3,0.1-0.4,0.2
		c-0.2-0.3,0-0.5,0.1-0.7c0.8-1.9,1.6-3.7,2.5-5.6c0-0.1,0.1-0.2,0.1-0.3c0.2-0.6,0.2-0.7-0.2-1.1c-0.3-0.3-0.7-0.6-1-0.9
		c-1.3-1.2-2.5-2.3-3.8-3.5c-0.1-0.1-0.2-0.2-0.3-0.4c0.2-0.1,0.4-0.1,0.5-0.1c2,0.2,4,0.4,6.1,0.6c0.6,0.1,0.9-0.1,1.2-0.6
		c0.4-0.8,0.7-1.6,1.1-2.4c0.5-1.1,0.9-2.1,1.4-3.2C318.3,193.6,318.4,193.4,318.6,193.3"/>
	<path class="st0" d="M443.1,337.1c0,2.6-0.4,5-0.5,7.5c0.2,0.1,0.4,0.3,0.6,0.4c1.8,0.7,3.7,1.4,5.5,2.1c0.2,0.1,0.5,0.1,0.5,0.5
		c-0.1,0.1-0.3,0.1-0.4,0.2c-1.9,0.6-3.8,1.1-5.6,1.7c-1,0.3-1.1,0.4-1.2,1.4c-0.1,1.2-0.2,2.3-0.3,3.5c-0.1,0.7-0.1,1.4-0.2,2.1
		c0,0.2-0.1,0.5-0.2,0.8c-0.2-0.2-0.4-0.4-0.5-0.5c-0.9-1.5-1.7-3-2.6-4.5c-0.3-0.5-0.4-1.1-1-1.3c-0.5-0.2-1,0.2-1.5,0.3
		c-1.7,0.4-3.4,0.8-5.1,1.2c-0.2,0.1-0.5,0.2-0.7-0.1c0-0.1,0.1-0.2,0.1-0.3c1.4-1.6,2.8-3.2,4.2-4.8c0,0,0-0.1,0.1-0.1
		c0.4-0.4,0.5-0.8,0.2-1.3c-0.2-0.3-0.4-0.7-0.6-1c-0.8-1.4-1.6-2.7-2.4-4.1c-0.1-0.2-0.2-0.4-0.3-0.6c0.2-0.2,0.4-0.1,0.6,0
		c1.9,0.8,3.8,1.5,5.7,2.3c0.1,0.1,0.3,0.1,0.4,0.1c0.4-0.1,0.6-0.4,0.8-0.7c1.1-1.3,2.1-2.5,3.2-3.8
		C442.4,337.8,442.5,337.4,443.1,337.1"/>
	<path class="st0" d="M193.3,397.5c-2.6,0.4-4.9,0.7-7.3,1c-0.3,0.4-0.4,0.7-0.5,1.1c-0.3,1.7-0.6,3.3-0.9,5
		c-0.1,0.4-0.1,0.9-0.4,1.4c-0.1-0.2-0.3-0.3-0.3-0.4c-0.9-1.8-1.7-3.5-2.6-5.3c-0.1-0.1-0.1-0.2-0.2-0.4c-0.2-0.5-0.5-0.7-1.1-0.6
		c-1.3,0.2-2.6,0.3-3.9,0.4c-0.8,0.1-1.5,0.1-2.3,0.1c-0.2-0.3,0.1-0.4,0.2-0.5c1.4-1.3,2.8-2.5,4.3-3.8c0.1-0.1,0.3-0.2,0.4-0.4
		c0.2-0.2,0.2-0.4,0.1-0.6c-0.1-0.2-0.2-0.3-0.2-0.5c-0.9-1.9-1.9-3.8-2.8-5.8c-0.1-0.1-0.1-0.3-0.1-0.6c0.3,0.1,0.5,0.2,0.7,0.3
		c1.8,1,3.7,1.9,5.5,2.9c0.1,0.1,0.2,0.1,0.3,0.2c0.3,0.2,0.6,0.1,0.9-0.1c0.1-0.1,0.3-0.2,0.4-0.4c1.4-1.4,2.8-2.7,4.3-4.1
		c0.1-0.1,0.2-0.1,0.4-0.2c0,0.3,0,0.6,0,0.8c-0.1,0.8-0.3,1.6-0.4,2.4c-0.2,1.2-0.5,2.5-0.7,3.7c-0.1,0.5-0.1,0.6,0.4,0.9
		c0.3,0.2,0.6,0.3,0.9,0.5c1.6,0.8,3.2,1.7,4.7,2.5C193.1,397.1,193.1,397.2,193.3,397.5"/>
	<path class="st0" d="M429.9,329.1c0.1-0.4,0.1-0.6,0.2-0.7c1-1.6,2-3.3,3.1-4.9c0.1-0.1,0.1-0.2,0.2-0.3c0.5-0.9,0.6-1-0.1-1.8
		c-1.3-1.5-2.6-3-3.8-4.5c-0.1-0.2-0.4-0.3-0.2-0.7c0.1,0,0.2,0,0.4,0.1c2,0.5,4,0.9,6.1,1.4c0.8,0.2,0.9,0.2,1.3-0.5
		c0.9-1.6,1.9-3.3,2.8-4.9c0.1-0.2,0.2-0.4,0.3-0.5c0-0.1,0.2-0.1,0.3-0.2c0,0.2,0.1,0.3,0.1,0.4c0.2,2.1,0.3,4.1,0.5,6.2
		c0.1,0.7,0.1,0.8,0.9,1c1.8,0.4,3.6,0.9,5.4,1.3c0.2,0.1,0.5,0.1,0.8,0.2c-0.1,0.2-0.2,0.4-0.3,0.5c-0.2,0.1-0.4,0.2-0.6,0.3
		c-1.4,0.7-2.9,1.3-4.3,2c-0.4,0.2-0.8,0.4-1.2,0.6c-0.1,1,0,1.9,0.1,2.8c0.1,1.4,0.2,2.9,0.4,4.3c0,0.1-0.1,0.2-0.1,0.3
		c-0.3,0.1-0.3-0.1-0.4-0.2c-1.2-1.5-2.4-3-3.7-4.5c-0.2-0.3-0.4-0.6-0.8-0.7C434.8,326.9,432.5,327.9,429.9,329.1"/>
	<path class="st0" d="M193.1,280.8c-0.2-0.1-0.3-0.1-0.4-0.2c-1.3-1.4-2.7-2.9-4-4.3c-0.7-0.8-0.8-0.8-1.8-0.3
		c-1.8,0.8-3.7,1.6-5.5,2.3c-0.2,0.1-0.4,0.1-0.7,0.1c1.3-2.2,2.5-4.3,3.6-6.3c-0.1-0.5-0.5-0.8-0.7-1.1c-1.3-1.4-2.5-2.7-3.8-4.1
		c-0.1-0.1-0.2-0.3-0.3-0.4c0-0.2,0.2-0.3,0.3-0.2c1.5,0.3,3,0.6,4.5,0.9c0.6,0.1,1.1,0.2,1.7,0.3c0.4,0.1,0.6-0.1,0.8-0.4
		c0.5-0.8,0.9-1.6,1.4-2.4c0.6-1.1,1.2-2.1,1.8-3.2c0.1-0.1,0.2-0.2,0.4-0.4c0.1,0.3,0.2,0.6,0.2,0.8c0.2,1.8,0.5,3.6,0.7,5.4
		c0,0,0,0.1,0,0.1c0.2,1.2,0.2,1.2,1.3,1.4c1.9,0.4,3.7,0.7,5.6,1.1c0.2,0,0.4,0.1,0.6,0.1c0.1,0.3-0.1,0.4-0.3,0.5
		c-1.8,0.8-3.5,1.6-5.3,2.4c-0.1,0.1-0.3,0.1-0.4,0.2c-0.5,0.2-0.6,0.3-0.5,0.9c0.2,1.9,0.5,3.8,0.8,5.7
		C193.2,280.1,193.3,280.4,193.1,280.8"/>
	<path class="st0" d="M179.8,351c-0.3,0-0.5,0-0.6-0.1c-2-0.7-4.1-1.4-6.1-2c-0.1,0-0.2-0.1-0.3-0.1c-0.4-0.1-0.7-0.1-0.9,0.3
		c-0.2,0.2-0.3,0.4-0.5,0.7c-0.9,1.3-1.9,2.6-2.8,3.9c-0.2,0.3-0.5,0.6-0.7,0.9c-0.4-0.1-0.3-0.4-0.3-0.6c0-1.9,0-3.7,0-5.6
		c0-0.4,0.1-0.8-0.2-1.2c-2.2-0.7-4.5-1.2-6.7-2c0-0.4,0.4-0.4,0.6-0.5c1.6-0.5,3.1-1,4.7-1.6c0.3-0.1,0.7-0.2,1-0.4
		c0.4-0.1,0.5-0.4,0.5-0.8c0-1.1-0.1-2.2-0.1-3.3c0-1.1-0.1-2.2-0.2-3.3c0-0.1,0-0.2,0.1-0.4c0.1,0.1,0.3,0.1,0.4,0.2
		c0.8,1,1.7,2.1,2.5,3.1c0.5,0.6,1.1,1.3,1.6,2c0.3,0.3,0.6,0.4,0.9,0.3c0.3-0.1,0.7-0.2,1-0.3c1.7-0.6,3.4-1.2,5.2-1.8
		c0.1,0,0.2,0,0.4,0c-0.1,0.2-0.2,0.4-0.3,0.6c-1.1,1.5-2.2,3-3.2,4.5c-0.1,0.2-0.3,0.4-0.4,0.6c-0.2,0.3-0.2,0.5,0,0.8
		c0.2,0.3,0.4,0.5,0.6,0.8c1.2,1.5,2.4,3.1,3.5,4.6C179.6,350.5,179.6,350.7,179.8,351"/>
	<path class="st0" d="M178.8,370.1c0.1,0.5,0.4,0.7,0.7,0.9c1.5,1.2,3,2.5,4.4,3.7c0.2,0.1,0.4,0.2,0.3,0.6
		c-2.4-0.1-4.8-0.4-7.2-0.6c-0.2,0.4-0.4,0.8-0.6,1.1c-0.8,1.6-1.6,3.3-2.4,4.9c-0.1,0.2-0.3,0.5-0.4,0.6c-0.3,0-0.3-0.2-0.3-0.3
		c-0.4-2-0.7-3.9-1.1-5.9c-0.2-1.1-0.1-1.3-1.6-1.3c-0.5,0-1-0.1-1.5-0.1c-1.2-0.1-2.3-0.2-3.5-0.3c-0.3,0-0.7,0-1.1-0.3
		c0.1-0.1,0.3-0.3,0.4-0.4c1.6-0.9,3.2-1.9,4.8-2.8c1.1-0.6,1.1-0.6,0.8-1.8c-0.3-1.8-0.7-3.7-1-5.5c0-0.1,0-0.3,0-0.4
		c0.3-0.1,0.4,0.1,0.6,0.2c1.3,1.2,2.6,2.3,4,3.5c0.2,0.1,0.3,0.3,0.5,0.4c0.4,0.4,0.7,0.4,1.2,0.2c1.8-1,3.7-1.9,5.5-2.8
		c0.1-0.1,0.3-0.1,0.6-0.2c-0.2,0.9-0.7,1.6-1,2.3c-0.3,0.8-0.7,1.5-1.1,2.3C179.4,368.8,179.1,369.5,178.8,370.1"/>
	<path class="st0" d="M425.3,376c0.3-0.3,0.4-0.5,0.5-0.6c1.5-1.4,3.1-2.8,4.6-4.1c0.1-0.1,0.3-0.2,0.4-0.4c0.2-0.2,0.2-0.4,0.1-0.6
		c-0.1-0.3-0.3-0.7-0.4-1c-0.7-1.7-1.4-3.4-2-5.1c0-0.1,0-0.1,0-0.2c0.2-0.2,0.4-0.1,0.5,0c1.5,0.9,3,1.9,4.6,2.8
		c1,0.6,1,0.6,1.9-0.1c1.5-1.2,2.9-2.4,4.4-3.6c0.1-0.1,0.3-0.2,0.5-0.3c0,0.3,0,0.5,0,0.7c-0.4,1.8-0.9,3.7-1.3,5.5
		c0,0.1,0,0.1,0,0.2c-0.2,0.5,0,0.9,0.5,1.2c1.6,1,3.1,2.1,4.7,3.2c0.2,0.1,0.4,0.3,0.6,0.4c-0.1,0.3-0.4,0.3-0.6,0.3
		c-0.8,0.1-1.5,0.1-2.3,0.2c-1.2,0.1-2.4,0.2-3.6,0.3c-0.7,0-0.9,0.2-1.1,0.9c-0.4,1.7-0.8,3.5-1.2,5.2c-0.1,0.3-0.1,0.7-0.3,0.9
		c-0.3,0-0.4-0.3-0.4-0.4c-0.7-1.8-1.4-3.5-2.1-5.3c0-0.1-0.1-0.2-0.1-0.3c-0.1-0.4-0.4-0.5-0.8-0.5c-0.7,0.1-1.5,0.1-2.2,0.2
		c-1.3,0.1-2.7,0.2-4,0.3C425.9,376,425.8,376,425.3,376"/>
	<path class="st0" d="M219.1,409.5c0.1-0.2,0.2-0.4,0.3-0.6c0.8-1.2,1.6-2.3,2.4-3.5c1.4-2,2.9-4,4.4-5.9c1.3-1.7,2.5-3.6,3.5-5.5
		c0.4-0.7,0.9-1.4,1.4-2.1c0.3-0.4,0.6-0.9,0.9-1.3c0.6-0.9,1.3-1.7,1.9-2.5c0.9-1.2,1.7-2.5,2.5-3.7c1.4-2.3,3.1-4.4,5-6.3
		c1.9-2,3.7-3.9,5.7-5.8c1-1,2.1-1.9,3.1-2.8c0.2-0.2,0.4-0.3,0.6-0.4c0.2-0.1,0.5,0.1,0.4,0.3c-0.1,0.3-0.1,0.6-0.3,0.9
		c-0.3,0.6-0.6,1.3-1,1.9c-2.5,4.1-5,8.1-7.6,12.1c-0.3,0.5-0.6,1-1,1.5c-0.5,0.7-1.1,1.3-1.8,1.7c-0.3,0.2-0.6,0.4-0.9,0.5
		c-1.2,0.7-2.3,1.7-3.2,2.9c-0.9,1.1-1.8,2.1-2.8,3.2c-1.5,1.6-2.8,3.3-4.2,5c-2.7,3.3-5.4,6.5-8.2,9.8c-0.2,0.2-0.4,0.5-0.6,0.7
		c-0.1,0.1-0.3,0.2-0.4,0.3C219.3,409.6,219.2,409.6,219.1,409.5"/>
	<path class="st0" d="M335.5,203.1c0.2,0.1,0.5,0.1,0.7,0.2c1.8,0.6,3.7,1.2,5.5,1.8c0.2,0.1,0.3,0.1,0.5,0.2c0.3,0.1,0.5,0,0.7-0.2
		c0.1-0.1,0.2-0.3,0.3-0.4c1.1-1.7,2.1-3.3,3.2-5c0.1-0.1,0.2-0.2,0.3-0.3c0.3,0.2,0.2,0.5,0.2,0.8c0,1.7,0,3.3,0,4.9
		c0,0.2,0,0.5,0,0.7c0,0.4,0.2,0.7,0.6,0.8c0.5,0.2,1.1,0.4,1.6,0.5c1.5,0.5,2.9,1,4.4,1.5c0.2,0.1,0.3,0.1,0.6,0.3
		c-0.2,0.2-0.4,0.3-0.6,0.4c-1.6,0.6-3.2,1.1-4.8,1.7c-0.2,0.1-0.3,0.1-0.5,0.2c-0.9,0.3-0.9,0.4-0.9,1.4c0,1.5,0,2.9-0.1,4.4
		c0,0.6,0,1.2,0,1.8c0,0.2,0,0.3-0.1,0.6c-0.2-0.1-0.3-0.2-0.4-0.3c-1.2-1.7-2.3-3.3-3.5-5c0-0.1-0.1-0.1-0.1-0.2
		c-0.4-0.5-0.5-0.6-1.2-0.3c-2,0.8-3.9,1.5-5.9,2.3c-0.2,0.1-0.4,0.1-0.6,0.2c-0.3-0.2-0.2-0.4,0-0.6c1-1.4,2.1-2.8,3.1-4.3
		c0.3-0.5,0.7-0.9,1-1.4c0.2-0.3,0.2-0.5,0-0.8c-0.2-0.2-0.3-0.5-0.5-0.7c-1.2-1.5-2.3-3.1-3.5-4.6
		C335.4,203.6,335.3,203.4,335.5,203.1"/>
	<path class="st0" d="M417.8,273.8c-0.4-0.2-0.7-0.4-1-0.5c-1.7-0.7-3.3-1.5-5-2.2c-0.2-0.1-0.5-0.1-0.5-0.5
		c0.2-0.1,0.4-0.1,0.6-0.2c1.9-0.4,3.9-0.7,5.8-1.1c0.1,0,0.3,0,0.4-0.1c0.3-0.1,0.5-0.3,0.6-0.6c0.1-0.9,0.3-1.9,0.4-2.8
		c0.2-1.1,0.3-2.3,0.4-3.4c0-0.2,0.1-0.4,0.3-0.7c0.2,0.3,0.3,0.4,0.4,0.6c0.9,1.6,1.7,3.2,2.5,4.9c0.1,0.1,0.1,0.2,0.2,0.4
		c0.2,0.4,0.5,0.5,1,0.5c0.4-0.1,0.8-0.1,1.2-0.2c1.7-0.3,3.4-0.7,5.2-1c0.1,0,0.2,0,0.3,0c0.1,0.3-0.1,0.5-0.3,0.6
		c-1.3,1.4-2.6,2.8-3.9,4.2c-0.8,0.8-0.7,0.9-0.2,1.8c0.9,1.7,1.8,3.4,2.6,5c0.1,0.1,0.1,0.2,0.1,0.4c-0.1,0.1-0.1,0.1-0.1,0.1
		c0,0-0.1,0-0.1,0c-2.1-0.9-4.3-1.9-6.5-2.9c-0.2,0.2-0.4,0.3-0.6,0.5c-1.3,1.4-2.7,2.9-4,4.3c-0.2,0.2-0.3,0.4-0.6,0.3
		C417.1,278.7,417.6,276.3,417.8,273.8"/>
	<path class="st0" d="M438.3,304.9c-0.3,0.1-0.5-0.1-0.7-0.3c-1.6-1.2-3.2-2.4-4.8-3.7c-0.7-0.6-0.8-0.6-1.6,0
		c-1.5,1.1-2.9,2.2-4.4,3.2c-0.2,0.2-0.5,0.3-0.9,0.6c0-0.3,0-0.5,0.1-0.7c0.6-1.8,1.2-3.5,1.8-5.3c0.1-0.2,0.1-0.4,0.2-0.6
		c0.2-0.6,0.1-0.8-0.4-1.2c-1.6-1.2-3.2-2.3-4.8-3.5c-0.2-0.1-0.4-0.3-0.6-0.5c0.2-0.1,0.3-0.2,0.4-0.2c2,0,4.1,0,6.1,0
		c0.7,0,0.9-0.1,1.2-0.8c0.6-1.9,1.3-3.8,1.9-5.7c0.1-0.2,0-0.4,0.4-0.5c0.1,0.2,0.2,0.3,0.2,0.5c0.5,1.9,1.1,3.7,1.6,5.6
		c0,0.2,0.1,0.3,0.2,0.5c0.1,0.3,0.3,0.4,0.7,0.4c0.1,0,0.3,0,0.4,0c2,0,4.1,0,6.1,0c0.1,0,0.1,0,0.2,0.1c0,0.1-0.1,0.3-0.1,0.3
		c-0.5,0.4-1,0.8-1.5,1.2c-1.1,0.9-2.2,1.7-3.3,2.6c-0.5,0.4-0.6,0.5-0.4,1.2c0.4,1.1,0.7,2.3,1.1,3.4c0.3,1,0.6,2,1,3
		C438.4,304.7,438.3,304.8,438.3,304.9"/>
	<path class="st0" d="M251.5,223.6c-0.4,0-0.6,0-0.9,0c-1.5-0.2-3.1-0.4-4.6-0.6c-0.4-0.1-0.8-0.1-1.1-0.2c-0.3,0-0.6,0.1-0.7,0.3
		c-0.2,0.3-0.3,0.6-0.4,0.8c-0.8,1.6-1.6,3.3-2.4,4.9c-0.1,0.2-0.1,0.4-0.5,0.4c0-0.1-0.1-0.2-0.1-0.3c-0.3-1.4-0.5-2.8-0.8-4.2
		c-0.1-0.8-0.3-1.5-0.4-2.3c-0.1-0.3-0.3-0.5-0.6-0.5c-2.2-0.3-4.3-0.6-6.5-0.9c-0.1,0-0.3-0.1-0.5-0.3c0.3-0.2,0.5-0.3,0.7-0.4
		c1.6-0.8,3.2-1.6,4.8-2.4c0.2-0.1,0.3-0.2,0.5-0.2c0.7-0.4,0.8-0.4,0.6-1.2c-0.2-1.2-0.4-2.4-0.6-3.6c-0.2-1-0.3-1.9-0.5-2.9
		c0.3-0.2,0.4,0,0.6,0.2c0.9,0.9,1.9,1.9,2.8,2.8c0.4,0.4,0.8,0.8,1.2,1.2c0.5,0.5,0.7,0.6,1.4,0.2c0.7-0.3,1.4-0.7,2.1-1
		c1.1-0.6,2.3-1.1,3.4-1.7c0.1-0.1,0.3-0.1,0.4-0.1c0.3,0.2,0.1,0.4,0,0.6c-0.8,1.7-1.7,3.3-2.5,5c-0.2,0.4-0.4,0.8-0.5,1.1
		c0.1,0.5,0.5,0.8,0.8,1c1.4,1.3,2.8,2.6,4.1,3.9C251.3,223.3,251.3,223.4,251.5,223.6"/>
	<path class="st0" d="M188.2,291.9c-0.3,0.3-0.5,0.5-0.7,0.6c-1.5,1-3,2-4.5,3c-0.2,0.1-0.4,0.2-0.5,0.4c-0.2,0.1-0.2,0.3-0.2,0.6
		c0.1,0.3,0.2,0.7,0.3,1c0.6,1.7,1.1,3.5,1.7,5.2c0.1,0.2,0.1,0.3,0.1,0.6c-0.3-0.1-0.4-0.2-0.5-0.2c-1.6-1.1-3.2-2.3-4.8-3.5
		c-0.1-0.1-0.2-0.2-0.3-0.3c-0.3-0.3-0.7-0.3-1,0c-1.6,1.1-3.2,2.2-4.8,3.2c-0.2,0.1-0.4,0.4-0.8,0.3c0-0.2,0-0.3,0.1-0.5
		c0.6-1.6,1.1-3.2,1.7-4.9c0-0.1,0.1-0.3,0.1-0.4c0.3-1,0.3-1.1-0.5-1.7c-1.5-1.2-3.1-2.4-4.6-3.5c-0.2-0.1-0.3-0.3-0.6-0.5
		c0.2-0.1,0.3-0.2,0.4-0.2c2,0.1,4,0.2,6,0.3c0.1,0,0.1,0,0.2,0c0.7,0,0.9-0.1,1.2-0.8c0.7-1.9,1.4-3.8,2.1-5.7
		c0.1-0.2,0.2-0.4,0.3-0.6c0.1,0.2,0.3,0.2,0.3,0.4c0.4,1.4,0.8,2.8,1.2,4.3c0.2,0.7,0.4,1.4,0.6,2.1c0.2,0.6,0.3,0.7,1,0.8
		c0.6,0,1.1,0,1.7,0c1.2,0,2.4,0,3.6,0C187.2,291.9,187.6,291.7,188.2,291.9"/>
	<path class="st0" d="M360.3,365.4c0.3,0,0.5,0,0.6,0.1c0.3,0.2,0.6,0.4,0.9,0.6c2.8,2.3,5.5,4.7,8,7.3c1.1,1.1,2.1,2.3,3.2,3.5
		c0.5,0.5,1,1.1,1.5,1.6c0.1,0.2,0.3,0.3,0.4,0.5c0.6,0.7,0.8,1.5,0.6,2.4c-0.1,0.7-0.1,1.4,0.2,2.1c0.2,0.4,0.5,0.9,0.8,1.3
		c1.6,2.2,3.1,4.4,4.6,6.6c0.4,0.6,0.9,1.2,1.4,1.7c0.9,1,1.7,2,2.4,3.2c0.1,0.1,0.1,0.3,0.2,0.5c0,0-0.2,0.2-0.2,0.2
		c-0.2-0.1-0.3-0.1-0.4-0.2c-0.9-0.9-1.7-1.7-2.5-2.7c-2.2-2.5-4.3-5-6.5-7.4c-0.6-0.7-1.3-1.2-2-1.9c-0.7-0.7-1.5-1.5-2.2-2.3
		c-1.5-1.6-2.9-3.2-4.4-4.7c-0.7-0.7-1.1-1.5-1.1-2.5c0-0.2,0-0.4,0-0.6c0-1.2-0.5-2.3-1.2-3.3c-1.2-1.4-2.3-2.9-3.4-4.4
		C360.8,366.5,360.5,366.1,360.3,365.4"/>
	<path class="st0" d="M331.8,285.1c0.1-1,0.3-2,0.6-2.9c0.9-2.8,2.4-5.3,4-7.7c0.4-0.6,0.9-1.2,1.6-1.7c0.3-0.2,0.7-0.4,1-0.5
		c0.6-0.2,1.1,0.1,1.3,0.8c0.2,0.8,0,1.5-0.2,2.3c-0.4,1.5-1,2.9-1.6,4.2c-0.8,1.6-1.6,3.1-2.6,4.6c-0.4,0.6-0.9,1.3-1.4,1.8
		c-0.3,0.3-0.6,0.6-1,0.7c-0.7,0.3-1.4,0-1.6-0.8C331.8,285.6,331.8,285.3,331.8,285.1"/>
	<path class="st0" d="M302.2,272.2c-0.7,1.5-1.3,2.9-2,4.3c-0.3,0.6-0.6,1.3-0.9,1.9c-0.7,1.6-1.6,3-2.7,4.3
		c-0.4,0.4-0.9,0.8-1.3,1.2c-0.2,0.2-0.6,0.3-0.9,0.4c-0.7,0.2-1.4-0.3-1.4-1c0-0.5,0.1-1,0.2-1.4c0.3-1.1,0.9-2.1,1.5-3.1
		c0.9-1.6,2-3.1,3.2-4.4c0.7-0.8,1.5-1.4,2.5-1.9c0.4-0.2,0.8-0.3,1.2-0.4C301.8,272,301.9,272.1,302.2,272.2"/>
	<path class="st0" d="M274.9,272.2c-0.2,0.4-0.3,0.8-0.5,1.1c-0.9,2-1.8,3.9-2.7,5.9c-0.7,1.5-1.7,2.9-2.9,4.1
		c-0.3,0.3-0.7,0.6-1.1,0.8c-0.2,0.1-0.4,0.2-0.6,0.2c-0.7,0.1-1.2-0.3-1.2-0.9c0-0.4,0-0.8,0.1-1.1c0.1-0.5,0.3-1,0.5-1.5
		c1.2-2.6,2.8-4.9,4.9-6.9c0.7-0.7,1.4-1.2,2.3-1.6C274.1,272.1,274.4,272,274.9,272.2"/>
	<g>
		<path class="st0" d="M360.1,297.2c-0.3-0.2-0.6-0.4-1-0.5c-0.4-0.1-0.8-0.2-1.3-0.2h-1.4v5.9h1.2c0.5,0,0.9-0.1,1.4-0.2
			c0.4-0.1,0.8-0.3,1.1-0.5c0.3-0.2,0.6-0.5,0.8-0.9c0.2-0.4,0.3-0.8,0.3-1.4c0-0.5-0.1-1-0.2-1.4
			C360.6,297.7,360.4,297.4,360.1,297.2z"/>
		<path class="st0" d="M375.2,297.2c-0.3-0.3-0.6-0.5-0.9-0.7c-0.4-0.2-0.8-0.2-1.2-0.2s-0.9,0.1-1.2,0.2c-0.4,0.2-0.7,0.4-0.9,0.7
			c-0.3,0.3-0.5,0.6-0.6,1c-0.1,0.4-0.2,0.8-0.2,1.2c0,0.5,0.1,0.9,0.2,1.3c0.1,0.4,0.3,0.7,0.6,1c0.3,0.3,0.6,0.5,0.9,0.7
			c0.4,0.2,0.8,0.2,1.2,0.2s0.9-0.1,1.2-0.2c0.4-0.2,0.7-0.4,0.9-0.7c0.3-0.3,0.5-0.6,0.6-1c0.1-0.4,0.2-0.8,0.2-1.3
			c0-0.4-0.1-0.8-0.2-1.2C375.7,297.8,375.5,297.4,375.2,297.2z"/>
		<path class="st0" d="M426.4,331.2c0-0.6,0-1.1-0.1-1.7c-0.3-2.7-0.4-5.4-0.8-8.1c-0.4-2.3-0.6-4.6-1.1-6.9c-0.5-2.5-1-5.1-1.6-7.6
			c-0.6-2.3-1.2-4.7-2-7c-0.6-1.7-1.1-3.4-1.7-5.1c-1.7-4.4-3.5-8.7-5.6-12.9c-2.6-5.1-5.5-10-8.8-14.7c-3.4-4.9-7.2-9.6-11.4-13.9
			c-2.5-2.6-5.1-5.1-7.8-7.5c-3-2.7-6.2-5.2-9.4-7.6c-1.1-0.8-2.3-1.5-3.4-2.3c-2.7-1.9-5.5-3.6-8.4-5.2c-5.3-3-10.7-5.5-16.4-7.6
			c-2.6-1-5.2-1.9-7.9-2.7c-2.3-0.7-4.6-1.3-6.9-1.9c-2.7-0.7-5.5-1.2-8.2-1.7c-2-0.3-4.1-0.6-6.1-0.9c-3-0.4-5.9-0.6-8.9-0.7
			c-4-0.1-8.1-0.2-12.1,0.1c-1.7,0.1-3.4,0.2-5.1,0.4c-2,0.2-3.9,0.5-5.8,0.7c-2.6,0.3-5.1,0.8-7.7,1.4c-1.7,0.4-3.4,0.8-5.1,1.2
			c-4.7,1.2-9.3,2.7-13.8,4.5c-4.3,1.7-8.5,3.6-12.6,5.8c-5.3,2.8-10.2,6-15.1,9.4c-3.4,2.4-6.6,5.1-9.7,7.9
			c-3.6,3.2-6.9,6.8-10.2,10.4c-1,1.1-1.9,2.2-2.8,3.3c-4,4.9-7.5,10.1-10.7,15.6c-2.3,3.9-4.3,8-6.2,12.2
			c-2.3,5.3-4.3,10.8-5.8,16.3c-0.8,3-1.6,6-2.1,9.1c-0.2,1.1-0.5,2.2-0.6,3.3c-0.3,2.2-0.6,4.4-0.8,6.7c-0.2,1.8-0.4,3.6-0.5,5.3
			c-0.1,1.5-0.1,2.9-0.1,4.4c-0.1,4-0.1,7.9,0.2,11.9c0.1,2,0.4,4.1,0.6,6.1c0.2,2,0.4,4,0.8,5.9c0.5,2.9,1.1,5.7,1.8,8.5
			c1.1,4.4,2.4,8.7,3.9,12.9c1.4,3.8,3,7.6,4.8,11.2c2.3,4.8,5,9.5,7.9,14c0.4,0.7,0.9,1.3,1.4,2.1c0.6-0.4,1-0.8,1.5-1.2
			c2.7-2.7,5.5-5.4,8.2-8.2c2-2.1,4-4.2,6-6.3c2.2-2.4,4.4-4.7,6.6-7.1c2.9-3.1,5.8-6.2,8.7-9.3c3.7-4.1,7.4-8.2,11.1-12.2
			c2-2.2,4-4.5,5.9-6.7c2.6-2.9,5.1-5.8,7.7-8.6c1-1.2,2.1-2.4,3.2-3.4c1.4-1.2,3-2.2,4.9-2.6c0.8-0.1,1.5-0.2,2.3-0.3
			c1.6-0.2,3-0.8,4-2.3c0-0.1,0.1-0.1,0.1-0.2c1.1-1.3,2.3-2.6,3.8-3.6c0.4-0.3,0.9-0.6,1.2-1c1.4-1.4,2.9-2.7,4.2-4.3
			c0.9-1.1,1.9-2.1,3.1-3c1.3-0.9,2.6-1.9,3.9-2.9c0.7-0.5,1.4-1.1,2-1.7c1.4-1.2,2.7-2.5,4.1-3.8c1.4-1.2,2.8-2.2,4.4-3
			c1.8-0.8,3.6-1.2,5.5-0.8c2.7,0.5,5,1.8,6.8,3.9c0.5,0.6,1.1,1.1,1.7,1.7c0.7,0.7,1.5,1.4,2.2,2.1c1.5,1.5,3.1,2.9,5,4
			c1.1,0.6,2.2,1.1,3.4,1.2c0.5,0,1,0.2,1.5,0.5c0.5,0.4,1,0.7,1.5,1.2c1.3,1.5,2.8,2.8,4.2,4.3c3,3,5.9,6,8.9,8.9
			c1.4,1.4,2.9,2.6,4.4,3.9c0.8,0.7,1.7,1.2,2.7,1.4c1.2,0.3,2.2,0.8,3.1,1.6c0.2,0.1,0.3,0.3,0.5,0.4c0.5,0.3,1,0.6,1.5,0.6
			c1.7,0.1,3.2,0.8,4.3,2.1c0.6,0.6,1.2,1.2,1.9,1.6c0.3,0.1,0.5,0.4,0.8,0.6c1.6,1.5,3,3,4.2,4.8c1.9,2.6,3.7,5.3,5.7,7.9
			c0.9,1.3,1.9,2.5,2.9,3.8c3.5,4.6,6.9,9.3,10.4,13.9c3.2,4.2,6.3,8.6,9.7,12.8c2,2.5,3.9,5.1,5.8,7.7c0.9,1.1,1.7,2.3,2.6,3.4
			c0.2,0.2,0.3,0.5,0.7,0.5c0.4-0.3,0.7-0.8,1-1.3c2.2-3.2,4.3-6.4,6.2-9.8c1.5-2.7,3-5.5,4.4-8.3c0.6-1.3,1.1-2.6,1.7-3.8
			c1.2-2.8,2.3-5.7,3.3-8.6c1.2-3.5,2.2-6.9,3-10.5c0.6-2.5,1.1-5,1.6-7.5c0.4-2.4,0.8-4.8,1.1-7.2c0.2-1.8,0.3-3.6,0.5-5.3
			c0.1-2.1,0.3-4.1,0.4-6.2C426.7,336.9,426.6,334,426.4,331.2z M255.2,296.5h-2.7v7.3H251v-7.3h-2.7v-1.4h6.9L255.2,296.5
			L255.2,296.5z M252,279.1c-0.3,0.1-0.6,0.2-0.7,0.6c-0.1,0.4-0.2,0.7-0.3,1.1c-1,4-2.7,7.7-5.4,10.8c-2.8,3.3-6.3,5.8-10.4,7.3
			c-2.6,1-5.3,1.4-8.1,1.4c-2.1-0.1-4-0.4-5.9-1.4c-2.2-1.2-3.5-2.9-4.2-5.3c-0.2-0.9-0.4-1.8-0.4-2.7c0-1.1,0.4-2.1,1.1-2.9
			c1.1-1.3,2.9-1.1,3.9,0.3c0.8,1.2,0.6,2.5-0.5,3.5c-0.2,0.1-0.3,0.3-0.5,0.4c-0.7,0.5-1,1.2-0.9,2.1c0.1,1.6,0.9,2.7,2.1,3.5
			c0.7,0.4,1.4,0.7,2.2,0.9c3,0.7,6,0.6,8.8-0.7c1.9-0.8,3.3-2.1,4.6-3.6c1.3-1.5,2.3-3.2,3.2-4.9c1.4-2.7,2.5-5.5,3.7-8.2
			c1.6-3.7,3.1-7.4,5.1-10.8c1.5-2.6,3.3-4.9,5.6-6.9c0.7-0.6,1.5-1.1,2.2-1.6c0.4-0.3,0.7-0.2,0.8,0c0.2,0.3,0,0.5-0.1,0.8
			c-1.5,1.8-2.5,3.9-3.4,6c-1,2.3-1.9,4.7-2.4,7.2c-0.1,0.4-0.2,0.9-0.4,1.4c0.2,0.1,0.3,0.2,0.4,0.2c0.4,0,0.9,0,1.3,0
			c2.4-0.5,4.4-1.5,6.2-3.2c1.5-1.5,2.7-3.2,3.4-5.3c0.5-1.3,0.6-2.7,0.5-4.1c-0.2-1.5-0.5-2.8-1.2-4.1c-1.1-1.9-2.6-3.3-4.5-4.3
			c-1.7-0.9-3.5-1.5-5.5-1.7c-1.8-0.2-3.6-0.2-5.5,0c-2.4,0.2-4.6,0.7-6.9,1.4c-1.9,0.6-3.7,1.5-5.4,2.6c-2.5,1.6-4.6,3.5-6.3,5.9
			c-1.4,1.9-2.4,4.1-2.9,6.4c-0.1,0.6-0.2,1.2-0.2,1.8c0,1.6,0.1,3.2,0.7,4.7c0.7,1.7,1.7,3.1,3.3,3.9c1.9,1,3.8,1.1,5.8,0.3
			c0.8-0.3,1.5-0.8,1.9-1.6c0.4-0.6,0.6-1.3,0.4-2.1c-0.2-0.5-0.3-1.1-0.3-1.7c0-0.5,0.2-0.9,0.4-1.3c0.4-0.7,1-1,1.8-1
			c0.8,0,1.4,0.4,1.7,1.2c0.5,1,0.5,2.1,0,3.2c-0.4,1-1.1,1.8-2,2.4c-2,1.4-4.2,2.1-6.6,2.1c-2.5,0-4.9-0.6-7-1.9
			c-2.3-1.5-3.8-3.6-4.1-6.4c-0.3-2.1,0-4.1,0.6-6c0.9-3.1,2.6-5.6,5-7.7c2-1.8,4.2-3.1,6.6-4.2c2.5-1.1,5.2-2,7.9-2.5
			c2.5-0.5,5-0.8,7.5-0.8c1.5,0,2.9,0.1,4.4,0.3c3,0.4,5.8,1.2,8.5,2.6c1.8,0.9,3.5,2.1,4.8,3.7c1.5,1.8,2.4,3.9,2.3,6.3
			c-0.1,2.1-0.8,4-2.1,5.7c-1.1,1.4-2.4,2.4-3.9,3.3c-2.2,1.3-4.5,2.2-7,2.8C254.7,278.6,253.3,278.8,252,279.1z M262.9,303.8h-6
			v-8.7h5.8v1.4h-4.2v2.1h4v1.4h-4v2.4h4.4L262.9,303.8L262.9,303.8z M270.3,303.8h-5.2v-8.7h1.5v7.3h3.7V303.8z M278.1,303.8h-6
			v-8.7h5.8v1.4h-4.2v2.1h4v1.4h-4v2.4h4.4L278.1,303.8L278.1,303.8z M284.8,303.8h-1.3l-3.4-8.7h1.8l2.4,6.6l2.4-6.6h1.7
			L284.8,303.8z M291.4,303.8h-1.5v-8.7h1.5V303.8z M299,302.5c-0.2,0.3-0.4,0.6-0.7,0.9c-0.3,0.2-0.6,0.4-1,0.5s-0.8,0.2-1.2,0.2
			c-0.5,0-1.1-0.1-1.6-0.3c-0.5-0.2-0.9-0.5-1.3-0.9l1.2-1.1c0.2,0.3,0.4,0.5,0.7,0.7c0.3,0.2,0.6,0.2,1,0.2c0.2,0,0.4,0,0.5-0.1
			c0.2,0,0.3-0.1,0.5-0.2c0.1-0.1,0.3-0.2,0.4-0.4c0.1-0.1,0.1-0.3,0.1-0.5c0-0.3-0.1-0.6-0.3-0.7c-0.2-0.2-0.5-0.3-0.8-0.4
			c-0.3-0.1-0.6-0.2-1-0.3c-0.4-0.1-0.7-0.3-1-0.4c-0.3-0.2-0.6-0.4-0.8-0.7c-0.2-0.3-0.3-0.7-0.3-1.2c0-0.4,0.1-0.8,0.3-1.2
			c0.2-0.3,0.4-0.6,0.7-0.8c0.3-0.2,0.6-0.4,1-0.5c0.4-0.1,0.8-0.2,1.2-0.2c0.5,0,0.9,0.1,1.3,0.2c0.4,0.1,0.8,0.4,1.2,0.7l-1.1,1.2
			c-0.2-0.2-0.4-0.4-0.7-0.5c-0.3-0.1-0.6-0.2-0.9-0.2c-0.2,0-0.4,0-0.5,0.1c-0.2,0-0.3,0.1-0.5,0.2c-0.1,0.1-0.2,0.2-0.3,0.4
			c-0.1,0.1-0.1,0.3-0.1,0.5c0,0.3,0.1,0.5,0.3,0.7c0.2,0.2,0.5,0.3,0.8,0.4c0.3,0.1,0.6,0.2,1,0.3c0.4,0.1,0.7,0.3,1,0.4
			c0.3,0.2,0.6,0.4,0.8,0.7c0.2,0.3,0.3,0.7,0.3,1.2C299.2,301.7,299.1,302.1,299,302.5z M302.5,303.8H301v-8.7h1.6V303.8z
			 M313,301.3c-0.2,0.6-0.6,1-1,1.4c-0.4,0.4-0.9,0.7-1.5,0.9c-0.6,0.2-1.2,0.3-1.9,0.3c-0.7,0-1.3-0.1-1.9-0.3
			c-0.6-0.2-1-0.5-1.4-0.9c-0.4-0.4-0.7-0.9-1-1.4c-0.2-0.6-0.3-1.2-0.3-1.9c0-0.7,0.1-1.3,0.3-1.9c0.2-0.6,0.5-1.1,1-1.5
			c0.4-0.4,0.9-0.7,1.4-0.9c0.6-0.2,1.2-0.3,1.9-0.3c0.7,0,1.3,0.1,1.9,0.3c0.6,0.2,1.1,0.5,1.5,0.9c0.4,0.4,0.7,0.9,1,1.5
			c0.2,0.6,0.3,1.2,0.3,1.9C313.4,300.1,313.3,300.7,313,301.3z M322.9,303.8h-2l-4.3-6.7h0v6.7H315v-8.7h2.1l4.2,6.5h0v-6.5h1.5
			L322.9,303.8L322.9,303.8z M335,302.5c-0.2,0.3-0.4,0.6-0.7,0.9c-0.3,0.2-0.6,0.4-1,0.5s-0.8,0.2-1.2,0.2c-0.5,0-1.1-0.1-1.6-0.3
			c-0.5-0.2-0.9-0.5-1.3-0.9l1.2-1.1c0.2,0.3,0.4,0.5,0.7,0.7c0.3,0.2,0.6,0.2,1,0.2c0.2,0,0.4,0,0.5-0.1c0.2,0,0.3-0.1,0.5-0.2
			c0.1-0.1,0.3-0.2,0.4-0.4c0.1-0.1,0.1-0.3,0.1-0.5c0-0.3-0.1-0.6-0.3-0.7c-0.2-0.2-0.5-0.3-0.8-0.4c-0.3-0.1-0.6-0.2-1-0.3
			c-0.4-0.1-0.7-0.3-1-0.4c-0.3-0.2-0.6-0.4-0.8-0.7c-0.2-0.3-0.3-0.7-0.3-1.2c0-0.4,0.1-0.8,0.3-1.2c0.2-0.3,0.4-0.6,0.7-0.8
			c0.3-0.2,0.6-0.4,1-0.5c0.4-0.1,0.8-0.2,1.2-0.2c0.5,0,0.9,0.1,1.3,0.2c0.4,0.1,0.8,0.4,1.2,0.7l-1.1,1.2
			c-0.2-0.2-0.4-0.4-0.7-0.5c-0.3-0.1-0.6-0.2-0.9-0.2c-0.2,0-0.4,0-0.5,0.1c-0.2,0-0.3,0.1-0.5,0.2c-0.1,0.1-0.2,0.2-0.3,0.4
			c-0.1,0.1-0.1,0.3-0.1,0.5c0,0.3,0.1,0.5,0.3,0.7c0.2,0.2,0.5,0.3,0.8,0.4c0.3,0.1,0.6,0.2,1,0.3c0.4,0.1,0.7,0.3,1,0.4
			c0.3,0.2,0.6,0.4,0.8,0.7c0.2,0.3,0.3,0.7,0.3,1.2C335.2,301.7,335.2,302.1,335,302.5z M343.5,296.5h-2.7v7.3h-1.5v-7.3h-2.7v-1.4
			h6.9V296.5z M352.2,300.6c0,0.5-0.1,1-0.3,1.4c-0.2,0.4-0.4,0.8-0.7,1.1c-0.3,0.3-0.7,0.5-1.1,0.7c-0.4,0.2-0.9,0.2-1.4,0.2
			c-0.5,0-1-0.1-1.4-0.2c-0.4-0.2-0.8-0.4-1.1-0.7c-0.3-0.3-0.6-0.7-0.7-1.1c-0.2-0.4-0.3-0.9-0.3-1.4v-5.5h1.5v5.5
			c0,0.2,0,0.4,0.1,0.7c0.1,0.2,0.2,0.5,0.3,0.6c0.2,0.2,0.4,0.4,0.6,0.5c0.2,0.1,0.6,0.2,0.9,0.2c0.4,0,0.7-0.1,0.9-0.2
			c0.2-0.1,0.4-0.3,0.6-0.5c0.1-0.2,0.3-0.4,0.3-0.6c0.1-0.2,0.1-0.5,0.1-0.7v-5.5h1.5L352.2,300.6L352.2,300.6z M362.2,301.4
			c-0.3,0.5-0.6,1-1.1,1.4c-0.4,0.4-0.9,0.6-1.5,0.8c-0.5,0.2-1.1,0.3-1.6,0.3h-3.2v-8.7h3.4c0.6,0,1.1,0.1,1.7,0.3
			c0.5,0.2,1,0.4,1.4,0.8c0.4,0.4,0.7,0.8,1,1.4c0.2,0.5,0.4,1.2,0.4,1.9C362.7,300.2,362.5,300.8,362.2,301.4z M366.3,303.8h-1.5
			v-8.7h1.5V303.8z M377.3,301.3c-0.2,0.6-0.5,1-1,1.4c-0.4,0.4-0.9,0.7-1.5,0.9c-0.6,0.2-1.2,0.3-1.9,0.3c-0.7,0-1.3-0.1-1.9-0.3
			c-0.6-0.2-1-0.5-1.4-0.9c-0.4-0.4-0.7-0.9-1-1.4c-0.2-0.6-0.3-1.2-0.3-1.9c0-0.7,0.1-1.3,0.3-1.9c0.2-0.6,0.5-1.1,1-1.5
			c0.4-0.4,0.9-0.7,1.4-0.9c0.6-0.2,1.2-0.3,1.9-0.3c0.7,0,1.3,0.1,1.9,0.3c0.6,0.2,1.1,0.5,1.5,0.9c0.4,0.4,0.7,0.9,1,1.5
			c0.2,0.6,0.3,1.2,0.3,1.9C377.7,300.1,377.6,300.7,377.3,301.3z M385,302.5c-0.2,0.3-0.4,0.6-0.7,0.9c-0.3,0.2-0.6,0.4-1,0.5
			c-0.4,0.1-0.8,0.2-1.2,0.2c-0.5,0-1.1-0.1-1.6-0.3c-0.5-0.2-0.9-0.5-1.3-0.9l1.2-1.1c0.2,0.3,0.4,0.5,0.7,0.7
			c0.3,0.2,0.6,0.2,1,0.2c0.2,0,0.4,0,0.5-0.1c0.2,0,0.3-0.1,0.5-0.2s0.3-0.2,0.4-0.4c0.1-0.1,0.1-0.3,0.1-0.5
			c0-0.3-0.1-0.6-0.3-0.7c-0.2-0.2-0.5-0.3-0.8-0.4c-0.3-0.1-0.6-0.2-1-0.3c-0.4-0.1-0.7-0.3-1-0.4c-0.3-0.2-0.6-0.4-0.8-0.7
			c-0.2-0.3-0.3-0.7-0.3-1.2c0-0.4,0.1-0.8,0.3-1.2c0.2-0.3,0.4-0.6,0.7-0.8c0.3-0.2,0.6-0.4,1-0.5c0.4-0.1,0.8-0.2,1.2-0.2
			c0.5,0,0.9,0.1,1.3,0.2c0.4,0.1,0.8,0.4,1.2,0.7l-1.1,1.2c-0.2-0.2-0.4-0.4-0.7-0.5c-0.3-0.1-0.6-0.2-0.9-0.2
			c-0.2,0-0.4,0-0.5,0.1c-0.2,0-0.3,0.1-0.5,0.2c-0.1,0.1-0.2,0.2-0.3,0.4c-0.1,0.1-0.1,0.3-0.1,0.5c0,0.3,0.1,0.5,0.3,0.7
			c0.2,0.2,0.5,0.3,0.8,0.4c0.3,0.1,0.6,0.2,1,0.3c0.4,0.1,0.7,0.3,1,0.4c0.3,0.2,0.6,0.4,0.8,0.7c0.2,0.3,0.3,0.7,0.3,1.2
			C385.3,301.7,385.2,302.1,385,302.5z M388.9,272.7c-0.2,0.2-0.4,0.3-0.7,0.3c-0.6,0-1.1,0-1.7,0c-0.5,0-0.8,0.2-1.1,0.7
			c-0.8,1.9-1.7,3.7-2.6,5.5c-0.6,1.4-1.2,2.8-1.8,4.1c-0.4,0.8-0.7,1.7-0.8,2.6c-0.1,0.4-0.1,0.8-0.1,1.3c0,0.8,0.7,1.2,1.4,1.1
			c0.3-0.1,0.7-0.2,1-0.3c1.1-0.5,2-1.3,2.8-2.2c0.6-0.7,1.1-1.4,1.7-2.2c0.2-0.3,0.5-0.5,0.9-0.5c0.4,0,0.7,0.4,0.4,0.7
			c-1.4,2.3-3.1,4.2-5.5,5.3c-0.6,0.3-1.3,0.5-2,0.6c-2.1,0.3-3.7-1.3-4-2.8c-0.1-0.5-0.1-1.1-0.2-1.7c0-0.2,0-0.4-0.1-0.6
			c-0.4-0.1-0.5,0.1-0.7,0.3c-0.9,0.8-1.9,1.5-3,2c-0.5,0.3-1.1,0.5-1.6,0.7c-0.4,0.1-0.8,0.1-1.2,0.1c-1.2-0.2-1.8-1-1.8-2.2
			c0-0.6,0.2-1.2,0.4-1.7c0.5-1,0.9-2,1.4-3.1c0.7-1.7,1.5-3.3,2.2-5c0.1-0.3,0.2-0.5,0.3-0.8c0.1-0.3,0.2-0.6-0.1-0.9
			c-0.3-0.3-0.6-0.2-0.9,0c-0.3,0.2-0.7,0.4-1,0.6c-1.2,1-2.2,2.2-3.1,3.6c-0.9,1.4-1.5,2.9-2.2,4.4c-0.7,1.4-1.3,2.8-2,4.2
			c-0.3,0.6-0.6,0.8-1.2,0.7c-0.8,0-1.6,0-2.4,0c-0.3,0-0.5,0-0.7-0.3c0.2-0.9,0.8-1.8,1.1-2.8c-0.3-0.3-0.4-0.1-0.5,0.1
			c-0.8,0.8-1.7,1.5-2.6,2.1c-0.6,0.4-1.3,0.8-2.1,1c-1.3,0.5-2.3-0.1-2.7-1.4c-0.1-0.4-0.1-0.7-0.2-1.1c0-0.2,0-0.5,0-0.7
			c-0.4-0.1-0.5,0.2-0.7,0.3c-0.6,0.5-1.2,1.1-1.8,1.6c-0.8,0.6-1.6,1-2.5,1.3c-0.7,0.2-1.3,0.1-1.9-0.2c-0.8-0.4-1.2-1-1.2-1.8
			c0-0.5,0-1,0.2-1.4c0.4-1,0.8-2,1.2-3c0.5-1.1,1-2.3,1.4-3.4c0.1-0.2,0.1-0.4,0.2-0.7c-0.9,0-1.7,0.1-2.6,0.1
			c-0.3,0.2-0.3,0.5-0.4,0.8c-0.6,2.4-1.7,4.5-3.4,6.3c-1.4,1.5-3.1,2.8-5.2,3.3c-1.3,0.3-2.5,0.3-3.7-0.3c-1.1-0.5-1.7-1.3-2-2.4
			c-0.1-0.3-0.1-0.7-0.4-1c-0.2,0.1-0.4,0.3-0.6,0.4c-0.8,0.7-1.6,1.4-2.4,2.1c-0.8,0.6-1.7,1-2.7,1.2c-0.3,0-0.6,0.1-0.8,0.1
			c-1,0-1.7-0.7-1.9-1.7c-0.1-1-0.1-1.9,0.4-2.8c0.7-1.4,1.3-2.9,2-4.3c0.6-1.4,1.2-2.8,1.8-4.2c0.1-0.2,0.2-0.5,0.2-0.7
			c0-0.3-0.2-0.6-0.5-0.5c-0.2,0-0.4,0.1-0.6,0.2c-0.9,0.4-1.6,1.1-2.3,1.9c-0.8,1-1.5,2-2,3.2c-1.1,2.6-2.3,5.1-3.4,7.7
			c-0.2,0.5-0.5,0.7-1,0.7c-0.9,0-1.8,0-2.6,0c-0.2,0-0.5,0-0.7-0.3c0.1-0.2,0.1-0.4,0.2-0.6c1.5-3.5,3.1-6.9,4.6-10.4
			c0.1-0.3,0.3-0.6,0.4-0.9c0.1-0.2,0.1-0.3,0.1-0.5c0-0.5-0.3-0.8-0.8-0.6c-0.5,0.2-1,0.5-1.4,0.9c-0.5,0.4-0.9,0.9-1.3,1.4
			c-1,1.2-1.6,2.6-2.3,4c-1,2.1-1.9,4.2-2.8,6.2c-0.3,0.6-0.6,0.9-1.3,0.8c-0.7,0-1.4,0-2.1,0c-0.2,0-0.5-0.1-0.7-0.1
			c-0.3-0.3-0.2-0.6-0.1-0.8c0.3-0.6,0.5-1.2,0.8-1.8c0.1-0.2,0.2-0.3,0-0.5c-0.2,0.1-0.4,0.3-0.6,0.4c-1.1,0.9-2.2,1.7-3.5,2.4
			c-0.7,0.4-1.4,0.6-2.2,0.6c-1.1,0-1.8-0.7-1.9-1.8c0-0.4,0-0.8,0-1.4c-0.2,0.1-0.4,0.2-0.5,0.3c-0.7,0.6-1.4,1.2-2.1,1.7
			c-0.7,0.5-1.5,0.8-2.2,1.2c-2.1,0.8-3.7-0.8-3.9-2.5c-0.1-1.1-0.1-2.2,0.4-3.2c0.5-1,0.9-2,1.4-2.9c0.1-0.2,0.1-0.4,0.2-0.6
			c-0.8,0-1.6,0.2-2.3-0.3c-0.7-0.4-1-1.1-1.1-1.9c-0.2,0.1-0.4,0.1-0.5,0.2c-0.7,0.6-1.2,1.4-1.6,2.2c-0.9,1.9-1.7,3.8-2.6,5.6
			c-0.4,0.8-0.7,1.6-1.1,2.4c-0.2,0.6-0.6,0.8-1.2,0.8c-0.7,0-1.4,0-2.1,0c-0.2,0-0.4,0-0.5,0c-0.4,0-0.6-0.3-0.4-0.6
			c0.1-0.2,0.1-0.3,0.2-0.5c0.2-0.5,0.4-1,0.7-1.4c0.1-0.1,0.1-0.3,0.1-0.5c-0.3,0.2-0.4,0.3-0.6,0.4c-0.9,0.9-2,1.6-3,2.2
			c-0.7,0.4-1.4,0.7-2.2,0.7c-1.1,0.1-2-0.6-2.2-1.7c-0.1-0.4-0.1-0.9-0.1-1.4c-0.2,0.1-0.4,0.2-0.6,0.3c-0.6,0.6-1.3,1.2-2,1.7
			c-0.9,0.6-1.8,1-2.9,1.3c-0.8,0.2-1.4,0-2-0.5c-0.7-0.5-1-1.3-1.1-2.1c-0.1-1,0-2,0.3-3c0.6-1.9,1.6-3.6,2.9-5.2
			c1.7-2.1,3.9-3.7,6.3-4.9c2.3-1.1,4.8-1.4,7.3-0.7c0.2,0,0.3,0.1,0.5,0.2c0.5,0.2,0.8,0.4,0.5,1.1c-1.1,2.5-2.2,4.9-3.3,7.4
			c-0.4,1-0.9,1.9-1.2,2.9c-0.1,0.3-0.2,0.7-0.2,1c0,0.4,0.3,0.6,0.6,0.5c0.3,0,0.5-0.1,0.8-0.3c1-0.6,1.9-1.4,2.6-2.3
			c1.3-1.5,2.3-3.2,3.1-5.1c0.6-1.4,1.3-2.8,1.9-4.2c0.1-0.2,0.1-0.3,0.3-0.5c0.1-0.1,0.3-0.3,0.5-0.3c0.4-0.1,2.8,0,3.3,0.1
			c0.2,0.7-0.4,1.1-0.5,1.7c0.2,0.3,0.4,0.1,0.5-0.1c0.9-0.7,1.8-1.4,2.6-2.1c0.4-0.3,0.9-0.5,1.5-0.5c0.8,0.1,1.2,0.6,0.9,1.4
			c-0.2,0.4-0.4,0.8-0.6,1.1c-0.2,0.5-0.5,0.9-0.7,1.4c-0.1,0.2-0.1,0.4-0.1,0.6c0,0.5,0.4,0.8,0.8,0.6c0.4-0.2,0.8-0.4,1.2-0.7
			c0.5-0.3,0.9-0.7,1.3-1c2-1.8,4.4-2.8,7.1-3.3c1.3-0.2,2.6-0.2,3.8,0.3c0.3,0.1,0.5,0.2,0.8,0.3c0.3,0.2,0.4,0.4,0.3,0.8
			c-0.3,0.7-0.6,1.3-0.9,2c-1.3,2.8-2.6,5.7-3.9,8.5c-0.1,0.3-0.2,0.6-0.3,0.9c0,0.2,0.2,0.5,0.4,0.5c0.4,0.1,0.7,0.1,1-0.1
			c0.4-0.3,0.9-0.5,1.3-0.9c1.7-1.5,3.1-3.2,4-5.3c0.7-1.7,1.5-3.4,2.3-5.1c0.1-0.3,0.2-0.6,0.4-0.9c0.1-0.2,0.3-0.3,0.5-0.3
			c0.3-0.1,3,0,3.5,0.1c0.2,0.7-0.7,1.2-0.5,2c0.5-0.3,0.8-0.6,1.2-0.9c0.9-0.7,1.9-1.2,3-1.5c1.4-0.4,2.4,0.2,2.9,1.5
			c0.1,0.2,0.2,0.4,0.3,0.7c0.2-0.1,0.4-0.1,0.5-0.2c0.4-0.3,0.9-0.6,1.3-0.9c0.9-0.6,2-1,3.1-1.2c0.5-0.1,1,0,1.5,0.2
			c0.7,0.3,1.1,0.8,1.1,1.6c0,0.5-0.1,1-0.3,1.5c-0.9,2.2-1.9,4.3-2.8,6.5c-0.4,1-0.9,2-1.3,3c-0.1,0.2-0.2,0.4-0.2,0.6
			c-0.1,0.2-0.1,0.5,0.1,0.6c0.2,0.1,0.4,0.1,0.6,0.1c0.2,0,0.4-0.2,0.5-0.3c1-0.8,2-1.8,2.7-2.9c0.2-0.3,0.3-0.6,0.3-0.9
			c0.4-2.3,1.6-4.2,3.1-6c0.8-0.8,1.6-1.6,2.5-2.3c1.2-0.9,2.6-1.4,4.2-1.7c0.8-0.1,1.7,0,2.5,0.3c1.1,0.4,1.7,1.1,2.1,2.2
			c0.2,0.5,0.3,0.9,0.4,1.4c0.2,0.9,0.7,1.1,1.5,1c0.7-0.1,1.3-0.4,1.8-0.9c0.8-0.7,1.5-1.5,1.8-2.5c0.1-0.3,0.2-0.5,0.4-0.8
			c1.3-0.1,2.5,0,3.8-0.1c-0.1,0.3-0.1,0.6-0.1,0.7c-0.6,1.5-1.3,2.9-1.9,4.3c-0.9,2-1.8,4-2.6,6.1c-0.2,0.4-0.3,0.8-0.4,1.2
			c-0.1,0.7,0.2,1,0.9,0.8c0.3-0.1,0.6-0.2,0.8-0.4c0.6-0.5,1.1-1,1.6-1.5c1-1.2,1.9-2.5,2.5-4c1-2.1,2-4.3,3-6.4
			c0.1-0.2,0.1-0.3,0.2-0.5c0.1-0.1,0.3-0.3,0.4-0.3c1.2,0,2.3-0.1,3.5,0.1c0,0,0,0,0.1,0.1c0,0.2-0.1,0.4-0.1,0.6
			c-1.2,2.8-2.4,5.5-3.6,8.3c-0.3,0.7-0.6,1.3-0.9,2c-0.1,0.3-0.2,0.7-0.3,1c-0.1,0.3,0,0.6,0.2,0.8c0.2,0.2,0.5,0.2,0.8,0
			c0.4-0.2,0.8-0.5,1.1-0.8c0.7-0.7,1.5-1.4,2.2-2.2c0.4-0.5,0.8-1,1.2-1.5c0.7-0.9,1.3-2,1.8-3.1c0.7-1.5,1.3-2.9,2-4.4
			c0.1-0.2,0.2-0.5,0.3-0.6c0.1-0.2,0.3-0.3,0.5-0.3c1.2,0,2.3,0,3.5,0c0.1,0,0.2,0.1,0.3,0.2c-0.2,0.5-0.4,1-0.5,1.4
			c0.2,0.2,0.4,0.1,0.5,0c0.7-0.5,1.5-1,2.2-1.4c0.9-0.5,2-0.8,3-0.7c1.3,0,2.2,1.1,2,2.4c-0.1,0.5-0.2,1.1-0.5,1.6
			c-0.9,2.1-1.9,4.2-2.9,6.3c-0.2,0.5-0.6,1-0.8,1.5c-0.1,0.3-0.2,0.7-0.2,1c0,0.3,0.2,0.4,0.5,0.5c0.4,0.1,0.7-0.1,1-0.2
			c0.7-0.4,1.3-0.9,1.9-1.5c0.7-0.8,1.3-1.6,1.8-2.6c1-2.1,1.9-4.1,2.9-6.2c0.1-0.3,0.3-0.6,0.2-0.9c-0.2-0.2-0.5-0.1-0.8-0.2
			c-0.2,0-0.4,0-0.6-0.1c-0.2-0.1-0.3-0.2-0.2-0.4c0.1-0.5,0.5-0.8,1-0.8c0.4,0,0.7,0,1.1,0c0.3,0,0.5-0.1,0.7-0.4
			c0.1-0.2,0.2-0.4,0.3-0.7c0.7-1.5,1.4-3.1,2.1-4.6c0.1-0.2,0.1-0.3,0.2-0.5c0.1-0.2,0.3-0.4,0.6-0.4c1.2,0,2.3,0,3.5,0
			c0,0,0.1,0.1,0.2,0.2c-0.3,1-0.9,2-1.3,3c-0.4,1-0.9,2-1.3,3c0.2,0.1,0.4,0.2,0.6,0.2c0.5,0,0.9,0,1.4,0c0.2,0,0.5,0,0.7,0.1
			C389.2,272.1,389,272.4,388.9,272.7z"/>
		<path class="st0" d="M310.9,297.2c-0.3-0.3-0.6-0.5-0.9-0.7c-0.4-0.2-0.8-0.2-1.2-0.2c-0.5,0-0.9,0.1-1.2,0.2
			c-0.4,0.2-0.7,0.4-0.9,0.7c-0.3,0.3-0.5,0.6-0.6,1c-0.1,0.4-0.2,0.8-0.2,1.2c0,0.5,0.1,0.9,0.2,1.3c0.1,0.4,0.3,0.7,0.6,1
			c0.3,0.3,0.6,0.5,0.9,0.7c0.4,0.2,0.8,0.2,1.2,0.2c0.5,0,0.9-0.1,1.2-0.2c0.4-0.2,0.7-0.4,0.9-0.7c0.3-0.3,0.5-0.6,0.6-1
			c0.1-0.4,0.2-0.8,0.2-1.3c0-0.4-0.1-0.8-0.2-1.2C311.4,297.8,311.2,297.4,310.9,297.2z"/>
	</g>
</g>
</svg>
