<?xml version="1.0" encoding="utf-8"?>
<!-- Generator: Adobe Illustrator 25.2.1, SVG Export Plug-In . SVG Version: 6.00 Build 0)  -->
<svg version="1.1" id="Layer_1" xmlns="http://www.w3.org/2000/svg" xmlns:xlink="http://www.w3.org/1999/xlink" x="0px" y="0px"
	 viewBox="0 0 610 610" style="enable-background:new 0 0 610 610;" xml:space="preserve">
<style type="text/css">
	.st0{fill:#FFFFFF;}
</style>
<g>
	<path class="st0" d="M382.3,269.3c-19.7,0-35.7,16-35.7,35.7c0,19.7,16,35.7,35.7,35.7c19.7,0,35.7-16,35.7-35.7
		C418,285.3,402,269.3,382.3,269.3 M382.3,321.4c-9.1,0-16.4-7.4-16.4-16.4c0-9.1,7.4-16.4,16.4-16.4c9,0,16.4,7.4,16.4,16.4
		C398.7,314,391.3,321.4,382.3,321.4"/>
	<path class="st0" d="M341.7,289v-18.4h-16.6v-18l-20,8.1v9.9h-12.3V289H305v23.7c0,8.2,2.4,15,7,19.6c4.6,4.6,11.4,7,19.7,7h9.9
		v-18.4h-6.8c-6.8,0-9.8-3-9.8-9.8V289L341.7,289L341.7,289z"/>
	<path class="st0" d="M265,278.7v30.1c0,6.9-5.6,12.6-12.6,12.6c-6.9,0-12.6-5.7-12.6-12.6v-37.4l-19.8,8v28.8
		c0,17.9,14.5,32.5,32.4,32.5c17.9,0,32.5-14.5,32.5-32.5v-37.6L265,278.7z"/>
	<polygon class="st0" points="191.4,260.7 191.4,339.3 211.4,339.3 211.4,252.7 	"/>
	<path class="st0" d="M150.3,269.3c-8.3,0-15.4,2.8-20.7,8.2l-2.8-6.7l-16.2,6.5v80h20v-23.6c5.2,4.7,12,7,19.7,7
		c9.2,0,17.6-3.7,23.8-10.5c6.1-6.6,9.4-15.6,9.4-25.2C183.5,285,168.9,269.3,150.3,269.3 M147.2,321.4c-9.2,0-16.7-7.4-16.7-16.4
		c0-9.1,7.5-16.4,16.7-16.4c9.2,0,16.7,7.4,16.7,16.4C163.9,314,156.4,321.4,147.2,321.4"/>
	<path class="st0" d="M463.7,269.3c-19.7,0-35.7,16-35.7,35.7c0,19.7,16,35.7,35.7,35.7c19.7,0,35.7-16,35.7-35.7
		C499.4,285.3,483.4,269.3,463.7,269.3 M477.8,322.4h-6.7l-9.5-23H452v11.9c0,2.6,1.2,4.1,4.1,4.1h4.2v7h-5.2
		c-7.1,0-10.8-4-10.8-10.6v-12.4h-5.3v-6.7h5.3v-4.7l7.6-3.1v7.8h15l7.4,19.3l7.5-19.4h8.2L477.8,322.4z"/>
</g>
</svg>
