<?xml version="1.0" encoding="utf-8"?>
<!-- Generator: Adobe Illustrator 25.2.1, SVG Export Plug-In . SVG Version: 6.00 Build 0)  -->
<svg version="1.1" id="Layer_1" xmlns="http://www.w3.org/2000/svg" xmlns:xlink="http://www.w3.org/1999/xlink" x="0px" y="0px"
	 viewBox="0 0 610 610" style="enable-background:new 0 0 610 610;" xml:space="preserve">
<style type="text/css">
	.st0{fill:#FFFFFF;}
</style>
<g>
	<polygon class="st0" points="459.3,332.5 451.3,354.4 443.4,332.5 437.1,332.5 432.6,332.5 406.5,332.5 406.5,340.9 417,340.9 
		417,367.4 426.6,367.4 426.6,340.9 436,340.9 446.7,367.4 455.7,367.4 469.9,332.5 	"/>
	<path class="st0" d="M274.2,220.1l-134.1,22.4v149.8L263,369.5v20.4l20.1-3.4l11.8-44.8c-7,6.4-16.3,10.3-26.8,10.3
		c-21.1,0-37.1-15.3-37.1-36.1c0-0.1,0-0.2,0-0.3c-7.7,4.5-17.6,7.1-29,7.1h-14.4l-7.5,28h-24.7l25.8-96.4h29.4
		c31.4,0,37.1,17.2,38,27.1c6.4-4.4,14.2-6.9,22.9-6.9c16.6,0,30.1,9.8,34.9,24.2l6.1-22.9h22.2l-1.2,6.2h0.5
		c0.6-0.6,7.4-7.5,17.8-7.5c17.5,0,29.2,13,29.2,32.4c0,27.8-20.5,45.2-41,45.2c-13,0-19.7-7.4-21-9l-10.3,39.3l88.3-14.7V217.8
		l-122.9,22.7L274.2,220.1L274.2,220.1z"/>
	<path class="st0" d="M357.6,310.4c0-8.6-5.5-14.5-13.7-14.5c-11.2,0-17.2,11.7-17.2,20.2c0,8.3,5.4,14.4,13.5,14.4
		C351.4,330.5,357.6,318.9,357.6,310.4z"/>
	<path class="st0" d="M254.2,316.1c0,8.3,5.4,14.4,13.5,14.4c11.2,0,17.4-11.6,17.4-20.1c0-8.6-5.5-14.5-13.7-14.5
		C260.3,295.9,254.2,307.6,254.2,316.1z"/>
	<path class="st0" d="M199.9,276.9l-6.3,23.6h10.9c12.4,0,20.2-5.4,20.2-14.2c0-3.3-1.8-9.4-13.1-9.4H199.9z"/>
</g>
</svg>
