<?xml version="1.0" encoding="utf-8"?>
<!-- Generator: Adobe Illustrator 25.2.1, SVG Export Plug-In . SVG Version: 6.00 Build 0)  -->
<svg version="1.1" id="Layer_1" xmlns="http://www.w3.org/2000/svg" xmlns:xlink="http://www.w3.org/1999/xlink" x="0px" y="0px"
	 viewBox="0 0 610 610" style="enable-background:new 0 0 610 610;" xml:space="preserve">
<style type="text/css">
	.st0{fill:#FFFFFF;}
</style>
<g>
	<path class="st0" d="M210.6,306c0-27.5,10.2-44.9,22.3-46.7c-12.2-15-32.5-22.9-50.9-22.9c-20.3,0-38.5,8.8-51.1,22.8
		c12,2.4,16.1,12.4,16.1,28h-14.7c0-9.2-1.9-13.9-7.3-13.9c-2.5,0-4.4,1.2-5.5,3.3c-0.2,0.4-0.3,0.7-0.5,1.1
		c-0.4,1.2-0.7,2.6-0.7,4.1c0,19,31.2,18.1,31.2,47.3c0,11.4-8.7,22-18.6,22c12.9,14.1,30.6,22.6,51,22.6c19.8,0,37.6-8.4,50.1-21.8
		C220.6,348.9,210.6,332.3,210.6,306 M204,351.3h-15.7v-39.1h-17v39.1h-15.7v-90.2h15.7v36.3h17v-36.3H204L204,351.3L204,351.3z"/>
	<path class="st0" d="M126.9,336.9c4.4,0,7.5-3.9,7.5-9.5c0-11.6-10.2-13.9-21-23.7C113.2,323.7,119.4,336.9,126.9,336.9"/>
	<path class="st0" d="M226.2,304.5c0-15.2,4.4-30.4,12.5-30.4c9.6,0,12,23.4,12,30.9c0,16.3-5.1,30.9-12,30.9
		C230.4,336,226.2,320.5,226.2,304.5"/>
	<polygon class="st0" points="383,262.4 370.8,262.4 328.3,262.4 326.3,262.4 316.8,262.4 310.5,313.9 310.3,313.9 303.3,262.4 
		288.9,262.4 281.2,313.9 281,313.9 275.3,262.4 260.8,262.4 272.5,350.1 286.5,350.1 294.4,294.5 294.6,294.5 302.3,350.1 
		316.8,350.1 326.5,275.9 340.1,275.9 340.1,350.1 356.1,350.1 356.1,275.9 370.8,275.9 370.8,350.1 386.8,350.1 386.8,262.4 	"/>
	<polygon class="st0" points="394.6,262.4 416,262.4 423.1,307.3 423.3,307.3 430.8,262.4 451.7,262.4 451.7,350.1 437.4,350.1 
		437.4,285.8 437.1,285.8 426.3,350.1 417.4,350.1 406.7,285.8 406.5,285.8 406.5,350.1 394.6,350.1 	"/>
	<polygon class="st0" points="459.5,262.4 495.8,262.4 495.8,275.9 475.5,275.9 475.5,298.3 490.5,298.3 490.5,312.6 475.5,312.6 
		475.5,336.5 496.6,336.5 496.6,350.1 459.5,350.1 	"/>
</g>
</svg>
