<?xml version="1.0" encoding="utf-8"?>
<!-- Generator: Adobe Illustrator 25.2.1, SVG Export Plug-In . SVG Version: 6.00 Build 0)  -->
<svg version="1.1" id="Layer_1" xmlns="http://www.w3.org/2000/svg" xmlns:xlink="http://www.w3.org/1999/xlink" x="0px" y="0px"
	 viewBox="0 0 610 610" style="enable-background:new 0 0 610 610;" xml:space="preserve">
<style type="text/css">
	.st0{fill:#FFFFFF;}
</style>
<g>
	<path class="st0" d="M78.3,359.6h116V249.4h-116V359.6z M82,253h81.2c-0.2,0.6-0.1,1.3-0.1,1.3s-1.4,0.1-1.4,1.1
		c0.1,1,2.9,2.5,2.9,2.5c-4.7,0-8.5,2.5-8.5,2.5c-1.6-0.9-2.1-0.5-2.3,1c-0.3,1.5,0.8,3.8,0.8,3.8l3.5,0.1l0.7-0.9
		c0-1.7,1.7-2,1.7-2c-0.1-1.5,1.9-1.6,1.9-1.6s2,0.3,2.3,0.7c0.3,0.4,0.7,1.2,1.8,0.2c1.1-0.9,1.7,0.3,1.7,0.3l-0.1,1.6
		c0,0,0.1-0.3,0.3,0.8c0.2,1.2-1,1-1,1l-0.7,0.6l-0.2,0.7l-1.1,0.1c0.6,0.8,0,1.9,0,1.9c-1.4,3.3-3.6,0.3-4-0.6
		c-0.4-1-1.1-1.1-0.9-0.7c0.2,0.4,0.6,1.9,0.2,4.5c-0.4,2.5-1.7,0.3-1.7,0.3s-0.7-0.9-1.3-3.3c-0.6-2.3-1.4-1.2-1.4-1.2
		s1.1,3.8,2,5.7c1,1.9,2.6,2.6,2.6,2.6s0.3,0.2,1.1-0.3c0.8-0.5,0.5,0.3,0.5,0.3c-2.6,4.9-6.1,4.2-7.9,6c-1.8,1.8-0.3,2.3,0.4,2.3
		c0.7,0,2.9-1.6,3.5-2c0.6-0.4,1-0.6,0.3,0.6c-0.7,1.2-3,2.2-4.3,2.8c-1.3,0.6-1.4,1.2-1.4,1.7c0.1,0.5-0.5,1.9-0.8,2.1
		c-0.3,0.3-1.1,0.5-1.1,0.5c-1.5,1.8,0.3,1.7,1,1.6c0.6-0.1,1.8-0.9,4-2.2c2.1-1.3,1.2,0.3,0.5,1.3c-0.7,1-3.3,2.7-4.7,3.6
		c-1.4,0.8-1,1.5-1,1.5c3.1-0.2,7.5-3.9,10.8-8c3.3-4.1,3.9-11.4,3.9-11.4c0.1-0.4-0.6-4.9-0.6-4.9h0.5c0,0,2,2.2,1.8,10.6
		c-0.2,8.5-3.9,12-5.4,13.5c-1.5,1.5-1.2,0.4-1.2,0.4c2-2.2,3.7-6.6,4.1-8.1c0.3-1.5-0.7-0.5-0.7-0.5c-0.4,2.8-7.1,9-7.1,9
		c-0.9,0.8-0.7-0.1-0.7-0.1c3.4-4.5-1.9-0.6-1.9-0.6c-1.3,0.2-1.1,0.8-1.1,0.8c2.8,4,12.5,4.2,12.2,4.8c-0.3,0.5-1.7,0.9-2.5,0.9
		c-0.8,0-2.1,0.1-3.5-1.2c-1.5-1.2-1.4-0.3-1.4-0.3c-0.2,3.7,9,5.7,9.5,5.7c0.4,0.1,0.6,0.5,0.6,0.5s0.3,0.9-2.1,0.9
		c-2.4,0-7.7-4-9.5-6.1c-1.8-2.1-1.6-0.6-1.6-0.6c0.3,1.7,5.9,6.7,7.3,8.1c1.4,1.5-0.4,1-1.2,1c-0.8,0-8.7-10.3-9.5-10.9
		c-0.7-0.5-1.6-1.5-3.2-2.1c-1.7-0.5-0.6-1.5-0.6-1.5c-1.1-2.1-1.3-4-1.5-4.7c-0.1-0.7,0.5-2.7,0.5-2.7c-0.1-1.3,2.1-3.8,1.5-4.4
		c-0.6-0.6-1.3-3.1-1.3-3.1c0.5-5.7-0.5-5.6-0.5-5.2c0,0.4-1.5,1.6-1.5,1.6c-0.1,0.5-3.4,0.3-3.4,0.9c0,0.7,0.6,0.6,0.9,1.4
		c0.4,0.7-1.9,0.7-1.9,0.7c-2.9,1-0.6,1.4-0.8,2.1c-0.1,0.7-1.7,1.1-2.9,1.5c-1.2,0.4-4-0.1-3.6,0.9c0.5,1,2,0.8,2.1,1.7
		c0,0.9-1.8,0.5-1.8,0.5c-1.5-1.2-2.2-1.2-3.5-1.4c-1.3-0.1-1.4,0.9-1.4,0.9s1.2,0.1,1.5,0.2c0.4,0.1,1.4,0.4,1.2,0.7
		c-0.2,0.4-0.2,0.4-0.7,0.4s-2-0.6-2.6-0.6c-0.5,0-1.5,0.2-1.9,0.7c-0.4,0.6-0.1,0.4,0.7,0.6c0.8,0.3,0.4,0.7,0.4,0.7
		s-2.3,1.7-2.5,1.7c-0.2,0-2,2-2,2.1c0,0.1-0.5,0.6-0.5,0.9c0,0.3-1.6,2.1-1.6,2.1c-0.2-0.2-3.7,3-3.7,3l-1.1-0.6
		c0,0-1.2-0.3-0.8,1.2c0.4,1.6,3.1,4,3.1,3.5c0-0.5,2.5-4,2-2.5c-0.5,1.6,1.8,2.7,1.4,2.1c-0.3-0.6,0.5-1.6,0.5-1.6s1.3-0.8,1.4-2.2
		c0.1-1.5,1.1-3,1.6-4.7c0.6-1.7,10-4.6,12.3-5.4c2.3-0.7,5-2.2,5.3-2.1c0.3,0.1,0.3,0.3,0.3,0.3s0,2.3-0.1,3
		c-0.1,0.7,1.4,3.5,1.4,3.5c0.6,0.4,1.4,1.6,1.4,1.6s0.3,1.1,0.3,1.5c0,0.4,0.3,1.3,1.4,1.8c1.2,0.5,1,1.1,1,1.1
		c0.1,0.9-1.7,0.9-1.6,2c0.1,1.2,1.8,2.4,1.8,2.4c4.6,2.5,2.6,2,2.6,2c-5.1-2.1-4.4-1.2-4.4-1.2c0.8,1.9,4.2,2.6,4.9,2.9
		c0.7,0.3,1.6,0,1.9,1.4c0.3,1.4,0.8,2.2,1.7,3.2c0.9,1,2.1,1.6,5.1,3.1c3,1.5,2.7,2.5,3.5,3c0.8,0.6,1.3,2.5,1.9,5.8
		c0.5,3.3,2.3,4,2.5,4c0.2,0,0.4-0.1,1.1-0.8c0.7-0.8,0.5-0.7,1-0.3c0.5,0.4-1,2.9-1,2.9c-2.5,2.1-4,6.3-4.1,6.8
		c-0.1,0.5,0.5,1,0.5,1c0.7,0.3,1-0.1,0.9,0.4c-0.1,0.5-0.3,0.9-0.5,0.9c-0.1,0.1-0.6,0.3-0.5,1.5c0.1,1.2,0.3,1.2,0.6,1.3
		c0.2,0.1,0.7,0.8,0.4,0.8c-0.3-0.1-1.3,2.1-1.3,2.1c-1.3,1.1-1.3,3.2-1.3,3.7c0,0.5,0.2,1.8,0.4,2.5c0.2,0.7,2.4,1.4,2.2,1.5
		c-0.2,0.1-0.7,0.6-0.7,0.6l-0.3,2.3h-33.5c-0.4-0.6-1.2-1.9-1.8-2.1c-0.7-0.3-2.5-0.9-2.5-2.2c0.1-1.3-0.5-1,0.4-2.4
		c0.9-1.5,8-12.5,12.9-14.1c4.9-1.7,3-3.3,3.8-2.5c0,0,9.3-9.8,9.2-10.4c0,0,3.8-0.5,3.2-0.7c-1.7-0.4-6.8-5.6-6.8-5.6
		c-0.1-0.1-2.5-2.1-3-2.5c-0.2-0.2-1.7-2.7-1.7-2.7l-0.4,0v1.3c0,0,0.7,2,1.2,2.5c0.5,0.5,2,2.6,1.8,3.9c0,0-0.2,3.9-2.7,5.2
		c-2.4,1.2-2.9,2-6.7,3c0,0-0.1,0.8,0,0.8c0.1,0,1.6,0.7,2.2,0.5c0.6-0.2,0.8,0.1,1.8-0.3c1.1-0.4,0.9,0.3,0.9,0.3s-2.4,0.8-3.1,0.9
		c-0.6,0-4.1,0.2-3.6,0.9c0.5,0.7,1,0.9,0.9,1.2c-0.2,0.3-2.9,1.2-2.8,1.9c0.1,0.6,0.7,0.2,0.6,0.7c-0.1,0.6-4.6,1-4.7,0.7
		c0,0-0.3,1.1,0,1.3c0.2,0.3-2.6,1.3-3.5,2.6c-0.9,1.3-3.3,2.9-3.6,3.4c-0.3,0.5-1.4,1.1-1.2,3.2c0,0-2.3-1.1-3.8,1.5
		c0,0-0.5,1.8,1.1,3c1.6,1.2,3,5.6,4.3,6.3v0.2H82V253z M173.7,291.4c1.8,1.4,0.3,2-0.5,0.9c-0.8-1.1-2.9-1.2-2.9-1.2
		s-2.4-0.3-0.2-1.2c2.2-1,2.4-1.1,2.7-1.1c0.3,0,1.1-0.2,2.4,0.6c1.4,0.8,1,1.4-0.5,0.9C173.4,289.8,172,290,173.7,291.4
		 M169.9,292.3c0,0,0.9,0.7-1.2,1.9c0,0-1.4,0-1.4,2.3c0,0,0.1,0.9-0.8,1.6c-1,0.7-5,3-2.9-1.1c2-4.1,3.8-4.6,3.8-4.6
		S168.3,291.1,169.9,292.3 M190.7,356h-7.9c-1.3-0.8-2.8-1.6-3-1.4c-0.3,0.4-6-3.8-6-3.8c-0.8-1.5,0.9-16.2,0.8-16.7
		c-0.1-0.5,1.6-5.5,1.6-5.5s1-3.3-0.1-3.5c-1.1-0.3-1.8-2.1-2-2.3c-0.2-0.2-0.7-2.3-0.7-2.3c-1.8-0.7-2.7-3.4-2.7-3.4
		s-0.3-2.1-1-2.4c-0.8-0.3-0.4-0.6-0.4-0.6c4.9-6.6,3.6-5.5,4.2-8c0.6-2.5-2.7-3.8-2.2-4.7c0.5-0.9,1.1-1.5-0.5-3.6
		c-1.6-2.1,1-2.5,1-2.5c4.5,2.4,6.8-0.7,7.8-1.3c1-0.5,3.2-5.2,0-7.1c-3.2-1.9-4.6-5.5-4.6-5.5c-1.1-5.7-3.6-8.1-3.6-8.1
		c-3.6-2.6-4.6-1.7-5-2.7c-0.4-1,4.7-5.6,4.7-5.6c3.6,0.1,4.8-2.2,4.8-2.2c-2.5-5.4-5-5.2-5-5.2c-2.2-2.6-3.8-3.9-4.9-4.6h24.6
		L190.7,356L190.7,356z"/>
	<path class="st0" d="M234.9,249.9h1.4v11.5h-1.4c-0.3-3.2-1.5-5.6-3.5-7.4c-2-1.8-4.4-2.7-7.4-2.7c-2.6,0-4.8,0.7-6.4,2
		c-1.6,1.3-2.4,3.1-2.4,5.3c0,2.1,0.7,3.9,2,5.6c1.4,1.7,4.2,3.9,8.7,6.6c5.2,3.1,8.7,5.8,10.4,8.1c1.8,2.3,2.7,4.9,2.7,7.9
		c0,3.8-1.4,7.1-4.1,9.8c-2.7,2.7-6,4.1-9.8,4.1c-2.2,0-5.1-0.6-8.5-1.8c-1.4-0.5-2.3-0.8-2.7-0.8c-0.8,0-1.4,0.6-1.9,1.9h-1.5
		v-13.2h1.5c0,3.6,1.2,6.6,3.6,8.8c2.3,2.2,5.1,3.3,8.2,3.3c3,0,5.4-0.8,7.2-2.4c1.8-1.6,2.7-3.7,2.7-6.4c0-2-0.7-3.8-2.2-5.7
		c-1.5-1.8-4.5-4.2-9.2-7c-3.8-2.3-6.4-4.2-7.7-5.6c-1.3-1.4-2.2-2.9-2.8-4.5c-0.6-1.6-0.9-3.4-0.9-5.4c0-3.8,1.2-6.9,3.7-9.2
		c2.5-2.3,5.7-3.5,9.6-3.5c2.2,0,4.5,0.4,7.1,1.3c1.2,0.4,2,0.6,2.5,0.6c0.4,0,0.6-0.1,0.8-0.2C234.6,250.9,234.8,250.5,234.9,249.9
		"/>
	<path class="st0" d="M251.9,268.5h1.4V294c0,1.6,0.4,2.8,1.1,3.3c0.7,0.6,2,0.9,4,0.9v1.4h-16.6v-1.4c2.4,0,4-0.3,4.7-0.8
		c0.7-0.5,1-1.7,1-3.4v-18.6c0-1.8-0.3-3.1-1-3.6c-0.6-0.6-2.3-0.9-4.8-0.9v-1.4L251.9,268.5z M250.6,252.8c1,0,1.9,0.4,2.6,1.1
		c0.7,0.7,1.1,1.6,1.1,2.6c0,1-0.4,1.9-1.1,2.6c-0.7,0.7-1.6,1.1-2.6,1.1c-1.1,0-2-0.4-2.7-1.1c-0.8-0.7-1.1-1.6-1.1-2.6
		c0-1,0.4-1.9,1.1-2.6C248.6,253.2,249.5,252.8,250.6,252.8"/>
	<path class="st0" d="M272.8,268.5v6.3h0.1c1.3-1.9,2.9-3.4,4.8-4.6c2-1.1,4-1.7,6-1.7c2.2,0,4.2,0.6,5.9,1.8c1.7,1.2,2.9,2.9,3.6,5
		c3.2-4.5,7-6.8,11.2-6.8c2.9,0,5.4,0.9,7.4,2.7c1.9,1.8,2.9,4.3,2.9,7.5v15.2c0,1.6,0.4,2.7,1.1,3.3c0.7,0.6,2.1,0.9,4,0.9v1.5h-16
		v-1.5c2.2,0,3.6-0.4,4.2-1.1c0.6-0.7,0.9-2.3,0.9-4.7V278c0-1.9-0.6-3.5-1.7-4.6c-1.2-1.1-2.8-1.7-4.8-1.7c-3.2,0-6,2-8.6,5.8v16.2
		c0,1.7,0.4,2.8,1.1,3.4c0.7,0.6,2,0.9,4,0.9v1.5h-15.9v-1.5c2.3,0,3.7-0.4,4.3-1.1c0.5-0.7,0.8-2.3,0.8-4.7v-14
		c0-2-0.6-3.6-1.8-4.8s-2.7-1.8-4.6-1.8c-1.6,0-3.2,0.5-4.8,1.6c-1.6,1.1-2.9,2.5-3.9,4.3V294c0,1.6,0.4,2.6,1.1,3.3
		c0.7,0.6,2.1,0.9,4,0.9v1.4h-16.1v-1.5c2.2,0,3.6-0.3,4.2-1c0.6-0.7,0.9-2,0.9-3.9v-17.9c0-1.6-0.3-2.7-1-3.4c-0.6-0.7-1.7-1-3.2-1
		h-1.9v-1.4l10.4-0.9L272.8,268.5L272.8,268.5z"/>
	<path class="st0" d="M355.1,284.6c0,4.6-1.6,8.4-4.7,11.4c-3.2,3-7.1,4.6-11.9,4.6c-4.7,0-8.7-1.5-11.8-4.6
		c-3.2-3.1-4.8-6.9-4.8-11.4c0-4.6,1.6-8.5,4.7-11.5c3.1-3.1,7.1-4.6,11.9-4.6c4.8,0,8.7,1.5,11.9,4.6
		C353.5,276.1,355.1,279.9,355.1,284.6 M348.8,284.6c0-4.3-0.9-7.8-2.7-10.4c-1.9-2.6-4.3-4-7.5-4c-3.2,0-5.7,1.3-7.5,3.9
		c-1.9,2.6-2.8,6.1-2.8,10.5c0,4.4,0.9,7.8,2.7,10.4c1.8,2.6,4.4,3.9,7.5,3.9c3.2,0,5.7-1.3,7.6-3.9
		C347.9,292.3,348.8,288.9,348.8,284.6"/>
	<path class="st0" d="M368.1,268.5v6.1c3.5-4,7.2-6.1,10.9-6.1c2.9,0,5.3,1,7.3,3c1.9,2,2.9,4.6,2.9,7.9V293c0,2.1,0.4,3.5,1.1,4.2
		c0.7,0.6,2.1,1,4.1,1v1.4h-16.2v-1.4c2,0,3.4-0.3,4.1-0.8c0.7-0.5,1.1-1.5,1.1-3v-15.8c0-2.1-0.6-3.8-1.9-5.1
		c-1.3-1.3-2.9-1.9-4.9-1.9c-2.8,0-5.7,2-8.6,5.9v14.8c0,2.5,0.3,4.1,1,4.8c0.6,0.7,2,1,4.1,1v1.4h-15.9v-1.4c2.3,0,3.7-0.4,4.3-1.1
		c0.5-0.7,0.8-2.3,0.8-4.7v-17.1c0-1.8-0.3-3-1-3.6c-0.7-0.6-2-0.9-4.1-0.9v-1.4l9.5-0.9L368.1,268.5L368.1,268.5z"/>
	<path class="st0" d="M423.4,264.1c0-3.3,1.1-5.9,3.3-8c2.2-2.1,5-3.1,8.3-3.1c2.7,0,5.1,0.9,7,2.6c1.9,1.7,2.9,3.8,2.9,6.3
		c0,4.2-2.9,7.8-8.8,10.9c3.4,3,7.6,7.5,12.6,13.5c2.4-4.1,3.6-7.5,3.6-10.2c0-1.5-0.3-2.6-0.8-3.2c-0.5-0.6-1.5-0.9-2.8-1v-1.4h14
		v1.4c-2.2,0-3.7,0.3-4.4,0.9c-0.8,0.6-1.5,1.4-2.1,2.3c-0.6,0.9-1.4,2.6-2.3,4.9c-1.3,3.4-2.6,6-3.9,8c3.2,4,5.4,6.6,6.7,7.7
		c1.3,1.1,2.4,1.7,3.3,1.7c1,0,2.1-0.6,3.3-1.7l1.1,0.9c-1.9,2.9-4.5,4.3-7.7,4.3c-1.4,0-2.7-0.4-4-1.1c-1.3-0.7-2.9-2.2-4.8-4.4
		c-0.8-0.9-1.4-1.5-1.8-1.9c-4,4.9-8.8,7.4-14.2,7.4c-3.8,0-7.1-1.2-9.7-3.5c-2.6-2.4-4-5.2-4-8.6c0-2.5,0.9-5,2.8-7.4
		c1.9-2.4,4.5-4.5,7.9-6.4C425.3,271.5,423.4,267.9,423.4,264.1 M424.1,285.7c0,2.9,1.2,5.5,3.5,7.9c2.3,2.4,4.9,3.6,7.8,3.6
		c1.8,0,3.4-0.4,4.8-1.2c1.5-0.8,3.1-2.1,4.7-4c-5.4-6.6-10.3-11.8-14.8-15.7c-1.8,1-3.3,2.4-4.4,4.1
		C424.7,282,424.1,283.8,424.1,285.7 M427.6,261.4c0,1.5,0.6,3.1,2,5c1.3,1.9,3,3.6,5.2,5.3c3.8-2.2,5.7-5.3,5.7-9.2
		c0-2-0.6-3.8-1.8-5c-1.2-1.3-2.8-2-4.7-2c-1.8,0-3.4,0.5-4.5,1.7C428.2,258.2,427.6,259.6,427.6,261.4"/>
	<path class="st0" d="M308.1,309.7h1.4v11.5H308c-0.3-3.2-1.5-5.6-3.4-7.4c-2-1.8-4.4-2.7-7.4-2.7c-2.7,0-4.8,0.7-6.4,2
		c-1.6,1.3-2.4,3.1-2.4,5.3c0,2.1,0.7,4,2,5.6c1.3,1.7,4.2,3.9,8.7,6.6c5.2,3.1,8.7,5.8,10.5,8.1c1.8,2.3,2.7,5,2.7,7.9
		c0,3.8-1.4,7.1-4.1,9.9c-2.7,2.7-6,4.1-9.9,4.1c-2.2,0-5.1-0.6-8.5-1.9c-1.4-0.5-2.3-0.7-2.7-0.7c-0.8,0-1.4,0.6-1.9,1.9h-1.4
		v-13.2h1.4c0,3.7,1.2,6.6,3.5,8.8c2.4,2.2,5.1,3.3,8.2,3.3c3,0,5.4-0.8,7.2-2.4c1.8-1.6,2.7-3.8,2.7-6.4c0-2-0.7-3.9-2.2-5.7
		c-1.5-1.8-4.5-4.2-9.2-7c-3.8-2.4-6.4-4.2-7.6-5.6c-1.3-1.4-2.2-2.9-2.8-4.5c-0.6-1.6-0.9-3.4-0.9-5.4c0-3.8,1.2-6.8,3.7-9.1
		c2.5-2.3,5.7-3.5,9.6-3.5c2.2,0,4.5,0.4,7.1,1.3c1.2,0.4,2,0.6,2.5,0.6c0.4,0,0.7-0.1,0.8-0.2C307.8,310.7,307.9,310.3,308.1,309.7
		"/>
	<path class="st0" d="M345.5,328.3V339H344c-0.6-2.8-1.9-5-3.7-6.6c-1.8-1.6-4-2.4-6.5-2.4c-3,0-5.5,1.2-7.4,3.5
		c-1.9,2.3-2.8,5.4-2.8,9.1c0,4.1,1.1,7.7,3.4,10.7c2.2,3,4.9,4.5,8,4.5c2.1,0,4.1-0.6,6.1-1.7c2-1.1,3.8-2.7,5.2-4.6v2.2
		c-3.3,4.5-7.7,6.7-13.3,6.7c-4.5,0-8.1-1.4-11-4.3c-2.9-2.8-4.2-6.5-4.2-11.1c0-4.6,1.5-8.6,4.6-11.9c3.1-3.3,6.7-4.9,11-4.9
		c1.9,0,4.1,0.4,6.4,1.2c1,0.3,1.7,0.5,2.1,0.5c0.9,0,1.6-0.6,2.1-1.7L345.5,328.3L345.5,328.3z"/>
	<path class="st0" d="M373.6,353.1v-15c0-2-0.6-3.6-1.7-4.8c-1.1-1.2-2.6-1.8-4.4-1.8c-1.7,0-3.2,0.4-4.6,1.3
		c-1.4,0.9-2.8,2.4-4.2,4.5v16.6c0,1.5,0.4,2.6,1.1,3.2c0.7,0.6,2,0.9,4,0.9v1.4h-16.2V358c2.3-0.1,3.8-0.4,4.4-1.1
		c0.6-0.7,0.9-2.3,0.9-4.7v-39.5c0-1.9-0.3-3.1-1-3.6c-0.7-0.6-2.1-0.9-4.4-0.9v-1.4l9.8-1.1h1.4v28.7c1.9-2.2,3.7-3.8,5.3-4.7
		c1.6-0.9,3.4-1.4,5.3-1.4c2.9,0,5.4,1,7.2,2.8c1.9,1.9,2.9,4.5,2.9,7.7v13.4c0,2.4,0.3,3.9,1,4.7c0.6,0.7,1.9,1.1,3.9,1.1v1.4
		h-15.8V358c2.1,0,3.4-0.3,4.1-1C373.3,356.4,373.6,355,373.6,353.1"/>
	<path class="st0" d="M413.9,328.3h1.4v25.4c0,1.7,0.4,2.8,1,3.4c0.7,0.6,2.1,0.9,4.2,0.9v1.4l-11,0.6v-5.6h-0.2
		c-3,4-6.6,5.9-10.6,5.9c-2.9,0-5.3-1-7.1-2.9c-1.9-1.9-2.8-4.4-2.8-7.3v-15.5c0-1.6-0.4-2.6-1.2-3.2c-0.8-0.6-2.2-0.8-4.2-0.8v-1.4
		l9.7-0.9h1.5v21.6c0,2.1,0.6,3.8,1.9,5c1.2,1.2,2.9,1.8,5,1.8c2.9,0,5.6-1.6,8-5v-16.3c0-2.1-0.3-3.4-1-3.9
		c-0.6-0.5-2.3-0.8-4.9-0.9v-1.4L413.9,328.3z"/>
	<path class="st0" d="M443.5,328.3v9.3h-1.7c-0.3-2.4-1.1-4.2-2.5-5.6c-1.4-1.4-3.1-2.1-5.1-2.1c-1.5,0-2.7,0.4-3.6,1.1
		c-0.9,0.7-1.4,1.8-1.4,3c0,1.2,0.4,2.3,1.3,3.2c0.9,0.9,2.7,2.1,5.5,3.4c3.7,1.7,6.1,3.3,7.3,4.8c1.2,1.5,1.8,3.4,1.8,5.5
		c0,2.5-1,4.7-2.9,6.6c-1.9,1.9-4.1,2.8-6.7,2.8c-1.4,0-3.1-0.5-5.3-1.4c-1.2-0.5-2-0.8-2.4-0.8c-0.5,0-1,0.2-1.4,0.6
		c-0.3,0.4-0.6,0.9-0.6,1.4h-1.4v-10.3h1.4c0.5,2.7,1.7,4.9,3.5,6.4c1.8,1.6,3.9,2.4,6.2,2.4c1.5,0,2.8-0.5,3.8-1.5
		c1-1,1.5-2.3,1.5-3.7c0-1.4-0.5-2.6-1.4-3.7c-0.9-1-3-2.3-6.1-3.6c-3.5-1.5-5.8-3-6.9-4.3c-1.1-1.3-1.6-2.9-1.6-4.9
		c0-2.4,0.9-4.4,2.7-6.1c1.8-1.7,4-2.6,6.5-2.6c1.2,0,2.4,0.3,3.8,0.9c1,0.4,1.8,0.6,2.4,0.6c0.8,0,1.4-0.5,1.8-1.4L443.5,328.3
		L443.5,328.3z"/>
	<path class="st0" d="M458,318.8h1.5V329H470v2.2h-10.5v19.5c0,2,0.5,3.6,1.4,4.7c0.9,1.1,2.3,1.7,4,1.7c2,0,3.9-1,5.6-2.9l1,1.1
		c-2.6,3.4-5.7,5.1-9.2,5.1c-2.6,0-4.7-0.8-6.3-2.5c-1.6-1.6-2.4-3.8-2.4-6.3v-20.3H448v-1.5C452.2,327.7,455.5,324,458,318.8"/>
	<path class="st0" d="M502.3,351.6v2.2c-1.8,2.3-3.7,4-5.6,5c-1.9,1-4.2,1.5-6.9,1.5c-4.7,0-8.6-1.5-11.7-4.5
		c-3.1-3-4.6-6.7-4.6-11.3s1.5-8.4,4.4-11.6c3-3.2,6.6-4.7,10.8-4.7c3.5,0,6.6,1.2,9.2,3.6c2.6,2.4,3.9,5.2,3.9,8.5v0.6h-22.3v0.4
		c0,3.3,0.5,6.2,1.5,8.7c1,2.5,2.5,4.4,4.4,5.8c1.9,1.4,4,2.1,6.1,2.1c2,0,3.7-0.4,5.1-1.2C498.1,355.9,499.9,354.2,502.3,351.6
		 M479.5,339.5H496v-0.6c0-2.7-0.8-4.8-2.3-6.4c-1.5-1.6-3.5-2.4-5.8-2.4c-2.4,0-4.4,0.8-5.9,2.5
		C480.5,334.2,479.7,336.5,479.5,339.5"/>
	<path class="st0" d="M515.8,328.3v6.5c2.8-2.4,5-4.1,6.5-5.1c1.5-1,2.8-1.5,3.9-1.5c1.9,0,3.8,0.8,5.5,2.4l-2.3,5.4
		c-3.2-1.8-5.6-2.7-7.2-2.7c-1.7,0-3.9,1.2-6.4,3.7v16.6c0,1.7,0.4,2.8,1,3.4c0.7,0.6,2,0.9,4,0.9v1.4h-16V358c2.1,0,3.5-0.3,4.2-1
		c0.7-0.7,1-2.3,1-4.8v-16.6c0-2.1-0.4-3.5-1-4.1c-0.7-0.6-2.5-0.9-5.2-0.9v-1.4l10.6-0.9L515.8,328.3L515.8,328.3z"/>
</g>
</svg>
