<?xml version="1.0" encoding="utf-8"?>
<!-- Generator: Adobe Illustrator 25.2.1, SVG Export Plug-In . SVG Version: 6.00 Build 0)  -->
<svg version="1.1" id="Layer_1" xmlns="http://www.w3.org/2000/svg" xmlns:xlink="http://www.w3.org/1999/xlink" x="0px" y="0px"
	 viewBox="0 0 610 610" style="enable-background:new 0 0 610 610;" xml:space="preserve">
<style type="text/css">
	.st0{fill:#FFFFFF;}
</style>
<g>
	<path class="st0" d="M207.8,252.3v27.1c1-0.8,1.8-1.5,2.6-2.1c3.2-2.3,6.8-3.6,10.9-3.3c5.3,0.5,9.2,4.9,9.2,10.7
		c0,5.2,0,10.5,0,15.7c0,1.2,0,2.3,0.1,3.5c0.2,3.5,0.7,4,4.2,4.3c0.5,0,1.1-0.1,1.2,0.8c0,0.9-0.1,1.4-1.2,1.4c-5-0.1-10,0-15,0
		c-0.5,0-1.2,0.2-1.2-0.8c0-0.9,0.2-1.3,1.2-1.3c0.6,0,1.3-0.2,1.9-0.3c1.4-0.2,2.3-1.1,2.3-2.6c0-6.8,0.5-13.7-0.2-20.5
		c-0.5-4.3-3.3-6.4-7.6-6.3c-2.8,0-5.2,0.9-7.4,2.6c-0.7,0.6-1.1,1.2-1.1,2.2c0.1,6.9,0,13.7,0,20.6c0,3.2,0.7,4,3.9,4.3
		c0.7,0.1,1.6-0.1,1.5,1.1c0,0.8-0.2,1-1,1c-5.1,0-10.3,0-15.4,0c-0.6,0-1.1,0.1-1.1-0.8c0-0.8,0.1-1.2,1-1.3c4.3-0.6,4.7-1,4.7-5.3
		c0-13.6,0-27.2,0-40.9c0-0.1,0-0.3,0-0.5c-0.1-3.8-0.6-4.3-4.4-4.5c-0.6,0-1.5,0.2-1.5-1c0-1.1,0.8-1,1.4-1.1
		c3.2-0.8,6.5-1.5,9.7-2.3c0.3-0.1,0.7,0,0.9-0.4L207.8,252.3L207.8,252.3z"/>
	<path class="st0" d="M474.5,271.7c6.6,4.3,13.3,8.6,20,13c-0.1-1-0.8-1.7-1.2-2.5c-1.3-3-1.3-6-0.6-9c0.4-1.5,0.6-3.1,0.5-4.6
		c-0.2-3-1.6-5.1-4.4-6.3c-0.5-0.2-0.9-0.3-1.4-0.5c4-2.4,9.7,0,11.7,4.7c0.7,1.7,0.5,3.5,0.8,5.2c0.5,3.5,2.4,7.8,4.6,10
		c1.8-8.4,3.5-16.7,5.2-25c0.1,0,0.2,0,0.2-0.1c1.7,7.9,3.4,15.9,5,23.8c1.1-4.6,4-7.6,7.9-9.9c2.9-1.8,5.1-4.2,4.6-8
		c-0.1-1.1-0.7-2.1-1.2-3.2c1.5,0.3,2.6,1,3.5,2.1c3,3.5,2.8,8.6-0.3,12c-3.1,3.3-4.9,7.2-5.5,12.1c7.4-4.8,14.5-9.4,21.6-14
		l0.2,0.2c-4.4,6.7-8.8,13.4-13.2,20.1c0.4,0.4,0.6,0,0.8-0.1c3.2-1.9,6.6-2.3,10.2-1.5c1.4,0.3,2.7,0.7,4.2,0.7c4,0,6.6-1.8,7.8-6
		c1.2,1.8,1.2,3.5,0.8,5.2c-0.9,4.1-4.5,7-8.7,7.1c-4.2,0.1-8,1.5-11.4,3.9c-0.2,0.1-0.3,0.2-0.5,0.4c0,0.1,0,0.2-0.1,0.4
		c8.3,1.7,16.6,3.4,24.8,5.2l0,0.3c-8,1.7-16.1,3.3-24.1,5c4.7,0.9,7.8,3.6,10.1,7.5c1.6,2.6,3.6,4.7,7,4.9c1.6,0.1,3-0.5,4.6-1.3
		c-0.4,2-1.5,3.2-3,4.2c-3.4,2.3-8.1,1.9-11.2-0.9c-3.3-3.1-7.2-4.8-12.2-5.5c4.8,7.3,9.3,14.2,13.9,21.1c-0.1,0.1-0.2,0.2-0.3,0.4
		l-20-13c0.5,1.5,1.2,2.8,1.6,4.3c0.6,2.4,0.5,4.7-0.1,7c-1.6,6.4-0.4,8.8,5.3,11.6c-4.4,2.5-10.8-0.7-12-6
		c-0.5-2.1-0.3-4.3-0.9-6.4c-0.8-2.7-2.4-5.9-4.1-7.6c-1.8,8.4-3.5,16.7-5.3,25h-0.2c-1.7-8-3.3-16-5-23.9c-0.4,0-0.4,0.4-0.4,0.6
		c-0.8,3.8-3,6.5-6.2,8.5c-1.1,0.7-2.2,1.4-3.2,2.3c-2.9,2.5-3.5,5.7-1.8,9.1c0.1,0.2,0.3,0.4,0.2,0.7c-5.6-1.6-7.4-9.4-3.2-13.9
		c3.3-3.5,5.1-7.4,5.6-12.2c-7.2,4.7-14.3,9.3-21.3,13.9c-0.1-0.1-0.2-0.2-0.3-0.2c4.3-6.6,8.7-13.2,13-19.8c-0.5-0.4-0.8,0-1.2,0.2
		c-3.1,1.7-6.3,2-9.7,1.2c-1.4-0.3-2.7-0.7-4.2-0.7c-4-0.1-6.3,1.6-7.9,6c-0.8-1.5-1.2-3-0.9-4.6c0.8-4.5,4.3-7.6,9.1-7.8
		c4.1-0.2,7.8-1.6,11.1-3.9c0.2-0.2,0.5-0.4,1-0.8c-8.6-1.8-16.9-3.5-25.3-5.2c0-0.1,0-0.2,0-0.3c8-1.7,16.1-3.3,24.1-5
		c-4.7-1-7.7-3.8-10.1-7.7c-1.7-2.8-4-4.8-7.6-4.7c-1.4,0-2.5,0.6-3.9,1.3c0.3-1.6,1.1-2.7,2.2-3.6c3.4-2.9,8.6-2.8,11.9,0.2
		c3,2.7,6.4,4.5,10.4,5.3c0.5,0.1,1.1,0.3,1.7,0c-4.5-6.9-9.1-13.8-13.6-20.7C474.1,271.8,474.2,271.6,474.5,271.7"/>
	<path class="st0" d="M98.2,273.8v5.9c2.2-1.4,4.3-2.7,6.4-3.9c2.9-1.7,6-2.4,9.3-1.5c2.7,0.7,4.7,2.3,5.9,4.8
		c0.4,0.9,0.7,1.1,1.6,0.4c2.1-1.6,4.4-3.1,6.8-4.2c3.1-1.5,6.3-1.8,9.5-0.7c4,1.4,6.3,5.1,6.3,10.2c0,6.3,0,12.5,0,18.8
		c0,3.7,0.4,4.2,4.1,4.7c0.9,0.1,1,0.5,1.1,1.2c0,1-0.6,0.9-1.2,0.9c-5.1,0-10.2,0-15.3,0c-0.6,0-1.1,0.1-1.1-0.8
		c0-0.8,0.1-1.2,1-1.3c4.7-0.7,4.9-0.9,4.9-5.6c0-5.5,0.1-11.1-0.1-16.6c-0.3-6.1-4.5-8.8-10.4-7c-2,0.6-3.8,1.7-5.4,2.9
		c-0.4,0.3-0.6,0.7-0.6,1.3c0,6.7,0.1,13.4,0.1,20.1c0,0.3,0,0.6,0,0.9c0.2,3.1,0.8,3.7,3.9,4.1c0.6,0.1,1.3-0.1,1.3,1
		c0,0.8-0.1,1.2-1,1.1c-5.1,0-10.2,0-15.3,0c-0.5,0-1.1,0.1-1.1-0.8c0-0.7,0.1-1.2,1-1.3c4.6-0.7,4.7-0.9,4.7-5.5
		c0-5.2,0-10.5,0-15.7c0-6.9-4.4-10-10.9-7.8c-0.4,0.1-0.8,0.4-1.3,0.5c-3,1.1-4.6,2.8-4.3,6.5c0.4,5.9,0.1,11.9,0.2,17.9
		c0,3.2,0.7,3.8,3.9,4.2c0.6,0.1,1.4-0.1,1.4,0.9c0,0.9-0.1,1.2-1.1,1.2c-5.1-0.1-10.3,0-15.4,0c-0.6,0-1.2,0.1-1.1-0.9
		c0-0.8,0.2-1.1,1-1.2c4.7-0.6,4.9-0.9,4.9-5.5c0-6.6,0-13.1,0-19.7c0-3.3-0.4-3.8-3.7-4.3c-0.3,0-0.6-0.1-0.9-0.2c-0.5,0-1,0-1-0.8
		c0-0.6,0.2-0.9,0.8-1C90.7,276.2,94.4,275.1,98.2,273.8"/>
	<path class="st0" d="M64.2,311.7c-4.3,0-8-1.1-11.7-2.6c-0.7-0.3-0.9-0.7-1-1.3c-0.7-3.5-1.3-7-2-10.5c-0.1-0.4-0.2-1,0.5-1
		c0.7,0,1.4-0.6,1.8,0.6c1,3,2.6,5.7,4.8,8c3.5,3.6,7.7,5.1,12.6,3.5c6.6-2.1,8.7-11.7,3.6-17.1c-2.4-2.6-5.6-4.1-8.7-5.5
		c-2.8-1.3-5.6-2.7-8-4.7c-8.2-6.9-5-19.3,3.9-23.2c5-2.2,10.1-1.9,15.4-0.6c2.3,0.6,3.1,1.7,3.2,3.9c0.1,2.4,0.6,4.7,0.9,7
		c0.1,0.5,0.3,1.1-0.5,1.1c-0.6,0-1.4,0.6-1.7-0.6c-0.5-2-1.3-3.9-2.5-5.6c-2.6-3.7-7.6-5.2-11.8-3.5c-5.4,2.2-7,9.8-3.1,14.4
		c2,2.4,4.7,3.7,7.5,5c2.3,1.1,4.6,2,6.8,3.3c5.6,3.2,8.6,7.8,8,14.4c-0.6,6.5-4.2,11-10.1,13.5C69.4,311.3,66.7,311.7,64.2,311.7"
		/>
	<path class="st0" d="M418.2,273.8v5.9c2.2-1.4,4.3-2.7,6.4-4c2.7-1.6,5.5-2.1,8.6-1.5c4.6,0.9,7.6,4.4,7.7,9.3
		c0.2,6.5,0.1,13,0.1,19.5c0,0.5,0,0.9,0,1.4c0.1,2.7,0.8,3.5,3.6,3.9c0.5,0.1,1.2-0.1,1.4,0.3c0.2,0.4,0.2,1,0.1,1.5
		c-0.1,0.6-0.7,0.3-1,0.3c-5.1,0-10.2,0-15.3,0c-0.5,0-1.1,0.2-1.1-0.8c0-0.7,0-1.2,1-1.3c4.7-0.6,4.9-0.9,4.9-5.6
		c0-4.9,0-9.8,0-14.7c0-0.5,0-1.1,0-1.7c-0.3-6.2-4.5-9.1-10.5-7.3c-0.6,0.2-1.2,0.5-1.8,0.7c-2.8,1.1-4.4,2.8-4.2,6.3
		c0.4,5.9,0.1,11.9,0.1,17.9c0,3.3,0.6,4,4,4.4c1,0.1,1.3,0.4,1.2,1.4c0,1.1-0.7,0.7-1.2,0.7c-5.1,0-10.2,0-15.3,0
		c-0.5,0-1.2,0.3-1.2-0.8c0-0.9,0.2-1.2,1.2-1.3c4.6-0.5,4.9-0.9,4.9-5.5c0-6.4,0-12.7,0-19.1c0-0.7-0.1-1.3-0.1-2
		c0-1.6-0.9-2.4-2.3-2.7c-0.7-0.1-1.5-0.3-2.2-0.4c-0.4-0.1-0.9,0-0.9-0.7c0-0.6,0.1-1,0.7-1.1C410.6,276.2,414.3,275.1,418.2,273.8
		"/>
	<path class="st0" d="M239.5,301.8c0-0.3,0-0.8-0.1-1.4c-0.2-1.1,0.6-1.1,1.3-1.4c1-0.3,0.8,0.5,0.9,1c0.9,2.5,2.2,4.8,4.2,6.6
		c0.6,0.5,1.3,1,1.9,1.4c2.8,1.5,6,1,7.7-1.1c1.9-2.3,1.8-6-0.2-8.4c-1.3-1.5-3-2.5-4.8-3.3c-2.1-1-4.2-2-6-3.4
		c-5.4-4.1-4.4-10.6-0.8-14.3c4.3-4.4,11.1-4.2,15.7-2.4c0.6,0.2,0.7,0.7,0.8,1.2c0.6,2,1,4,1.3,6c0.1,0.5,0.2,1-0.5,1.1
		c-0.6,0.1-1.3,0.7-1.7-0.4c-0.8-1.9-1.9-3.6-3.4-4.9c-1.9-1.6-4.1-2.1-6.5-1.2c-2,0.8-2.9,2.5-3.1,4.6c-0.2,1.9,0.7,3.4,2.1,4.6
		c1.4,1.2,3,2.1,4.6,2.8c1.9,0.8,3.7,1.6,5.3,2.8c7,4.9,6.4,14.4-1.3,18.1c-5.2,2.5-10.4,2.1-15.4-0.6c-0.8-0.4-1.3-1-1.4-2
		C239.9,305.5,239.6,303.8,239.5,301.8"/>
	<path class="st0" d="M177.5,291c0-3.8,0-7.6,0-11.4c0-1.2-0.2-1.7-1.5-1.6c-1.2,0.1-2.5,0-3.8,0c-0.3,0-0.7,0.1-0.9-0.4
		c-0.2-0.4,0.1-0.6,0.3-0.9c1.1-1.4,2.6-2.2,4.4-1.8c1.2,0.2,1.6-0.3,1.4-1.4c-0.5-2.8,0.5-4.8,2.7-6.5c0.9-0.7,1.6-1.5,2.4-2.3
		c0.3-0.4,0.7-0.4,1.1-0.3c0.5,0.1,0.3,0.6,0.3,0.9c0,2.6,0.1,5.2,0,7.9c0,1.3,0.2,1.9,1.7,1.8c2.2-0.1,4.4,0,6.7-0.1
		c0.9,0,1.7,0.2,1.5,1.2c-0.1,0.9-0.3,1.9-1.7,1.9c-2.3,0-4.6,0-7,0c-1,0-1.3,0.3-1.3,1.3c0,6.9,0,13.7,0,20.6
		c0,1.3,0.2,2.5,0.6,3.7c1,2.8,3.2,4,6.1,3.2c0.8-0.2,1.5-0.5,2.3-0.8c0.6-0.2,1-0.8,1.5,0.2c0.4,0.9,0.3,1.3-0.6,1.7
		c-1.8,0.8-3.5,1.7-5.3,2.6c-4.3,2.1-8.9,0.1-10.3-4.4c-0.5-1.4-0.7-2.8-0.7-4.3C177.5,298.3,177.5,294.7,177.5,291"/>
	<path class="st0" d="M397.6,335.6c0-3.7,0-7.5,0-11.2c0-1,0.1-1.4,1.3-1.4c5.5,0.1,11,0.1,16.5,0c1,0,1.3,0.3,1.3,1.3
		c0,3.7,0,3.7-3.7,3.7c-2.9,0-5.8,0-8.8,0c-0.9,0-1.2,0.2-1.1,1.1c0.1,1.2-0.4,2.9,0.3,3.6c0.7,0.8,2.4,0.2,3.6,0.2
		c2.3,0,4.5,0,6.8,0c0.8,0,1.2,0.1,1.2,1.1c0,3.9,0.1,3.9-3.8,3.9c-2.3,0-4.6,0-7,0c-0.8,0-1.2,0.2-1.1,1.1c0.1,1.3-0.6,3.1,0.3,3.9
		c0.7,0.6,2.4,0.2,3.6,0.2c2.8,0,5.6,0.1,8.5,0c1.1,0,1.3,0.3,1.3,1.3c0,3.6,0,3.6-3.7,3.6c-4.8,0-9.6,0-14.4,0
		c-0.9,0-1.2-0.2-1.2-1.2C397.6,343.1,397.6,339.3,397.6,335.6"/>
	<path class="st0" d="M253.1,322.5c3.4,0,6.4,0.9,9,3.2c0.6,0.5,0.7,0.9,0.1,1.4c-0.1,0.1-0.3,0.3-0.4,0.4c-0.8,0.9-1.4,2.1-2.3,2.5
		c-1.1,0.4-1.8-1-2.8-1.5c-3-1.4-6-1.2-8.3,0.7c-2.4,2-3.4,5.6-2.3,8.8c1,3,3.2,4.9,6.4,5.1c2.3,0.2,4.4-0.6,6.1-2.2
		c0.8-0.7,1.2-0.6,1.8,0.1c0.6,0.7,1.3,1.4,2,2c0.5,0.5,0.6,0.8,0.1,1.3c-4,3.9-8.8,4.8-14,3.1c-4.9-1.5-7.8-5.1-8.5-10.2
		c-0.8-5.5,1.1-10,5.9-13.1C248,323.1,250.5,322.5,253.1,322.5"/>
	<path class="st0" d="M164.2,273.8v27.7v1.4c0,4.5,0.4,5,4.8,5.5c0.8,0.1,1.1,0.4,1.1,1.2c0,1-0.5,0.9-1.1,0.9c-5.3,0-10.6,0-15.9,0
		c-0.5,0-1.1,0.2-1.1-0.7c0-0.8,0.1-1.3,1.1-1.4c4.3-0.5,4.7-1,4.7-5.3v-19.5c0-3.7-0.3-4.1-3.9-4.7c-0.2,0-0.5-0.1-0.7-0.1
		c-0.5,0-0.9,0-0.9-0.7c0-0.7,0.2-1,0.9-1.1C156.8,276.1,160.4,275.1,164.2,273.8"/>
	<path class="st0" d="M425.1,335.4c0-3.7,0-7.5,0-11.2c0-1,0.3-1.3,1.3-1.2c1.4,0.1,3.2-0.6,4.1,0.3c0.9,0.8,0.3,2.7,0.3,4.1
		c0,4.8,0,9.6,0,14.4c0,1.1,0.3,1.4,1.4,1.3c3.3-0.1,6.6,0,9.8,0c1,0,1.4,0.2,1.4,1.3c0,3.8,0,3.8-3.7,3.8c-4.4,0-8.9,0-13.3,0
		c-0.9,0-1.2-0.2-1.2-1.2C425.2,343.1,425.1,339.2,425.1,335.4"/>
	<path class="st0" d="M165.3,259.4c-0.1,2.5-2,4.4-4.3,4.4c-2.3-0.1-4.4-2.2-4.3-4.6c0.1-2.5,2.1-4.5,4.5-4.4
		C163.5,254.8,165.3,256.9,165.3,259.4"/>
	<path class="st0" d="M474.5,271.7l-0.3,0.3c-0.3-0.2-0.6-0.6-0.4-0.7C474,271.1,474.3,271.5,474.5,271.7"/>
	<path class="st0" d="M347.7,309.6c0-0.9-0.3-1.2-1.2-1.3c-3.2-0.3-3.8-1-4-4.1c0-0.4,0-0.8,0-1.2c0-6.2,0-12.4,0-18.6
		c0-5.4-2.9-9.2-7.7-10.1c-2.9-0.6-5.7-0.2-8.3,1.4c-2.2,1.3-4.4,2.7-6.8,4.1v-5.9c-3.8,1.2-7.5,2.3-11.2,3.1
		c-0.6,0.1-0.8,0.4-0.8,1c0,0.8,0.5,0.8,1,0.8c0.3,0,0.6,0.1,0.9,0.2c3.3,0.5,3.7,1,3.7,4.3c0,6.6,0,13.1,0,19.7
		c0,4.7-0.3,5-4.9,5.5c-0.9,0.1-1,0.4-1.1,1.2c-0.1,1,0.5,0.9,1.1,0.9c5.1,0,10.3,0,15.4,0c1,0,1.1-0.4,1.1-1.2
		c0-1.1-0.8-0.8-1.4-0.9c-3.1-0.4-3.8-1-3.8-4.1c-0.1-7,0-13.9-0.1-20.9c0-0.6,0.1-1,0.6-1.4c2-1.6,4.2-2.7,6.8-3.2
		c4.2-0.8,7.6,1.2,8.6,5c0.3,1,0.4,2.1,0.4,3.1c0,5.8,0,11.5,0,17.3c0,2.9-0.7,3.8-3.6,4.2c-0.3,0-0.6,0.1-0.9,0.1
		c-0.9,0-1.3,0.3-1.3,1.3c0,1.1,0.7,0.7,1.2,0.7c4.9,0,9.9,0,14.8,0C347,310.4,347.8,310.8,347.7,309.6"/>
	<path class="st0" d="M294,276.1c-6.4-3.4-12.9-2.9-18.8,1.3c-5.4,3.8-7.7,9.2-7.9,16.5c-0.7,11.6,12.4,20.9,24.2,16.4
		c7.2-2.7,11.5-9.2,11.6-17.8C303.3,285.4,300.5,279.6,294,276.1 M294.5,302.4c-1.2,3.4-3.3,5.9-7.1,6.4c-3.8,0.4-6.6-1.2-8.8-4.2
		c-2.7-3.8-3.6-8.1-3.7-12.7c-0.1-3.3,0.2-6.5,1.6-9.6c3.2-7.1,11-7.9,15.6-1.7c2.9,4,3.6,8.6,3.6,13.4
		C295.7,297,295.4,299.8,294.5,302.4"/>
	<path class="st0" d="M403.8,306.6c-0.3-0.8-0.6-1-1.5-0.7c-3.3,1.3-4.5,0.4-4.7-3.1c0-0.3,0-0.5,0-0.8c0-6.4,0-12.7,0-19.1
		c0-6.3-5.2-10.2-11.3-8.6c-4,1-7.7,2.9-11.1,5.4c-0.8,0.6-1.5,1.1-2.1,2c-0.5,0.8-0.8,1.7-0.2,2.5c0.8,1.1,1.9,1.8,3.4,1.7
		c1.1,0,1.6-0.8,1.8-1.7c0.3-1.3,0.8-2.6,1.5-3.7c1.5-2.4,3.6-3.2,6.3-2.8c2.6,0.4,4.1,2,4.9,4.4c0.5,1.8,0.4,3.6,0.4,5.4
		c0,0.7-0.5,0.9-0.9,1.1c-1.5,0.7-3.1,1.5-4.7,2.1c-2.8,1.2-5.6,2.2-8.4,3.4c-4.9,2.2-6.7,6.9-4.6,11.6c2.3,5.2,7.9,7,12.8,4.2
		c1.9-1.1,3.7-2.4,5.7-3.6c0.4,1.3,0.9,2.4,1.6,3.4c1.3,1.7,2.5,2,4.4,1.1c2-0.9,4-1.9,6-2.9C403.8,307.6,404.1,307.3,403.8,306.6
		 M390.6,304.2c-1.2,0.8-2.4,1.4-3.7,2c-4.4,2-7.8-1.2-8-5.1c-0.2-2.7,1-4.7,3.4-6.1c2.8-1.6,5.9-2.8,9-4.3c0,4.2,0,8.3,0,12.3
		C391.3,303.6,391,303.9,390.6,304.2"/>
	<path class="st0" d="M387.7,323.3c-0.9-0.9-2.8-0.2-4.2-0.3c-0.9-0.1-1.1,0.2-1.1,1.1c0,4.1,0,8.3,0,12.4c0,0.5,0.2,1-0.2,1.5
		c-3.1-4-6.3-7.9-9.1-12.1c-1.6-2.3-3.3-3.3-6.1-3c-1.3,0.1-1.5,0.5-1.5,1.7c0.1,6.4,0,12.9,0,19.4c0,1.3-0.6,3,0.2,3.8
		c0.9,0.9,2.6,0.1,3.9,0.3c1.3,0.2,1.5-0.4,1.4-1.5c0-4.6,0-9.2,0-13.7c0.1,0,0.2-0.1,0.3-0.1c3.2,4.2,6.6,8.4,9.6,12.7
		c1.5,2.1,3.1,3,5.6,2.7c1.2-0.1,1.3-0.4,1.3-1.5c0-6.5,0-12.9,0-19.4C388,325.9,388.4,324,387.7,323.3"/>
	<path class="st0" d="M354.7,323c-1,0.1-1.9,0.1-2.9,0c-1-0.1-1.3,0.2-1.3,1.3c0.1,2.5,0,5,0,7.6v6.4c-0.5-0.6-0.8-0.9-1-1.2
		c-2.8-3.6-5.7-7.2-8.3-11c-1.6-2.3-3.3-3.4-6.2-3c-1.1,0.1-1.4,0.3-1.4,1.4c0.1,6.5,0,12.9,0,19.4c0,1.4-0.6,3.4,0.2,4
		c1,0.7,2.9,0.2,4.4,0.3c0.8,0,0.9-0.4,0.9-1c0-1.5,0-2.9,0-4.4v-10.4c3.5,4.5,6.9,8.7,9.9,13c1.5,2.2,3.2,3.2,5.8,2.8
		c1-0.1,1.2-0.4,1.2-1.3c0-7.5-0.1-14.9,0-22.4C356.1,323.2,355.7,322.9,354.7,323"/>
	<path class="st0" d="M292,323.3c-0.9-0.9-2.8-0.2-4.2-0.3c-0.9-0.1-1.2,0.2-1.2,1.2c0.1,2.6,0,5.1,0,7.7c0,0.6-0.1,1-0.9,1
		c-2.8,0-5.7,0-8.5,0c-0.7,0-0.9-0.2-0.8-0.9c0-1.6,0-3.1,0-4.7c0-1.4,0.6-3.2-0.2-4.1c-0.9-0.8-2.7-0.1-4.1-0.3
		c-1-0.1-1.3,0.2-1.3,1.2c0.1,3.8,0,7.6,0,11.3c0,2.7,0,5.3,0,8c0,1.4-0.6,3.4,0.3,4.2c0.9,0.7,2.8,0.2,4.2,0.3
		c0.8,0,1.1-0.2,1.1-1.1c0-2.6,0-5.2,0-7.9c0-1,0.3-1.2,1.2-1.1c2.7,0.1,5.3,0.1,8,0c0.8,0,1,0.3,1,1c0,2.7,0,5.3,0,8
		c0,0.8,0.2,1.1,1,1c1.1-0.1,2.2-0.1,3.3,0c1.1,0.1,1.3-0.3,1.3-1.3c-0.1-6.5,0-13,0-19.5C292.3,325.9,292.7,324,292,323.3"/>
	<path class="st0" d="M317.1,326.4c-1.6-3.7-1.6-3.6-5.6-3.6c-0.9,0-1.3,0.3-1.7,1.1c-2.3,5.6-4.7,11.1-7.1,16.6
		c-1,2.4-2.1,4.9-3.1,7.3c5.4,0.7,5.5,0.7,7.4-4c0.1-0.1,0.1-0.3,0.1-0.4c0.2-0.7,0.6-1,1.4-1c2.9,0,5.7,0,8.6,0
		c0.7,0,1.1,0.2,1.3,0.9c0.5,1.3,1.1,2.5,1.5,3.8c0.2,0.7,0.5,1,1.3,0.9c1.6-0.1,3.1,0,4.9,0c-0.2-0.6-0.4-1-0.6-1.4
		C322.8,339.9,320,333.1,317.1,326.4 M315.1,337.6c-1.5-0.1-3,0-4.5,0c-0.4,0-1,0.1-0.7-0.6c0.9-2.4,2-4.8,3-7.4
		c1,2.5,1.9,4.7,2.9,6.9C316.1,337.3,316,337.6,315.1,337.6"/>
	<path class="st0" d="M351.9,308.3c-0.9,0.1-0.9,0.6-1,1.3c0,0.9,0.5,0.8,1,0.8c5.3,0,10.7,0,16,0c0.3,0,0.8,0.2,0.9-0.2
		c0.1-0.5,0.1-1,0-1.5c-0.2-0.5-0.8-0.3-1.2-0.4c-3.9-0.4-4.5-1.1-4.5-5v-13.5v-16c-3.4,1.1-6.6,2-9.9,2.8c-0.7,0.2-2.2-0.3-2.1,1.3
		c0.1,1.4,1.4,0.8,2.2,0.9c2.7,0.5,3.3,1,3.3,3.7c0.1,6.7,0.1,13.4,0.1,20.1C356.7,307.4,356.5,307.7,351.9,308.3"/>
	<path class="st0" d="M360,263.8c2.3,0,4.3-2.1,4.3-4.4c0-2.5-1.9-4.5-4.3-4.6c-2.4,0-4.3,1.9-4.3,4.5
		C355.6,261.7,357.6,263.8,360,263.8"/>
</g>
</svg>
