<?xml version="1.0" encoding="utf-8"?>
<!-- Generator: Adobe Illustrator 25.2.1, SVG Export Plug-In . SVG Version: 6.00 Build 0)  -->
<svg version="1.1" id="Layer_1" xmlns="http://www.w3.org/2000/svg" xmlns:xlink="http://www.w3.org/1999/xlink" x="0px" y="0px"
	 viewBox="0 0 610 610" style="enable-background:new 0 0 610 610;" xml:space="preserve">
<style type="text/css">
	.st0{fill:#FFFFFF;}
</style>
<g>
	<path class="st0" d="M445.1,276.2c0,25.4-20.7,45.9-46.2,45.9c-25.5,0-46.1-20.6-46.1-45.9c0-25.4,20.7-45.9,46.1-45.9
		C424.5,230.3,445.1,250.8,445.1,276.2"/>
	<path class="st0" d="M351.1,276.2c0,25.4-20.7,45.9-46.2,45.9c-25.5,0-46.2-20.6-46.2-45.9c0-25.4,20.7-45.9,46.2-45.9
		C330.4,230.3,351.1,250.8,351.1,276.2"/>
	<path class="st0" d="M257.2,276.2c0,25.4-20.7,45.9-46.2,45.9c-25.5,0-46.2-20.6-46.2-45.9c0-25.4,20.7-45.9,46.2-45.9
		C236.5,230.3,257.2,250.8,257.2,276.2"/>
	<path class="st0" d="M241.8,355.2h-7.3v13.3c0,1.1,0.3,1.9,0.8,2.5c0.6,0.5,1.4,0.8,2.5,0.9c1.1,0.1,2.4,0,4,0v7.6
		c-5.8,0.7-9.8,0.1-12.2-1.6c-2.3-1.7-3.5-4.8-3.5-9.3v-13.3h-5.7v-8.1h5.7v-6.8l8.4-2.5v9.4h7.3L241.8,355.2L241.8,355.2z"/>
	<path class="st0" d="M253.8,366c1.1,4.1,4.2,6.1,9.2,6.1c3.2,0,5.6-1.1,7.3-3.2l6.8,3.9c-3.2,4.6-7.9,7-14.2,7
		c-5.4,0-9.7-1.6-13-4.9c-3.2-3.3-4.9-7.4-4.9-12.3c0-4.9,1.6-9,4.8-12.2c3.2-3.3,7.3-4.9,12.3-4.9c4.8,0,8.7,1.6,11.8,4.9
		c3.1,3.3,4.6,7.4,4.6,12.2c0,1.1-0.1,2.3-0.3,3.5L253.8,366L253.8,366z M253.7,359.5h16.6c-0.5-2.2-1.4-3.9-3-5
		c-1.5-1.1-3.2-1.6-5.1-1.6c-2.2,0-4.1,0.6-5.6,1.7C255.1,355.8,254.2,357.4,253.7,359.5"/>
	<rect x="284.5" y="333.3" class="st0" width="8.4" height="46.4"/>
	<path class="st0" d="M307.7,366c1.2,4.1,4.2,6.1,9.2,6.1c3.2,0,5.6-1.1,7.3-3.2l6.8,3.9c-3.2,4.6-7.9,7-14.2,7
		c-5.4,0-9.7-1.6-12.9-4.9c-3.2-3.3-4.9-7.4-4.9-12.3c0-4.9,1.6-9,4.8-12.2c3.2-3.3,7.3-4.9,12.4-4.9c4.8,0,8.7,1.6,11.8,4.9
		c3.1,3.3,4.6,7.4,4.6,12.2c0,1.1-0.1,2.3-0.3,3.5L307.7,366L307.7,366z M307.5,359.5h16.6c-0.5-2.2-1.5-3.9-3-5
		c-1.5-1.1-3.2-1.6-5.1-1.6c-2.2,0-4.1,0.6-5.6,1.7C309,355.8,308,357.4,307.5,359.5"/>
	<path class="st0" d="M354.9,341.3c-4.6-0.3-6.9,1.5-6.9,5.6v0.3h6.9v8.1H348v24.5h-8.4v-24.5H335v-8.1h4.7v-0.3
		c0-4.6,1.3-8.1,3.9-10.5c2.6-2.4,6.4-3.4,11.4-3.1L354.9,341.3L354.9,341.3z"/>
	<path class="st0" d="M364.6,366c1.1,4.1,4.2,6.1,9.2,6.1c3.2,0,5.6-1.1,7.3-3.2l6.8,3.9c-3.2,4.6-7.9,7-14.2,7
		c-5.4,0-9.7-1.6-12.9-4.9c-3.2-3.3-4.9-7.4-4.9-12.3c0-4.9,1.6-9,4.8-12.2c3.2-3.3,7.3-4.9,12.4-4.9c4.8,0,8.7,1.6,11.8,4.9
		c3.1,3.3,4.7,7.4,4.7,12.2c0,1.1-0.1,2.3-0.3,3.5L364.6,366L364.6,366z M364.5,359.5h16.6c-0.5-2.2-1.5-3.9-3-5
		c-1.5-1.1-3.2-1.6-5.1-1.6c-2.2,0-4.1,0.6-5.6,1.7C365.9,355.8,365,357.4,364.5,359.5"/>
</g>
</svg>
