<?xml version="1.0" encoding="utf-8"?>
<!-- Generator: Adobe Illustrator 25.2.1, SVG Export Plug-In . SVG Version: 6.00 Build 0)  -->
<svg version="1.1" id="Layer_1" xmlns="http://www.w3.org/2000/svg" xmlns:xlink="http://www.w3.org/1999/xlink" x="0px" y="0px"
	 viewBox="0 0 610 610" style="enable-background:new 0 0 610 610;" xml:space="preserve">
<style type="text/css">
	.st0{fill:#FFFFFF;}
</style>
<path class="st0" d="M203,371.3c-34.6,0-62.8-29.7-62.8-66.2c0-36.7,28.2-66.4,62.8-66.4h51.5V274H203c-15.3,0-27.7,14-27.7,31.1
	c0,17,12.4,30.9,27.7,30.9h51.4c14.7-0.4,26.7-14.1,27-30.6v-66.7h35.1v78.5c0,11.5,9.2,20.9,20.7,20.9c11.5,0,20.9-9.4,20.9-20.9
	v-78.5h35.1v78.5c0,11.5,9.4,20.9,20.9,20.9c11.5,0,20.7-9.4,20.7-20.9v-78.5h35.2v78.5c0,29.7-24.2,54-53.9,54
	c-16.1,0-30.5-7.1-40.4-18.4c-9.9,11.3-24.3,18.4-40.4,18.4c-16,0-30.4-7.1-40.3-18.3c-10.9,10.9-25.4,17.8-41.4,18.3H203z
	 M203.7,313.7v-18.6h6.7v-3.7h-17.9v3.7h6.7v18.6L203.7,313.7L203.7,313.7z M249.6,295.1v-3.7H235v22.2h15V310h-10.4v-5.8h9.1v-3.7
	h-9.1v-5.4H249.6z M231.5,313.7v-22.2h-4.6v9.1h-9.5v-9.1h-4.6v22.2h4.6v-9.4h9.5v9.4H231.5z"/>
</svg>
