<?xml version="1.0" encoding="utf-8"?>
<!-- Generator: Adobe Illustrator 25.2.1, SVG Export Plug-In . SVG Version: 6.00 Build 0)  -->
<svg version="1.1" id="Layer_1" xmlns="http://www.w3.org/2000/svg" xmlns:xlink="http://www.w3.org/1999/xlink" x="0px" y="0px"
	 viewBox="0 0 610 610" style="enable-background:new 0 0 610 610;" xml:space="preserve">
<style type="text/css">
	.st0{fill:#FFFFFF;}
</style>
<g>
	<path class="st0" d="M468.9,279.8l-4.7,32.8c-1.2,7.4-4.2,13-9.7,16.5c-5,3.2-10.7,4.1-16,4.5l-23.6,1.6l10.6-74l19-1.3
		c6.4-0.5,14-0.8,19.2,2.1C469.8,265.6,469.9,272.7,468.9,279.8 M391.6,336.9l-7.7-40.5l-0.2,0.3l-4.3,41.1l-16.7,1.2l10.6-74
		l18-1.3l7.6,40.4h0.3l4.2-41.2l16.6-1.1l-10.6,74L391.6,336.9z M341.4,340.4l-0.4-14.2l-13.7,1l-4.1,14.5l-17.7,1.2l27-75.1
		l21.1-1.5l5.6,72.8L341.4,340.4z M301.5,343.1l-38.9,2.7l10.6-74l17.5-1.2l-8.5,59.2l21.4-1.4L301.5,343.1z M221.4,335.4l-20.6,1.4
		l-5.6-72.8l17.5-1.2l1.5,51.3h0.2l16.4-52.5l17.5-1.2L221.4,335.4z M189.2,279l-14.1,0.9l-8.5,59.2l-17.5,1.2l8.5-59.1l-13.8,1
		l2.1-14.8l45.4-3.1L189.2,279z M263.8,258.7l1.9-14.4l-132,9.5l-14.2,102.7l88.5-6.1l39.9-2.8l-42.2,19.5l270.9-18.6l13.7-105.7
		L263.8,258.7z"/>
	<path class="st0" d="M441,273.5l-6.8,47.4c11.6-0.1,12.4-4.8,13.5-14.6l3.5-24.1C452.4,273.4,449.6,273.1,441,273.5"/>
	<polygon class="st0" points="340.8,280.5 331,313.9 341.1,313.2 341,280.5 	"/>
</g>
</svg>
