<?xml version="1.0" encoding="utf-8"?>
<!-- Generator: Adobe Illustrator 25.2.1, SVG Export Plug-In . SVG Version: 6.00 Build 0)  -->
<svg version="1.1" id="Layer_1" xmlns="http://www.w3.org/2000/svg" xmlns:xlink="http://www.w3.org/1999/xlink" x="0px" y="0px"
	 viewBox="0 0 610 610" style="enable-background:new 0 0 610 610;" xml:space="preserve">
<style type="text/css">
	.st0{fill:#FFFFFF;}
</style>
<path class="st0" d="M177.7,370.9h254.5V239.1H177.7V370.9z M370.7,315.9c0,0.9-0.7,1.6-1.6,1.6h-21.2c-0.9,0-1.6,0.7-1.6,1.6v26.3
	c0,0.8-0.7,1.6-1.6,1.6h-21.9c-0.9,0-1.6-0.7-1.6-1.6v-26.3c0-0.9-0.7-1.6-1.6-1.6h-20.2v27.9c0,0.8-0.7,1.6-1.6,1.6h-21.9
	c-0.9,0-1.6-0.7-1.6-1.6v-77.9c0-0.3-0.3-0.5-0.6-0.5c-0.3,0-0.5,0.2-0.6,0.4l-28,78.1c-0.3,0.8-1.2,1.5-2.1,1.5h-17.5
	c-0.9,0-1.8-0.7-2.1-1.5l-29-80.9c-0.3-0.8,0.2-1.5,1-1.5h23.2c0.9,0,1.8,0.7,2,1.5l13,42.2c0.1,0.2,0.3,0.4,0.6,0.4
	c0.2,0,0.5-0.2,0.5-0.4l13-42.2c0.3-0.8,1.2-1.5,2-1.5H298c0.9,0,1.6,0.7,1.6,1.6v27.9h20.2c0.9,0,1.6-0.7,1.6-1.6v-26.3
	c0-0.8,0.7-1.6,1.6-1.6h21.9c0.9,0,1.6,0.7,1.6,1.6v26.3c0,0.9,0.7,1.6,1.5,1.6h22.8V315.9z M409.8,345.4c0,0.8-0.7,1.6-1.6,1.6
	h-21.9c-0.8,0-1.5-0.7-1.5-1.6V294c0-0.9-0.7-1.6-1.6-1.6h-12.5v-7.1v-8.8c0-1.1,0.6-2,1.3-2.5l13.5-10.1c0.7-0.5,1.6-0.9,2.8-0.9
	h19.9c0.9,0,1.6,0.7,1.6,1.6V345.4z"/>
</svg>
