<?xml version="1.0" encoding="utf-8"?>
<!-- Generator: Adobe Illustrator 25.2.1, SVG Export Plug-In . SVG Version: 6.00 Build 0)  -->
<svg version="1.1" id="Layer_1" xmlns="http://www.w3.org/2000/svg" xmlns:xlink="http://www.w3.org/1999/xlink" x="0px" y="0px"
	 viewBox="0 0 610 610" style="enable-background:new 0 0 610 610;" xml:space="preserve">
<style type="text/css">
	.st0{fill:#FFFFFF;}
</style>
<g>
	<g>
		<path class="st0" d="M60,257.9h18l13.3,37l13.4-37h17.7l-23.6,58.4H83.5L60,257.9z M125.1,257.9h16.2l0,58.4h-16.2V257.9z
			 M168.7,257.9h16l24.7,58.4H192l-4.2-10.5h-22.6l-4.2,10.5h-17L168.7,257.9z M183.1,293.2l-6.5-16.5l-6.6,16.5H183.1z
			 M203.9,287.3v-0.2c0-17,13-30.4,30.7-30.4c11.9,0,19.6,5,24.8,12.1l-12.2,9.4c-3.3-4.1-7.2-6.8-12.8-6.8c-8.2,0-13.9,7-13.9,15.5
			v0.2c0,8.8,5.8,15.6,13.9,15.6c6.1,0,9.7-2.8,13.2-7.1l12.2,8.7c-5.5,7.6-12.9,13.2-25.8,13.2
			C217.3,317.5,203.9,304.7,203.9,287.3 M257.7,287.3v-0.2c0-16.8,13.5-30.4,31.6-30.4c18,0,31.4,13.4,31.4,30.2v0.2
			c0,16.8-13.5,30.4-31.6,30.4C271.1,317.5,257.7,304.1,257.7,287.3 M304.1,287.3v-0.2c0-8.5-6-15.8-14.9-15.8
			c-8.9,0-14.9,7.2-14.9,15.6v0.2c0,8.4,6.1,15.8,15,15.8C298.1,302.9,304.1,295.7,304.1,287.3 M378,286.4v-0.2
			c0-7.9,2.8-17.3,7.7-22.6v-5.7h-17.1l-13.9,22.6l-13.9-22.6h-17.1l0,58.4h15.9l0-33.5l14.9,22.8h0.3l14.9-22.9l0,33.6h16.1V309
			C380.9,303.7,378,294.5,378,286.4"/>
		<path class="st0" d="M385.5,287.3v-0.2c0-17,13-30.4,30.7-30.4c11.9,0,19.6,5,24.8,12.1l-12.2,9.4c-3.3-4.1-7.2-6.9-12.8-6.9
			c-8.2,0-13.9,7-13.9,15.5v0.2c0,8.8,5.8,15.6,13.9,15.6c6.1,0,9.7-2.8,13.2-7.1l12.2,8.7c-5.5,7.6-12.9,13.2-25.8,13.2
			C398.9,317.5,385.5,304.7,385.5,287.3"/>
		<path class="st0" d="M445.1,257.9h30c7.4,0,12.5,1.8,16,5.2c2.3,2.4,3.8,5.5,3.8,9.5v0.2c0,6.8-3.8,10.8-9,13
			c7.1,2.3,11.6,6.3,11.6,14.3v0.2c0,10-8.2,16.1-22.1,16.1h-30.1V257.9z M478.8,275.9c0-3.3-2.6-5-7.3-5h-10.6v10.3h10.2
			c4.9,0,7.8-1.7,7.8-5.1V275.9z M473.2,292.5h-12.4l0,10.8h12.5c5,0,7.8-1.9,7.8-5.3v-0.2C481.2,294.6,478.7,292.5,473.2,292.5"/>
		<path class="st0" d="M499,307.6l9-10.8c5.8,4.6,12.2,7,19,7c4.4,0,6.8-1.5,6.8-4v-0.2c0-2.5-1.9-3.8-9.9-5.7
			c-12.4-2.8-22-6.3-22-18.3v-0.2c0-10.9,8.6-18.7,22.6-18.7c9.9,0,17.7,2.7,24,7.8l-8.1,11.4c-5.3-3.8-11.2-5.8-16.4-5.8
			c-3.9,0-5.8,1.6-5.8,3.8v0.2c0,2.7,2,3.8,10.2,5.7c13.4,2.9,21.7,7.3,21.7,18.2v0.2c0,11.9-9.4,19-23.6,19
			C516,317.3,506.2,314.1,499,307.6"/>
		<path class="st0" d="M68.7,343.3L68.7,343.3c0-5.5,4.2-10.1,10-10.1c3.4,0,5.5,0.9,7.5,2.6l-2.2,2.6c-1.5-1.3-3-2.1-5.5-2.1
			c-3.6,0-6.3,3.1-6.3,6.8v0.1c0,4,2.6,7,6.6,7c1.8,0,3.5-0.6,4.7-1.5v-3.6h-5v-3h8.3v8.2c-1.9,1.6-4.7,3-8.1,3
			C72.7,353.3,68.7,349,68.7,343.3"/>
		<polygon class="st0" points="92.7,333.5 96.1,333.5 96.1,349.8 106.4,349.8 106.4,353 92.7,353 		"/>
		<path class="st0" d="M109.2,343.3L109.2,343.3c0-5.5,4.2-10.1,10.2-10.1s10.2,4.5,10.2,10v0.1c0,5.5-4.2,10.1-10.2,10.1
			C113.4,353.3,109.2,348.8,109.2,343.3 M126,343.3L126,343.3c0-3.8-2.8-7-6.6-7c-3.9,0-6.6,3.1-6.6,6.8v0.1c0,3.8,2.8,6.9,6.6,6.9
			C123.3,350.1,126,347.1,126,343.3"/>
		<path class="st0" d="M135.1,333.5h8.7c2.2,0,4,0.6,5.1,1.7c0.9,0.9,1.3,1.9,1.3,3.2v0.1c0,2.3-1.3,3.6-2.8,4.3
			c2.3,0.8,3.9,2.1,3.9,4.7v0.1c0,3.5-2.9,5.3-7.2,5.3h-9V333.5z M146.8,339c0-1.5-1.2-2.5-3.4-2.5h-4.9v5.2h4.7
			C145.3,341.7,146.8,340.8,146.8,339L146.8,339z M143.9,344.6h-5.4v5.3h5.7c2.3,0,3.8-0.9,3.8-2.7v-0.1
			C147.9,345.6,146.6,344.6,143.9,344.6"/>
		<path class="st0" d="M163.4,333.4h3.2l8.6,19.6h-3.6l-2-4.7h-9.2l-2,4.7h-3.5L163.4,333.4z M168.2,345.2l-3.4-7.8l-3.3,7.8H168.2z
			"/>
		<polygon class="st0" points="179.8,333.5 183.2,333.5 183.2,349.8 193.5,349.8 193.5,353 179.8,353 		"/>
		<path class="st0" d="M208.1,333.5h7.3c6.1,0,10.3,4.2,10.3,9.7v0.1c0,5.5-4.2,9.7-10.3,9.7h-7.3V333.5z M211.5,336.6v13.2h3.8
			c4.1,0,6.8-2.8,6.8-6.6v-0.1c0-3.8-2.7-6.6-6.8-6.6L211.5,336.6L211.5,336.6z"/>
		<rect x="231.4" y="333.5" class="st0" width="3.4" height="19.5"/>
		<path class="st0" d="M240.1,350.1l2.1-2.4c1.9,1.6,3.8,2.5,6.1,2.5c2.1,0,3.4-1,3.4-2.4v-0.1c0-1.4-0.8-2.1-4.4-3
			c-4.1-1-6.5-2.2-6.5-5.8v-0.1c0-3.3,2.8-5.6,6.6-5.6c2.8,0,5.1,0.9,7.1,2.4l-1.8,2.6c-1.8-1.3-3.5-2-5.3-2c-2,0-3.2,1-3.2,2.3v0.1
			c0,1.5,0.9,2.2,4.6,3.1c4.1,1,6.2,2.5,6.2,5.7v0.1c0,3.6-2.9,5.8-6.9,5.8C245.3,353.2,242.5,352.2,240.1,350.1"/>
		<polygon class="st0" points="265,336.7 258.8,336.7 258.8,333.5 274.6,333.5 274.6,336.7 268.4,336.7 268.4,353 265,353 		"/>
		<path class="st0" d="M279.6,333.5h8.7c2.4,0,4.4,0.7,5.6,1.9c1,1.1,1.6,2.5,1.6,4.2v0.1c0,3.2-1.9,5.1-4.6,5.9l5.3,7.4H292
			l-4.8-6.8H283v6.8h-3.4L279.6,333.5L279.6,333.5z M288,343.1c2.4,0,4-1.3,4-3.3v-0.1c0-2.1-1.5-3.2-4-3.2h-5v6.5L288,343.1
			L288,343.1z"/>
		<rect x="301.2" y="333.5" class="st0" width="3.4" height="19.5"/>
		<path class="st0" d="M311.3,333.5h8.7c2.2,0,4,0.6,5.1,1.7c0.9,0.9,1.3,1.9,1.3,3.2v0.1c0,2.3-1.3,3.6-2.8,4.3
			c2.3,0.8,3.9,2.1,3.9,4.7v0.1c0,3.5-2.9,5.3-7.2,5.3h-9L311.3,333.5L311.3,333.5z M323,339c0-1.5-1.2-2.5-3.4-2.5h-4.9v5.2h4.7
			C321.5,341.7,323,340.8,323,339L323,339z M320,344.6h-5.4v5.3h5.7c2.3,0,3.8-0.9,3.8-2.7v-0.1C324.1,345.6,322.7,344.6,320,344.6"
			/>
		<path class="st0" d="M332.4,344.7v-11.2h3.4v11.1c0,3.6,1.9,5.5,4.9,5.5c3,0,4.9-1.8,4.9-5.4v-11.2h3.4v11c0,5.8-3.3,8.7-8.4,8.7
			C335.6,353.3,332.4,350.4,332.4,344.7"/>
		<polygon class="st0" points="359.9,336.7 353.7,336.7 353.7,333.5 369.5,333.5 369.5,336.7 363.3,336.7 363.3,353 359.9,353 		"/>
		<rect x="374.7" y="333.5" class="st0" width="3.4" height="19.5"/>
		<path class="st0" d="M383.8,343.3L383.8,343.3c0-5.5,4.2-10.1,10.2-10.1c6,0,10.1,4.5,10.1,10v0.1c0,5.5-4.2,10.1-10.2,10.1
			S383.8,348.8,383.8,343.3 M400.6,343.3L400.6,343.3c0-3.8-2.8-7-6.6-7c-3.9,0-6.6,3.1-6.6,6.8v0.1c0,3.8,2.8,6.9,6.6,6.9
			C397.9,350.1,400.6,347.1,400.6,343.3"/>
		<polygon class="st0" points="409.7,333.5 412.9,333.5 423.3,347 423.3,333.5 426.7,333.5 426.7,353 423.8,353 413.1,339.1 
			413.1,353 409.7,353 		"/>
		<path class="st0" d="M441.9,343.3L441.9,343.3c0-5.5,4.2-10.1,10-10.1c3.4,0,5.5,0.9,7.5,2.6l-2.2,2.6c-1.5-1.3-3-2.1-5.5-2.1
			c-3.6,0-6.3,3.1-6.3,6.8v0.1c0,4,2.6,7,6.6,7c1.8,0,3.5-0.6,4.7-1.5v-3.6h-5v-3h8.3v8.2c-1.9,1.6-4.7,3-8.1,3
			C445.9,353.3,441.9,349,441.9,343.3"/>
		<path class="st0" d="M466,333.5h8.7c2.4,0,4.4,0.7,5.6,1.9c1,1.1,1.6,2.5,1.6,4.2v0.1c0,3.2-1.9,5.1-4.6,5.9l5.3,7.4h-4.1
			l-4.8-6.8h-4.3v6.8H466V333.5z M474.4,343.1c2.4,0,4-1.3,4-3.3v-0.1c0-2.1-1.5-3.2-4-3.2h-5v6.5L474.4,343.1L474.4,343.1z"/>
		<path class="st0" d="M486.6,343.3L486.6,343.3c0-5.5,4.2-10.1,10.2-10.1c6,0,10.2,4.5,10.2,10v0.1c0,5.5-4.2,10.1-10.2,10.1
			S486.6,348.8,486.6,343.3 M503.4,343.3L503.4,343.3c0-3.8-2.8-7-6.6-7s-6.6,3.1-6.6,6.8v0.1c0,3.8,2.8,6.9,6.6,6.9
			C500.7,350.1,503.4,347.1,503.4,343.3"/>
		<path class="st0" d="M512.2,344.7v-11.2h3.4v11.1c0,3.6,1.9,5.5,4.9,5.5c3,0,4.9-1.8,4.9-5.4v-11.2h3.4v11c0,5.8-3.3,8.7-8.4,8.7
			C515.4,353.3,512.2,350.4,512.2,344.7"/>
		<path class="st0" d="M534.9,333.5h7.7c4.6,0,7.4,2.6,7.4,6.5v0.1c0,4.4-3.5,6.6-7.8,6.6h-3.9v6.3h-3.4V333.5z M542.3,343.6
			c2.6,0,4.2-1.4,4.2-3.5v-0.1c0-2.3-1.6-3.5-4.2-3.5h-4v7L542.3,343.6L542.3,343.6z"/>
	</g>
</g>
</svg>
