<?xml version="1.0" encoding="utf-8"?>
<!-- Generator: Adobe Illustrator 25.2.1, SVG Export Plug-In . SVG Version: 6.00 Build 0)  -->
<svg version="1.1" id="Layer_1" xmlns="http://www.w3.org/2000/svg" xmlns:xlink="http://www.w3.org/1999/xlink" x="0px" y="0px"
	 viewBox="0 0 610 610" style="enable-background:new 0 0 610 610;" xml:space="preserve">
<style type="text/css">
	.st0{fill:#FFFFFF;}
</style>
<g>
	<g>
		<path class="st0" d="M385.7,235.5v6.9c-4.9,6.3-7.5,14.1-7.5,22.4v0.2c0,8.3,2.7,16.1,7.5,22.4v6.7h0v0h-16.1v-33.6l-14.9,22.9
			h-0.3l-14.9-22.8l0,33.5h-15.9l0-58.5h17.1l13.9,22.6l13.9-22.6L385.7,235.5L385.7,235.5z"/>
		<path class="st0" d="M485.8,263.4c5.2-2.3,9-6.3,9-13v-0.2c0-4-1.4-7.1-3.8-9.5c-3.4-3.3-8.6-5.2-15.9-5.2h-30l0,58.5h30.1
			c13.9,0,22.1-6.1,22.1-16.1v-0.2C497.4,269.7,492.9,265.7,485.8,263.4 M460.9,248.5h10.6c4.8,0,7.4,1.8,7.4,5v0.2
			c0,3.4-2.8,5.1-7.8,5.1h-10.2V248.5z M481.2,275.5c0,3.4-2.8,5.3-7.8,5.3h-12.5v-10.8h12.4c5.4,0,7.9,2.1,7.9,5.3L481.2,275.5
			L481.2,275.5z"/>
		<polygon class="st0" points="60,235.5 78,235.5 91.3,272.5 104.7,235.5 122.4,235.5 98.8,293.9 83.5,293.9 		"/>
		<rect x="124.7" y="235.5" class="st0" width="16.2" height="58.5"/>
		<path class="st0" d="M202.6,264.9v-0.2c0-17,13-30.4,30.7-30.4c11.9,0,19.6,5,24.8,12.1l-12.2,9.4c-3.3-4.1-7.2-6.8-12.8-6.8
			c-8.2,0-13.9,7-13.9,15.5v0.2c0,8.8,5.8,15.6,13.9,15.6c6.1,0,9.7-2.8,13.2-7.1l12.2,8.7c-5.5,7.6-12.9,13.2-25.8,13.2
			C216,295.1,202.6,282.3,202.6,264.9"/>
		<path class="st0" d="M385.5,264.9v-0.2c0-17,13-30.4,30.7-30.4c11.9,0,19.6,5,24.8,12.1l-12.2,9.4c-3.3-4.1-7.2-6.8-12.8-6.8
			c-8.2,0-13.9,7-13.9,15.5v0.2c0,8.8,5.8,15.6,13.9,15.6c6.1,0,9.7-2.8,13.2-7.1l12.2,8.7c-5.5,7.6-12.9,13.2-25.8,13.2
			C398.9,295.1,385.5,282.3,385.5,264.9"/>
		<path class="st0" d="M508.5,273.8c6.3,4.8,13.6,6.8,18.2,6.8c4.5,0,7.8-1.5,6.6-5c-0.9-1.7-3.5-3.1-9.5-4.6
			c-12.4-2.8-22-5.7-22-17.6v-0.2c0-10.9,8.6-18.7,22.6-18.7c9.9,0,17.7,2.7,24,7.8l-7.9,11.1c-5.3-3.8-11.4-5.4-16.6-5.4
			c-3.9,0-5.8,1.6-5.8,3.8v0.2c0,2.7,2,3.2,10.2,5c13.4,2.9,21.7,8,21.7,18.9v0.2c0,11.9-9.4,19-23.6,19c-10.4,0-20.1-3.3-27.4-9.7
			L508.5,273.8z"/>
		<path class="st0" d="M288.9,234.3c-18,0-31.6,13.6-31.6,30.4v0.2c0,16.8,13.4,30.2,31.4,30.2c18,0,31.6-13.6,31.6-30.4v-0.2
			C320.3,247.7,306.9,234.3,288.9,234.3 M303.6,264.9c0,8.4-5.9,15.6-14.8,15.6c-8.9,0-15-7.4-15-15.8v-0.2
			c0-8.4,5.9-15.6,14.9-15.6c8.9,0,14.9,7.3,14.9,15.8V264.9z"/>
		<path class="st0" d="M183.6,235.5h-16L143,293.9h17l4.2-10.5h22.6l4.2,10.5h17.4L183.6,235.5z M168.9,270.8l6.6-16.5l6.5,16.5
			H168.9z"/>
	</g>
	<g>
		<path class="st0" d="M65.7,317.9v57.8h478.6v-57.8H65.7z M347.8,350.7h4.2c0,2.4,1.6,4.4,4.2,4.4c2.6,0,4.2-1.8,4.2-4.2
			c0-2.7-2.4-3.7-5.9-4.7c-3.8-1-5.9-3.6-5.9-7c0-4,3.4-6.7,7.3-6.7c4.7,0,7.5,3.1,7.6,6.9h-4c-0.2-1.9-1.9-2.9-3.5-2.9
			c-2.1,0-3.3,1.3-3.3,2.7c0,2.2,1.5,2.9,6.1,4.4c3.2,1,5.7,3.4,5.7,7.2c0,4.8-3.6,8.3-8.4,8.3C351.1,359.1,347.8,355.7,347.8,350.7
			z M369.5,353v-8.9h-3.8v-3.9h3.8v-4.8h4.1v4.8h5.6v3.9h-5.6v8.9c0,1.5,0.9,2.2,2.1,2.2c1,0,1.6-0.7,1.9-1.4l3.2,2.4
			c-0.9,1.6-2.7,2.9-5.3,2.9C372,359.1,369.5,356.7,369.5,353z M384.1,340.2h4.1v2.5c0.6-1.5,2.1-2.7,4.4-2.7c0.9,0,1.3,0.1,1.6,0.2
			v4.3c-0.4-0.2-1-0.3-1.7-0.3c-2.5,0-4.3,1.6-4.3,4.6v10h-4.1L384.1,340.2L384.1,340.2z M395.9,349.6c0-5.3,4.2-9.5,9.5-9.5
			s9.5,4.2,9.5,9.5c0,0.5,0,1-0.1,1.4h-14.5c0.4,2.3,2.6,4.2,5.5,4.2c2.6,0,4.2-1.3,4.9-2.5l3.2,2.5c-1.6,2.2-4.2,3.9-8.1,3.9
			C400,359.1,395.9,354.8,395.9,349.6z M410.3,347.5c-0.6-2.2-2.6-3.6-5-3.6s-4.4,1.5-5,3.6H410.3z M418,349.6c0-5.6,4-9.5,9.3-9.5
			c2.5,0,4.5,1.2,5.3,2.2v-1.9h4.2v18.6h-4.2v-1.9c-0.8,1-2.8,2.2-5.3,2.2C422,359.1,418,355.1,418,349.6z M432.8,349.6
			c0-3.4-2.3-5.6-5.3-5.6c-3.1,0-5.5,2.2-5.5,5.6c0,3.4,2.4,5.6,5.5,5.6C430.5,355.1,432.8,353,432.8,349.6z M441.4,340.2h4.1v2.1
			c1-1.4,2.8-2.3,4.8-2.3c2.3,0,3.9,0.9,4.9,2.6c1.4-1.5,2.9-2.6,5.6-2.6c3.8,0,6.1,2,6.1,6.6v12.2h-4.1v-11.2
			c0-2.4-1.1-3.8-3.3-3.8c-1.9,0-3.3,1.4-3.3,3.8v11.2h-4.1v-11.2c0-2.4-1.2-3.8-3.3-3.8c-1.9,0-3.3,1.4-3.3,3.8v11.2h-4.1
			L441.4,340.2L441.4,340.2z M471.2,332.8h4.6v4.6h-4.6V332.8z M471.5,340.2h4.1v18.6h-4.1V340.2z M480.3,340.2h4.1v2.1
			c0.9-1.1,2.5-2.3,5.1-2.3c4.6,0,7.1,2.7,7.1,7.7v11.2h-4.1v-10.3c0-3.3-1.4-4.7-3.9-4.7c-2.8,0-4.2,1.9-4.2,4.7v10.3h-4.1
			L480.3,340.2L480.3,340.2z M500.6,360.5h4.2c0.1,2.9,2.7,4,5.1,4c2.5,0,5.2-1.3,5.2-6v-1.6c-0.9,1.1-2.8,2.2-5.5,2.2
			c-5.1,0-9.2-3.9-9.2-9.5c0-5.6,4.1-9.5,9.2-9.5c2.6,0,4.5,1,5.5,2.2v-1.9h4.2v18.6c0,6.7-4.7,9.5-9.2,9.5
			C505.2,368.4,500.6,365.7,500.6,360.5z M515.2,349.6c0-3.1-2.3-5.6-5.4-5.6c-3,0-5.4,2.5-5.4,5.6c0,3.1,2.5,5.6,5.4,5.6
			C512.9,355.1,515.2,352.6,515.2,349.6z"/>
	</g>
</g>
</svg>
