<?xml version="1.0" encoding="utf-8"?>
<!-- Generator: Adobe Illustrator 25.2.1, SVG Export Plug-In . SVG Version: 6.00 Build 0)  -->
<svg version="1.1" id="Layer_1" xmlns="http://www.w3.org/2000/svg" xmlns:xlink="http://www.w3.org/1999/xlink" x="0px" y="0px"
	 viewBox="0 0 610 610" style="enable-background:new 0 0 610 610;" xml:space="preserve">
<style type="text/css">
	.st0{fill:#FFFFFF;}
</style>
<g>
	<path class="st0" d="M328.7,230.7l-12.4-5.7v35.3l12.4,5.7v17.6l-43.9-20.2v-17.6l12.4,5.7v-35.3l-12.4-5.7v-18.3l43.9,20.2V230.7z
		 M264,253.8l15.6-64l-21.2-9.8l-9.7,47.5l-2.7-1.2l-6.7-55.1l-22.8-10.5l11,76.2L264,253.8z M366.2,300.8
		c-0.2-0.1-18.1-8.3-26.8-12.3c-1-0.5-1.8-0.8-2.5-1.1v-71.2l33.8,15.6c13.3,6.1,20.1,12.1,23.2,20.5c1.6,4.4,2.2,9.6,2.2,15.7v6.7
		c-0.4,7.1-0.4,14.5-5.2,20.3c-3.8,4.6-9.5,7.8-15.6,7.8C372.3,302.7,369.1,302.1,366.2,300.8z M366.1,283.1
		c0.9,0.4,1.7,0.7,2.7,0.7c1.8,0,3.5-0.9,4.6-2.3c1.4-1.7,1.4-4.9,1.5-7V260c0-5.9-2-9-8-11.8l-10.7-4.9l0,35.3
		C356.1,278.6,366,283.1,366.1,283.1z"/>
	<path class="st0" d="M268.7,403c0.2,2.8,0.2,5.3,0.2,6c-0.2,5.1-0.7,10.3-2.7,15.1c-1.8,4.3-4.5,8.4-7.7,11.8
		c-8.5,9-24.2,17.7-36.3,11.1c-2.4-1.3-4.4-3.2-5.8-5.8c-3-5.6-2.6-13.4-2.7-19.6c0,0,0-12.5,0.1-14.2c0.2-5.1,0.7-10.3,2.7-15.1
		c1.8-4.3,4.5-8.4,7.7-11.8c8.5-9,24.2-17.7,36.3-11.1c2.4,1.3,4.4,3.2,5.8,5.8c1.9,3.5,2.3,8.5,2.4,13l-19.3,9.4v-2.2
		c0-5.7-1.7-7.4-4-8.2c-1.4-0.5-2.9-0.4-4.3,0.2c-4.8,2-6.9,7.6-6.9,12.5v23.3c0,4,2.6,6.7,5.7,6.5c7.3-0.6,9.5-9.1,9.4-14.9
		c0-0.7,0-1.5,0-2.2L268.7,403z M396.4,300.6c-4.3,6.1-10,9.2-17.7,10.2l0,46.5l-2.7,1.2l-11.9-42.7l-27.1,12.5v71.2l17.6-8.1v-48.2
		l2.7-1.2l13.5,42l25.5-11.7L396.4,300.6L396.4,300.6L396.4,300.6z M327,347.1c3,5.6,2.7,14.6,2.7,19.6c0,0,0,12.5-0.1,14.3
		c-0.2,5.1-0.7,10.3-2.7,15.1c-1.8,4.3-4.5,8.4-7.7,11.8c-8.5,9-24.2,17.7-36.3,11.1c-2.4-1.3-4.4-3.2-5.8-5.8
		c-3-5.6-2.6-13.4-2.7-19.6c0,0,0-12.5,0.1-14.3c0.2-5.1,0.7-10.3,2.7-15.1c1.8-4.3,4.5-8.4,7.8-11.8c8.5-9,24.2-17.7,36.3-11.1
		C323.6,342.5,325.6,344.4,327,347.1z M309.2,376.7c0-1.8,0-3.6,0-5.4c0-2.2,0-4.4,0-6.6c0-2.4-0.6-4.7-3-5.7
		c-1.4-0.5-2.9-0.4-4.3,0.2c-4.8,2-6.9,7.6-6.9,12.5v23.3c0,4,2.6,6.8,5.7,6.5c7.3-0.6,8.6-9.1,8.5-14.9
		C309.1,383.3,309.2,380,309.2,376.7z"/>
</g>
</svg>
