<?xml version="1.0" encoding="utf-8"?>
<!-- Generator: Adobe Illustrator 15.1.0, SVG Export Plug-In . SVG Version: 6.00 Build 0)  -->
<!DOCTYPE svg PUBLIC "-//W3C//DTD SVG 1.1//EN" "http://www.w3.org/Graphics/SVG/1.1/DTD/svg11.dtd">
<svg version="1.1" id="Layer_1" xmlns="http://www.w3.org/2000/svg" xmlns:xlink="http://www.w3.org/1999/xlink" x="0px" y="0px"
	 width="610px" height="610px" viewBox="0 0 610 610" enable-background="new 0 0 610 610" xml:space="preserve">
<g>
	<path fill="#010101" d="M232.799,304.938c0,13.621-4.797,25.221-14.385,34.812c-9.591,9.592-21.151,14.377-34.679,14.377
		c-13.532,0-25.112-4.786-34.748-14.377c-9.628-9.592-14.45-21.192-14.45-34.812c0-13.532,4.822-25.092,14.45-34.684
		c9.636-9.587,21.216-14.381,34.748-14.381c13.528,0,25.088,4.794,34.679,14.381C228.001,279.846,232.799,291.405,232.799,304.938
		 M229.845,305.002c-3.86-8.501-9.817-15.404-17.875-20.725c-8.493-5.752-17.923-8.63-28.3-8.63s-19.852,2.878-28.429,8.63
		c-7.978,5.321-13.891,12.224-17.75,20.725c3.86,8.497,9.773,15.444,17.75,20.854c8.577,5.667,18.052,8.497,28.429,8.497
		s19.807-2.83,28.3-8.497C220.028,320.446,225.985,313.499,229.845,305.002 M209.808,304.938c0,7.193-2.547,13.339-7.643,18.435
		s-11.238,7.644-18.43,7.644c-7.193,0-13.343-2.548-18.431-7.644c-5.1-5.096-7.644-11.242-7.644-18.435
		c0-7.197,2.544-13.319,7.644-18.366c5.087-5.055,11.238-7.583,18.431-7.583c7.192,0,13.334,2.528,18.43,7.583
		C207.26,291.619,209.808,297.741,209.808,304.938"/>
	<path fill="#010101" d="M241.55,305.002c0-25.37,20.93-46.296,48.204-46.296c24.738,0,37.424,17.754,37.424,17.754l-12.687,12.683
		c0,0-8.879-12.683-24.738-12.683c-15.855,0-28.542,12.683-28.542,28.542c0,15.863,12.687,28.545,28.542,28.545
		c16.49,0,25.37-12.683,25.37-12.683l12.687,12.683c0,0-12.687,17.754-38.056,17.754C262.479,351.302,241.55,330.376,241.55,305.002
		"/>
	<path fill="#010101" d="M334.914,260.602h37.42c17.759,0,28.542,10.787,28.542,23.474c0,13.951-12.051,18.39-12.051,18.39
		s16.49,4.439,16.49,21.57c0,13.951-11.415,25.37-30.445,25.37h-39.956V260.602z M371.062,294.851
		c6.344,0,10.151-3.804,10.151-8.879c0-5.067-3.808-8.875-10.151-8.875H353.94v17.754H371.062z M373.603,332.912
		c7.611,0,12.051-4.44,12.051-10.779c0-6.343-4.439-10.783-12.051-10.783H353.94v21.562H373.603z"/>
	<path fill="#010101" d="M407.598,337.351l12.683-12.687c0,0,7.611,9.515,20.93,9.515c10.147,0,14.59-4.439,14.59-10.143
		c0-15.227-44.399-8.247-44.399-39.328c0-13.955,12.051-26.002,32.349-26.002c19.663,0,29.81,12.047,29.81,12.047l-12.687,12.687
		c0,0-6.344-7.611-16.491-7.611c-9.515,0-13.319,3.804-13.319,8.879c0,15.218,44.4,8.243,44.4,39.328
		c0,14.583-12.687,27.266-33.617,27.266C419.013,351.302,407.598,337.351,407.598,337.351"/>
</g>
</svg>
