<?xml version="1.0" encoding="utf-8"?>
<!-- Generator: Adobe Illustrator 15.1.0, SVG Export Plug-In . SVG Version: 6.00 Build 0)  -->
<!DOCTYPE svg PUBLIC "-//W3C//DTD SVG 1.1//EN" "http://www.w3.org/Graphics/SVG/1.1/DTD/svg11.dtd">
<svg version="1.1" id="Layer_1" xmlns="http://www.w3.org/2000/svg" xmlns:xlink="http://www.w3.org/1999/xlink" x="0px" y="0px"
	 width="610px" height="610px" viewBox="0 0 610 610" enable-background="new 0 0 610 610" xml:space="preserve">
<path fill="#010101" d="M362.425,288.956c-9.137,5.901-10.956,7.402-14.257,9.68v77.703h45.415v-40.894
	c-2.194,6.669-4.464,14.719-5.941,20.061c-2.214,8.183-4.089,10.288-9.511,10.288c-4.223,0-6.96-1.493-8.903-7.04
	c-1.059-2.986-8.473-23.796-9.87-27.74c-3.537-9.974-5.603-17.573-5.603-21.957c0-7.728,5.056-10.554,9.874-10.554
	c6.508,0,7.667,6.593,8.528,12.832c0.479,3.232,1.457,11.991,1.908,16.684c0.229,2.178,0.402,4.561,2.692,4.561
	c2.057,0,2.81-3.164,4.367-7.543c3.872-10.763,9.278-21.401,12.458-27.125v-64.251H325.54l-29.399,33.013l-29.148-33.013H197.25
	v142.679h72.647v-45.233l26.243,23.562l25.446-22.862v44.533h11.069c-0.097-2.318,0-31.898,0-56.378
	c0-7.305-1.438-9.068-3.631-9.068c-2.468,0-6.67,3.603-11.278,7.125c-7.329,5.586-11.306,10.046-16.044,10.046
	c-2.829,0-4.432-1.333-6.223-3.751c-0.306-0.467-1.275-2.467-1.275-4.098c0-1.807,0.684-3.888,3.26-5.57
	c2.81-1.807,5.909-1.441,12.555-5.744c7.885-5.116,15.271-9.624,16.812-10.67c2.704-1.55,2.064-3.876,2.064-6.034
	c0-4.753,3.944-6.372,7.366-6.372c3.248,0,5.297,1.272,5.792,1.518c1.203-0.745,4.363-2.677,10.315-6.549
	c3.889-2.56,5.998-7.539,10.683-7.539c1.924,0,3.639,0.378,5.269,1.755c2.303,2.021,2.726,3.131,2.726,4.882
	C371.047,283.8,365.375,287.024,362.425,288.956 M401.637,234.373v50.619c3.18-4.693,8.452-11.528,11.113-14.49v-28.984
	L401.637,234.373z M401.637,376.339h11.113v-79.176c-2.922,4.122-8.146,12.82-11.113,18.97V376.339z M302.898,246.585l-1.807-2.033
	l-23.052-10.859l18.153,20.443L302.898,246.585z M311.227,359.905l2.271-2.061v-7.543l-10.658,9.604H311.227z M277.964,349.553
	l10.006,9.021v17.766h-10.006V349.553z"/>
</svg>
