<?xml version="1.0" encoding="utf-8"?>
<!-- Generator: Adobe Illustrator 15.1.0, SVG Export Plug-In . SVG Version: 6.00 Build 0)  -->
<!DOCTYPE svg PUBLIC "-//W3C//DTD SVG 1.1//EN" "http://www.w3.org/Graphics/SVG/1.1/DTD/svg11.dtd">
<svg version="1.1" id="Layer_1" xmlns="http://www.w3.org/2000/svg" xmlns:xlink="http://www.w3.org/1999/xlink" x="0px" y="0px"
	 width="610px" height="610px" viewBox="0 0 610 610" enable-background="new 0 0 610 610" xml:space="preserve">
<g>
	<path fill="#010101" d="M74.789,291.955c-6.951,0-13.347,2.85-17.904,7.426c-4.575,4.524-7.426,10.904-7.426,17.879v23.152h19.22
		v-10.119v-12.606c0.045-2.773,0.685-5.16,1.795-6.992c1.147-1.807,2.593-2.886,4.315-2.886c1.719,0,3.204,1.079,4.331,2.886
		c1.127,1.832,1.783,4.218,1.783,6.992v22.725h19.264V317.26c0-6.976-2.882-13.355-7.463-17.879
		C88.14,294.805,81.769,291.955,74.789,291.955"/>
	<path fill="#010101" d="M535.15,291.955c-6.932,0-13.336,2.85-17.847,7.426c-4.633,4.524-7.462,10.904-7.462,17.879v23.152h19.211
		v-10.119v-12.606c0.021-2.773,0.668-5.16,1.804-6.992c1.146-1.807,2.6-2.886,4.294-2.886c1.727,0,3.236,1.079,4.327,2.886
		c1.135,1.832,1.808,4.218,1.831,6.992v22.725h19.232V317.26c0-6.976-2.862-13.355-7.443-17.879
		C548.521,294.805,542.158,291.955,535.15,291.955"/>
	<path fill="#010101" d="M120.823,285.716c1.952-1.936,3.123-4.601,3.123-7.579c0-2.951-1.171-5.615-3.123-7.531
		c-1.933-1.932-4.613-3.132-7.555-3.132c-2.963,0-5.587,1.2-7.579,3.132c-1.92,1.916-3.1,4.58-3.1,7.531
		c0,2.979,1.18,5.643,3.1,7.579l2.387,2.378c3.92,3.925,4.206,4.951,0.454,8.694l-2.133,2.182c-1.763,1.755-2.854,4.182-2.854,6.851
		v34.591h19.425v-34.591c0-2.669-1.091-5.096-2.794-6.851l-2.193-2.182c-3.724-3.723-3.474-4.77,0.487-8.694L120.823,285.716z"/>
	<path fill="#010101" d="M155.289,325.331c-1.139,2.113-2.616,3.365-4.314,3.365c-1.755,0-3.196-1.252-4.319-3.365
		c-1.127-2.069-1.807-4.802-1.807-8.034c0-3.216,0.68-5.917,1.807-8.05c1.123-2.105,2.597-3.321,4.319-3.353
		c1.698,0.032,3.176,1.248,4.314,3.353c0.806,1.565,1.405,3.478,1.646,5.699h19.256c-0.557-6.05-3.289-11.523-7.281-15.565
		c-4.581-4.54-10.996-7.426-17.936-7.426c-6.979,0-13.352,2.886-17.903,7.426c-4.612,4.557-7.454,10.944-7.454,17.916
		c0,6.979,2.842,13.367,7.454,17.919c3.474,3.506,9.607,7.414,17.903,7.414c6.234,0,12.026-2.302,16.41-6.034
		c3.216-2.745,7.985-8.211,8.807-16.901h-19.256C156.694,321.897,156.095,323.785,155.289,325.331"/>
	<path fill="#010101" d="M244.407,312.756c0.33-1.478,0.792-2.83,1.248-3.796c0.857-1.819,2.6-3.312,4.327-3.312
		c1.706,0,3.115,1.244,4.362,3.417c0.479,0.914,0.979,2.552,1.204,3.63L244.407,312.756z M249.982,291.923
		c-6.996,0-13.344,2.846-17.912,7.426c-4.557,4.557-7.442,10.944-7.442,17.916c0,6.976,2.886,13.367,7.442,17.903
		c4.428,4.452,10.69,7.43,18.049,7.43c7.502,0,13.713-3.369,17.919-7.579c5.293-6.058,5.562-12.562,5.562-12.562h-17.167
		c0,0-2.37,5.985-6.451,5.985c-1.728,0-3.204-1.248-4.327-3.341c-0.749-1.429-1.319-3.204-1.578-5.176h29.829
		c0,0,2.069-12.167-6.085-20.407C263.035,294.72,257.029,291.923,249.982,291.923"/>
	<path fill="#010101" d="M424.422,312.756c0.347-1.478,0.834-2.83,1.244-3.796c0.894-1.819,2.612-3.312,4.363-3.312
		c1.743,0,3.123,1.244,4.348,3.417c0.49,0.914,0.953,2.552,1.203,3.63L424.422,312.756z M430.029,291.923
		c-6.963,0-13.399,2.846-17.964,7.426c-4.576,4.557-7.418,10.944-7.418,17.916c0,6.976,2.842,13.367,7.418,17.903
		c4.492,4.452,10.751,7.43,18.062,7.43c7.546,0,13.748-3.369,17.918-7.579c5.313-6.058,5.566-12.562,5.566-12.562h-17.109
		c0,0-2.375,5.985-6.473,5.985c-1.751,0-3.184-1.248-4.363-3.341c-0.753-1.429-1.285-3.204-1.558-5.176h29.842
		c0,0,2.057-12.167-6.122-20.407C443.091,294.72,437.068,291.923,430.029,291.923"/>
	<path fill="#010101" d="M286.279,267.37c-5.305,0.012-9.623,4.315-9.623,9.636l0.023,63.415h19.268l-0.049-63.438
		C295.898,271.685,291.586,267.362,286.279,267.37"/>
	<path fill="#010101" d="M323.914,328.695c-3.361,0-6.11-5.108-6.11-11.435c0-6.291,2.749-11.395,6.11-11.395
		c3.352,0,6.085,5.104,6.085,11.395C329.999,323.587,327.266,328.695,323.914,328.695 M323.926,291.955
		c-14.031,0-25.342,11.326-25.342,25.305c0,14.011,11.311,25.37,25.342,25.37c13.971,0,25.321-11.358,25.321-25.37
		C349.247,303.281,337.896,291.955,323.926,291.955"/>
	<path fill="#010101" d="M482.133,328.695c-3.373,0-6.09-5.108-6.09-11.435c0-6.291,2.717-11.395,6.09-11.395
		c3.341,0,6.11,5.104,6.11,11.395C488.243,323.587,485.474,328.695,482.133,328.695 M482.133,291.955
		c-14.006,0-25.346,11.326-25.346,25.305c0,14.011,11.34,25.37,25.346,25.37c13.999,0,25.334-11.358,25.334-25.37
		C507.467,303.281,496.132,291.955,482.133,291.955"/>
	<path fill="#010101" d="M376.875,328.691c-3.354,0-6.09-5.104-6.09-11.427c0-6.295,2.736-11.399,6.09-11.399
		c3.396,0,6.134,5.104,6.134,11.399C383.009,323.587,380.271,328.691,376.875,328.691 M402.24,317.296h0.057l-0.057-40.314
		c0-5.309-4.326-9.624-9.632-9.612c-5.309,0-9.6,4.323-9.6,9.636v15.722c-1.98-0.487-4.001-0.772-6.134-0.772
		c-6.951,0-13.335,2.886-17.893,7.426c-4.567,4.557-7.409,10.944-7.409,17.916c0,6.987,2.842,13.367,7.409,17.903
		c2.887,2.946,9.19,7.43,17.893,7.43c8.734,0,15.013-4.484,17.972-7.43C399.387,330.664,402.24,324.284,402.24,317.296"/>
	<path fill="#010101" d="M227.41,337.055l-0.5-1.73l-10.529-15.935l7.301-13.254c2.697-4.569,1.185-10.469-3.393-13.182
		c-4.564-2.681-10.453-1.175-13.178,3.393l-8.678,15.577v-10.356c0-5.317-4.352-9.611-9.644-9.611c-5.31,0-9.624,4.294-9.624,9.611
		v38.854h19.268v-15.215l10.11,15.215h15.517C225.947,340.42,227.41,338.891,227.41,337.055"/>
</g>
</svg>
