<?xml version="1.0" encoding="utf-8"?>
<!-- Generator: Adobe Illustrator 15.1.0, SVG Export Plug-In . SVG Version: 6.00 Build 0)  -->
<!DOCTYPE svg PUBLIC "-//W3C//DTD SVG 1.1//EN" "http://www.w3.org/Graphics/SVG/1.1/DTD/svg11.dtd">
<svg version="1.1" id="Layer_1" xmlns="http://www.w3.org/2000/svg" xmlns:xlink="http://www.w3.org/1999/xlink" x="0px" y="0px"
	 width="610px" height="610px" viewBox="0 0 610 610" enable-background="new 0 0 610 610" xml:space="preserve">
<g>
	<path fill="#010101" d="M285.229,308.204c-0.894-0.374-2.358-2.013,0.075-6.585l5.646-11.81c0.176-0.354-0.235-0.805-0.497-0.499
		l-4.937,4.971c-2.334,2.443-6.303,9.298-7.07,10.57l-6.007,9.93c0.634-0.024,1.04,0.651,0.736,1.203l-5.49,9.213
		c-1.34,2.295,1.075,3.885,1.401,3.357c8.611-13.895,13.63-12.784,13.63-12.784l2.876-6.669
		C285.76,308.751,285.585,308.356,285.229,308.204"/>
	<path fill="#010101" d="M304.829,192.11c-49.295,0-89.259,39.964-89.259,89.255c0,19.852,6.492,38.186,17.45,53.005
		c3.745-1.617,5.826-4.028,7.313-5.884l16.617-21.257c0.353-0.442,0.809-0.797,1.328-1.022l2.5-1.086l27.331-34.656l3.971-3.103
		l8.135-11.335c0.207-0.285,0.471-0.551,0.755-0.761l3.559-2.584c0.877-0.644,2.059-0.652,2.954-0.024l4.303,3.027
		c2.292,1.602,4.146,3.743,5.399,6.247l17.27,30.328c0.382,0.672,0.668,0.954,1.358,1.292c3.379,1.69,5.445,1.992,9.888,6.794
		c2.062,2.255,11.123,12.39,23.828,28.14c1.753,2.37,4.005,4.375,7.164,5.824c10.928-14.816,17.398-33.118,17.398-52.945
		C394.092,232.074,354.127,192.11,304.829,192.11 M239.64,286.288l-5.786-1.88l-3.574,4.927v-6.086l-5.786-1.884l5.786-1.876v-6.086
		l3.574,4.919l5.786-1.88l-3.572,4.923L239.64,286.288z M238.265,306.199l-1.875,5.784l-1.88-5.784h-6.084l4.914-3.582l-1.879-5.78
		l4.929,3.574l4.916-3.574l-1.88,5.78l4.923,3.582H238.265z M239.426,260.117l1.88,5.784l-4.916-3.566l-4.929,3.566l1.879-5.784
		l-4.914-3.578h6.084l1.88-5.784l1.875,5.784h6.084L239.426,260.117z M249.197,247.031l-3.576-4.926l-5.788,1.883l3.574-4.918
		l-3.574-4.927l5.788,1.884l3.576-4.923v6.086l5.783,1.88l-5.783,1.88V247.031z M264.411,225.735l-1.879,5.784l-1.88-5.784h-6.086
		l4.925-3.574l-1.88-5.784l4.921,3.57l4.914-3.57l-1.876,5.784l4.925,3.574H264.411z M283.576,215.967l-3.574,4.922v-6.073
		l-5.785-1.892l5.785-1.876v-6.078l3.574,4.911l5.795-1.884l-3.577,4.927l3.577,4.918L283.576,215.967z M307.869,210.396l1.88,5.78
		l-4.92-3.566l-4.925,3.566l1.88-5.78l-4.915-3.578h6.084l1.876-5.783l1.879,5.783h6.084L307.869,210.396z M329.659,214.815v6.073
		l-3.578-4.922l-5.782,1.875l3.576-4.918l-3.576-4.927l5.782,1.884l3.578-4.911v6.078l5.786,1.876L329.659,214.815z
		 M370.022,276.442l5.783,1.88l3.576-4.919v6.086l5.786,1.876l-5.786,1.884v6.086l-3.576-4.927l-5.783,1.88l3.569-4.923
		L370.022,276.442z M347.13,231.52l-1.88-5.784h-6.084l4.925-3.574l-1.884-5.784l4.923,3.57l4.925-3.57l-1.884,5.784l4.924,3.574
		h-6.085L347.13,231.52z M360.465,247.031v-6.081l-5.786-1.88l5.786-1.88v-6.086l3.576,4.923l5.779-1.884l-3.576,4.927l3.576,4.918
		l-5.779-1.883L360.465,247.031z M371.389,256.539l1.88-5.784l1.888,5.784h6.075l-4.918,3.578l1.879,5.784l-4.924-3.566
		l-4.917,3.566l1.884-5.784l-4.923-3.578H371.389z M375.156,306.199l-1.888,5.784l-1.88-5.784h-6.076l4.923-3.582l-1.884-5.78
		l4.917,3.574l4.924-3.574l-1.879,5.78l4.918,3.582H375.156z"/>
	<path fill="#010101" d="M337.162,332.962c0.429-0.624,1.127-2.339-0.18-5.502l-3.948-10.626c-0.539-1.356,0.63-2.178,1.421-1.288
		c0,0,7.464,8.605,9.4,12.203l3.677,6.11c3.166,0.209,11.904,0.451,20.322,0.451c-0.843-0.838-1.618-1.731-2.351-2.713
		c-14.35-17.791-23.456-27.7-23.547-27.797c-2.911-3.168-4.252-3.775-6.474-4.782c-0.322-0.145-0.668-0.306-1.028-0.482v2.704
		c0,0.354-0.419,0.548-0.634,0.17l-21.105-37.079l-0.068-0.125c-0.874-1.734-2.18-3.248-3.777-4.367l-2.06-1.444l-10.07,23.236
		c1.576,0,2.633,1.602,2.003,3.039l-9.3,21.521h8.535c3.3,0,6.572,0.644,9.63,1.896l2.243,0.926c0,0-6.788,13.971-6.788,21.329
		c0,1.348,0.205,2.696,0.554,3.969h15.649l-0.715-4.42C318.552,329.891,327.973,332.072,337.162,332.962"/>
	<path fill="#010101" d="M216.362,355.595c0-14.374-15.236-21.284-33.345-21.284c-19.362,0-37.137,8.577-43.653,21.888
		c-1.808,3.53-2.733,7.454-2.733,11.447c-0.068,3.453,0.865,6.858,2.733,9.712c2.791,4.134,7.78,6.727,15.102,6.727
		c8.988,0,16.108-4.927,16.108-13.504c0,0,0.133-2.403-2.658-2.403c-2.271,0-2.864,1.598-2.8,2.403
		c0.338,6.718-3.652,12.111-10.779,12.111c-7.993,0-11.316-6.791-11.316-14.044c0-14.84,11.184-24.693,22.836-28.952
		c5.46-2.061,11.176-3.066,17.034-3.002c13.176,0,23.961,5.063,23.961,18.644c0,11.311-9.523,20.958-20.908,21.828l0.472-1.534
		c2.328-8.319,5.193-17.437,9.853-24.154c0.26-0.41,0.73-1.066,1.262-1.73l-0.664-0.801c-1,0.592-1.926,1.264-2.859,1.992
		c-21.834,17.038-22.498,64.964-51.581,64.964c-1.002,0-2-0.068-3.002-0.197c-6.054-1.006-9.248-5.06-9.248-10.719
		c0-1.127,0.398-2.664,0.398-3.525c0.072-1.599-1.264-2.999-2.861-2.999h-0.33c-2.595,0-3.665,2.064-3.729,4.995
		c-0.197,8.448,6.06,13.371,15.712,14.309c1.061,0.064,2.127,0.125,3.262,0.125c22.691,0,36.598-17.167,42.524-37.992
		c2.997-0.338,5.991-1.002,8.855-1.867C204.523,375.096,216.362,368.048,216.362,355.595"/>
	<path fill="#010101" d="M432.543,360.594h-7.982l-1.797,4.194l-3.125,7.052h-3.735l-1.125,2.398h3.857l-4.658,10.309
		c-3.329,7.253-8.518,14.381-11.52,14.381c-0.654,0-1.057-0.266-1.057-0.934s0.19-1.264,0.924-3.123
		c0.934-2.19,2.463-5.394,3.598-7.721c1.665-3.396,4.323-8.649,4.323-11.25c0-2.596-1.66-4.665-4.919-4.665
		c-3.671,0-6.997,2.206-10.05,5.397l1.986-4.793h-7.511l-6.126,13.975c-2.468,4.927-7.457,13.113-10.586,13.113
		c-0.664,0-0.926-0.402-0.926-1.062c0.061-0.596,0.193-1.135,0.463-1.734c0.262-0.596,3.926-9.182,3.926-9.182l6.66-15.238h-8.123
		l-6.458,14.836c-1.99,4.589-7.06,12.381-10.324,12.381c-0.521,0.064-1.057-0.33-1.125-0.934v-0.266
		c0-0.797,0.604-2.262,1.064-3.329l3.397-7.45l6.987-15.238h-8.054l-1.599,3.457c-1.193,2.331-3.193,5.052-6.388,5.052
		c-1.533,0-2.27-0.596-2.592-1.199c-0.471-5.12-3.733-7.841-8.525-7.841c-6.648,0-11.385,3.916-14.502,8.718
		c-2.068,3.325-3.656,6.851-4.792,10.578c-2.869,4.726-5.862,8.388-8.255,8.388c-0.6,0-1.011-0.338-1.011-1.135
		s0.806-2.597,1.075-3.265l5.257-11.182c1.461-3.457,2.463-5.715,2.463-7.985c0-2.387-1.666-4.117-4.397-4.117
		c-3.789,0-7.917,2.189-11.171,5.783c0.122-0.596,0.122-1.131,0.122-1.734c0-2.664-1.33-4.049-4.055-4.049
		c-3.464,0-7.06,2.061-10.314,5.783l2.128-5.188h-7.322l-6.188,13.971c-2.932,6.585-7.659,13.117-10.317,13.117
		c-0.596,0-0.999-0.338-0.999-1.135c0-1.26,1.396-4.392,1.927-5.659l8.187-18.571c0.604-1.385-3.322-2.263-8.315-2.263
		c-5.128,0-10.383,2.536-14.241,5.792c-2.732,2.267-4.727,3.401-5.726,3.401c-0.531,0-0.732-0.273-0.732-0.604
		c0-1.131,2.724-4.327,2.724-6.786c0-1.127-0.594-1.859-2.128-1.859c-2.924,0-6.39,2.793-8.919,5.715l2.137-5.119h-7.19
		l-6.187,13.971c-2.935,6.585-7.794,13.455-10.453,13.455c-0.604,0-0.998-0.338-0.998-1.135c0-1.271,1.328-4.322,2.061-5.933
		l8.188-18.636c0.6-1.385-3.331-2.263-8.315-2.263c-7.391,0-14.581,4.995-18.379,10.119c-4.188,5.526-7.052,11.387-7.112,16.181
		c-0.068,3.852,1.926,6.255,5.921,6.255c4.454,0,8.05-3.534,10.119-6.19c-0.141,0.531-0.201,1.062-0.27,1.602
		c0,2.657,1.062,4.589,4.324,4.589c2.856,0,6.66-2.403,9.717-6.19l-2.453,5.655h7.776l7.659-17.372
		c2.53-5.663,5.392-8.585,6.187-8.585c0.262,0,0.402,0.128,0.402,0.338c0,0.596-1.197,2.189-1.197,3.646
		c0,1.474,0.795,2.601,2.933,2.601c1.658,0,3.523-0.789,5.187-1.86c-3.931,5.325-6.592,10.912-6.592,15.513
		c-0.068,3.852,1.929,6.255,5.928,6.255c4.188,0,8.114-4.001,10.251-6.657c-0.068,0.596-0.137,1.191-0.137,1.859
		c0,2.604,1.463,4.798,4.466,4.798c3.322,0,5.978-2.068,9.308-6.126l-2.457,5.591h7.981l7.321-16.575
		c3.196-7.185,7.525-11.049,9.652-11.049c0.531-0.068,0.998,0.338,1.066,0.869v0.193c-0.068,0.806-0.334,1.606-0.664,2.327
		l-10.525,24.299h8.197l7.45-16.905c3.194-7.257,6.728-10.783,9.383-10.783c0.801,0,1.135,0.406,1.135,1.264
		c-0.068,0.935-0.334,1.876-0.732,2.665l-7.185,15.312c-0.675,1.465-1.067,3.059-1.204,4.652c0,2.335,1.267,4.396,4.86,4.396
		c4.657,0,8.188-3.526,12.182-8.787v1.136c0.334,4.186,2.663,7.853,8.852,7.853c7.317,0,13.252-5.063,16.841-13.105
		c1.332-2.861,2.26-5.864,2.598-8.992c0.793,0.395,1.727,0.604,2.592,0.531c1.193,0,2.394-0.266,3.456-0.869l-1.264,2.733
		c-1.46,3.062-3.058,6.46-4.321,9.326c-0.801,1.658-1.268,3.525-1.395,5.385c0,2.862,1.596,4.931,4.86,4.931
		c3.254,0,7.716-3.071,10.905-7.401h0.072c-0.201,0.877-0.334,1.803-0.334,2.736c0,2.396,0.733,4.665,4.06,4.665
		c3.862,0,6.854-2.801,9.781-6.331l-2.46,5.591h8.05l6.459-14.64c3.664-8.251,7.321-13.25,10.719-13.25
		c0.593,0,1.064,0.402,1.125,1.002v0.201c0,1.397-1.991,5.188-3.79,8.98c-1.664,3.461-2.928,6.126-3.785,8.19
		c-0.81,1.731-1.272,3.587-1.405,5.526c0,2.528,1.405,4.46,4.526,4.46c4.655,0,9.382-4.524,11.914-7.925
		c-0.6,1.67-0.865,3.336-0.934,5.059c0,4.657,2.799,6.996,6.722,6.996c2.592,0,5.13-0.865,7.259-2.403
		c3.053-2.129,5.522-5.325,7.583-8.247l-1.396-1.332c-1.93,2.725-4.06,5.321-6.255,6.919c-1.199,1.002-2.596,1.529-4.128,1.598
		c-1.662,0-2.732-0.865-2.732-2.994c0-2.13,1.002-4.991,2.531-8.859c0.068-0.061,2.269-4.987,4.329-9.708
		c1.732-3.997,3.464-7.857,3.794-8.654h5.255l1.068-2.398h-5.188L432.543,360.594z M205.516,398.992
		c-1.134,0-1.926-0.395-1.926-1.859c0.06-3.929,3.322-10.916,7.39-16.511c2.861-3.856,6.587-6.722,10.577-6.722l-5.053,11.311
		C212.706,393.744,208.578,398.992,205.516,398.992 M255.299,398.992c-1.127,0-1.922-0.395-1.99-1.859
		c0.068-3.929,3.326-10.916,7.386-16.511c2.859-3.856,6.585-6.722,10.58-6.722l-5.056,11.311
		C262.358,393.937,258.433,398.992,255.299,398.992 M343.688,376.963c-0.193,4.319-3.991,14.776-8.448,21.031
		c-1.8,2.531-3.327,3.265-4.659,3.265c-1.868,0-2.403-1.526-2.138-3.796c0.406-3.929,3.665-13.109,8.191-19.433
		c2.061-2.862,3.465-4.058,5.053-4.058C343.294,373.973,343.765,375.297,343.688,376.963"/>
	<polygon fill="#010101" points="467.912,371.84 475.244,354.91 466.564,354.91 459.236,371.84 440.794,371.84 437.725,378.939 
		456.168,378.939 448.84,395.865 457.512,395.865 464.837,378.939 483.276,378.939 486.352,371.84 	"/>
</g>
</svg>
