<?xml version="1.0" encoding="utf-8"?>
<!-- Generator: Adobe Illustrator 15.1.0, SVG Export Plug-In . SVG Version: 6.00 Build 0)  -->
<!DOCTYPE svg PUBLIC "-//W3C//DTD SVG 1.1//EN" "http://www.w3.org/Graphics/SVG/1.1/DTD/svg11.dtd">
<svg version="1.1" id="Layer_1" xmlns="http://www.w3.org/2000/svg" xmlns:xlink="http://www.w3.org/1999/xlink" x="0px" y="0px"
	 width="610px" height="610px" viewBox="0 0 610 610" enable-background="new 0 0 610 610" xml:space="preserve">
<g>
	<path fill="#010101" d="M210.553,305.974c0-27.526,10.168-44.858,22.335-46.686c-12.167-14.965-32.47-22.927-50.881-22.927
		c-20.29,0-38.52,8.811-51.085,22.826c11.994,2.366,16.071,12.405,16.071,27.953h-14.662c0-9.181-1.92-13.918-7.338-13.918
		c-2.455,0-4.355,1.239-5.479,3.328c-0.156,0.375-0.293,0.725-0.455,1.055c-0.43,1.184-0.668,2.584-0.668,4.073
		c0,19.022,31.23,18.081,31.23,47.311c0,11.407-8.742,22.049-18.588,22.049c12.916,14.128,30.614,22.597,50.973,22.597
		c19.8,0,37.61-8.364,50.145-21.755C220.619,348.949,210.553,332.338,210.553,305.974 M204.024,351.279h-15.71v-39.091h-16.974
		v39.091h-15.722v-90.152h15.71v36.33h16.985v-36.33h15.71V351.279z"/>
	<path fill="#010101" d="M126.949,336.918c4.367,0,7.495-3.855,7.495-9.454c0-11.633-10.18-13.883-21.047-23.72
		C113.248,323.66,119.39,336.918,126.949,336.918"/>
	<path fill="#010101" d="M226.162,304.501c0-15.183,4.407-30.356,12.478-30.356c9.571,0,11.99,23.445,11.99,30.871
		c0,16.262-5.124,30.949-11.99,30.949C230.364,335.965,226.162,320.492,226.162,304.501"/>
	<polygon fill="#010101" points="383.009,262.375 370.753,262.375 328.265,262.375 326.288,262.375 316.813,262.375 
		310.542,313.851 310.272,313.851 303.262,262.375 288.867,262.375 281.212,313.851 280.982,313.851 275.315,262.375 
		260.777,262.375 272.479,350.072 286.529,350.072 294.414,294.511 294.644,294.511 302.287,350.072 316.813,350.072 
		326.518,275.919 340.103,275.919 340.103,350.072 356.098,350.072 356.098,275.919 370.753,275.919 370.753,350.072 
		386.792,350.072 386.792,262.375 	"/>
	<polygon fill="#010101" points="394.642,262.375 415.954,262.375 423.098,307.339 423.34,307.339 430.842,262.375 451.68,262.375 
		451.68,350.072 437.363,350.072 437.363,285.776 437.142,285.776 426.286,350.072 417.443,350.072 406.704,285.776 
		406.463,285.776 406.463,350.072 394.642,350.072 	"/>
	<polygon fill="#010101" points="459.528,262.375 495.754,262.375 495.754,275.919 475.548,275.919 475.548,298.339 
		490.461,298.339 490.461,312.607 475.548,312.607 475.548,336.536 496.607,336.536 496.607,350.072 459.528,350.072 	"/>
</g>
</svg>
