<?xml version="1.0" encoding="UTF-8"?>
<svg width="193px" height="25px" viewBox="0 0 193 25" version="1.1" xmlns="http://www.w3.org/2000/svg" xmlns:xlink="http://www.w3.org/1999/xlink">
    <title>78C36E86-5F78-46D1-B78E-655941284C55</title>
    <defs>
        <polygon id="path-1" points="0.0848173077 0.0825961538 22.043375 0.0825961538 22.043375 23.9422596 0.0848173077 23.9422596"></polygon>
        <polygon id="path-3" points="0.0274903846 0.0826442308 24.7389327 0.0826442308 24.7389327 23.9423077 0.0274903846 23.9423077"></polygon>
    </defs>
    <g id="ðŸ—-Components" stroke="none" stroke-width="1" fill="none" fill-rule="evenodd">
        <g id="C_Footer-001A@XL" transform="translate(-1370.000000, -790.000000)">
            <g id="footer" transform="translate(0.000000, 170.000000)">
                <g id="Group-10" transform="translate(30.000000, 620.000000)">
                    <g id="elements/logo/negative" transform="translate(1340.000000, 0.000000)">
                        <g id="Group-21" transform="translate(0.000000, 0.000000)">
                            <path d="M127.810692,0.555384615 L127.810692,3.24903846 C125.890981,5.72653846 124.849923,8.77673077 124.849923,12.0259615 L124.849923,12.0902885 C124.849923,15.3499038 125.890115,18.4001923 127.810692,20.8708654 L127.810692,23.4970192 L127.809923,23.4970192 L127.809923,23.4970192 L121.484635,23.4970192 L121.484827,10.3222115 L115.618192,19.3020192 L115.487423,19.3020192 L109.653577,10.3547115 L109.653288,23.4970192 L103.425981,23.4970192 L103.426654,0.555096154 L110.1455,0.555096154 L115.618577,9.43721154 L121.091942,0.555384615 L127.810692,0.555384615 Z" id="Fill-1" fill="#1475FF"></path>
                            <path d="M165.300923,16.2865865 C165.300923,17.630625 164.219288,18.3840865 162.252942,18.3840865 L157.336692,18.3840865 L157.336692,14.1566827 L162.187365,14.1566827 C164.317558,14.1566827 165.301115,14.9757212 165.300923,16.2210096 L165.300923,16.2865865 Z M157.336981,5.66802885 L161.499288,5.66802885 C163.367365,5.66802885 164.383231,6.35620192 164.383231,7.634375 L164.383231,7.69995192 C164.383231,9.04399038 163.269,9.69927885 161.335442,9.69927885 L157.336981,9.69927885 L157.336981,5.66802885 Z M167.103423,11.5016827 C169.135923,10.6171635 170.642942,9.04399038 170.642942,6.38889423 L170.642942,6.32370192 C170.642942,4.75014423 170.086212,3.53774038 169.168712,2.58745192 C167.824769,1.27629808 165.792846,0.555144231 162.908423,0.555144231 L151.142846,0.555144231 L151.142173,23.4967788 L162.973712,23.4967788 C168.446788,23.4967788 171.658712,21.1044712 171.658712,17.1717788 L171.658712,17.1062019 C171.659,13.9927404 169.889481,12.4194712 167.103423,11.5016827 L167.103423,11.5016827 Z" id="Fill-3" fill="#000A54"></path>
                            <polygon id="Fill-5" fill="#1475FF" points="1.92307692e-05 0.555057692 7.07905769 0.555057692 12.2894423 15.0741923 17.5338654 0.555057692 24.4816538 0.555057692 15.2378077 23.4957308 9.20655769 23.4957308"></polygon>
                            <polygon id="Fill-7" fill="#1475FF" points="25.392625 0.555057692 31.7508942 0.555057692 31.7502212 23.4966923 25.3921442 23.4966923"></polygon>
                            <g id="Group-11" transform="translate(55.865385, 0.013558)">
                                <mask id="mask-2" fill="white">
                                    <use xlink:href="#path-1"></use>
                                </mask>
                                <g id="Clip-10"></g>
                                <path d="M0.0848173077,12.0782212 L0.0848173077,12.0122596 C0.0852019231,5.32677885 5.19818269,0.0825480769 12.1460673,0.0825480769 C16.8329904,0.0825480769 19.8481827,2.04927885 21.8801058,4.83524038 L17.0952019,8.53841346 C15.7839519,6.93274038 14.2763558,5.85129808 12.080875,5.85129808 C8.86856731,5.85129808 6.60741346,8.60399038 6.60741346,11.9466827 L6.60741346,12.0122596 C6.607125,15.4537019 8.86818269,18.1409135 12.0801058,18.1409135 C14.4727981,18.1409135 15.8820288,17.0269712 17.258375,15.3554327 L22.043375,18.7635096 C19.8802981,21.7462981 16.9632788,23.9422596 11.9161635,23.9422596 C5.36145192,23.9422596 0.0848173077,18.9276442 0.0848173077,12.0782212" id="Fill-9" fill="#1475FF" mask="url(#mask-2)"></path>
                            </g>
                            <path d="M127.740548,12.0915962 L127.740548,12.0260192 C127.740548,5.34015385 132.853625,0.0964038462 139.801894,0.0964038462 C144.488433,0.0964038462 147.503529,2.06284615 149.535452,4.84890385 L144.750356,8.55207692 C143.439202,6.9465 141.932087,5.86467308 139.736221,5.86467308 C136.52401,5.86467308 134.262952,8.61765385 134.262856,11.9604423 L134.262856,12.0260192 C134.262856,15.4674615 136.523625,18.1546731 139.73574,18.1546731 C142.12824,18.1546731 143.537375,17.0403462 144.913721,15.3690962 L149.699106,18.7774615 C147.535644,21.7596731 144.618817,23.9556346 139.571798,23.9556346 C133.016894,23.9556346 127.740548,18.9414038 127.740548,12.0915962" id="Fill-12" fill="#000A54"></path>
                            <path d="M176.033163,15.586 C178.51249,17.4591731 181.36326,18.2482115 183.167875,18.2482115 C184.949606,18.2482115 186.245952,17.6545577 185.74451,16.2664808 C185.380567,15.6059038 184.365183,15.0380192 182.016721,14.4752308 C177.133356,13.3609038 173.364702,12.2557115 173.364702,7.56859615 L173.364702,7.50340385 C173.364702,3.24273077 176.740279,0.161961538 182.24624,0.161961538 C186.146529,0.161961538 189.194798,1.21090385 191.685087,3.21032692 L188.598548,7.56975 C186.500856,6.06176923 184.114606,5.43869231 182.082587,5.43869231 C180.542298,5.43869231 179.78874,6.06138462 179.78874,6.9135 L179.78874,6.97907692 C179.788356,8.02763462 180.574606,8.21523077 183.786625,8.93638462 C189.030471,10.0835 192.308067,12.0592692 192.307683,16.3523462 L192.307683,16.4175385 C192.307683,21.1045577 188.604221,23.8901346 183.032394,23.8901346 C178.968837,23.8901346 175.133933,22.6117692 172.282587,20.0885962 L176.033163,15.586 Z" id="Fill-14" fill="#000A54"></path>
                            <g id="Group-18" transform="translate(77.403846, 0.013558)">
                                <mask id="mask-4" fill="white">
                                    <use xlink:href="#path-3"></use>
                                </mask>
                                <g id="Clip-17"></g>
                                <path d="M18.216625,12.0783173 C18.216625,15.3883173 15.8898942,18.206875 12.4156635,18.206875 C8.90902885,18.206875 6.51624038,15.3230288 6.516625,12.0124519 L6.516625,11.9467788 C6.516625,8.636875 8.84364423,5.81822115 12.3504712,5.81822115 C15.8574904,5.81822115 18.216625,8.66995192 18.216625,12.0124519 L18.216625,12.0783173 Z M12.4163365,0.0826442308 C5.33691346,0.0826442308 0.0274903846,5.42495192 0.0274903846,12.0124519 L0.0274903846,12.0783173 C0.0272019231,18.665625 5.27104808,23.9423558 12.3500865,23.9423558 C19.4295096,23.9423558 24.7389327,18.6000481 24.7389327,12.0124519 L24.7389327,11.9467788 C24.7392212,5.359375 19.4950865,0.0826442308 12.4163365,0.0826442308 L12.4163365,0.0826442308 Z" id="Fill-16" fill="#1475FF" mask="url(#mask-4)"></path>
                            </g>
                            <path d="M42.7226154,14.4174135 L45.3116538,7.92856731 L47.8680962,14.4174135 L42.7226154,14.4174135 Z M48.4982885,0.554721154 L42.2300192,0.554721154 L32.5625192,23.4959712 L39.2152115,23.4959712 L40.8543462,19.3669327 L49.7360769,19.3669327 L51.3749231,23.4959712 L58.1916538,23.4959712 L48.4982885,0.554721154 Z" id="Fill-19" fill="#1475FF"></path>
                        </g>
                    </g>
                </g>
            </g>
        </g>
    </g>
</svg>